<?xml version="1.0" standalone="no"?>
<!DOCTYPE svg PUBLIC "-//W3C//DTD SVG 20010904//EN"
 "http://www.w3.org/TR/2001/REC-SVG-20010904/DTD/svg10.dtd">
<svg version="1.0" xmlns="http://www.w3.org/2000/svg"
 width="259.000000pt" height="259.000000pt" viewBox="0 0 259.000000 259.000000"
 preserveAspectRatio="xMidYMid meet">

<g transform="translate(0.000000,259.000000) scale(0.100000,-0.100000)"
fill="#000000" stroke="none">
<path d="M0 1295 l1 -1295 1294 0 1295 0 0 159 c0 143 -2 160 -17 165 -26 9
-88 68 -91 89 -4 25 10 21 55 -18 22 -19 43 -31 47 -28 3 3 6 38 6 78 0 67 -1
71 -29 88 -16 9 -39 17 -51 17 -13 0 -20 5 -17 13 5 16 46 11 67 -8 9 -8 20
-15 23 -15 4 0 7 209 7 465 0 256 -4 465 -8 465 -5 0 -19 -12 -33 -26 -63 -69
-263 -169 -360 -181 -49 -6 -69 -23 -26 -23 32 0 107 -24 165 -54 28 -14 67
-26 86 -26 19 0 38 -4 41 -10 4 -6 -7 -10 -27 -10 -28 0 -30 -2 -18 -15 8 -7
33 -20 54 -27 22 -7 42 -19 44 -27 3 -8 0 -11 -7 -7 -20 13 -11 -3 16 -29 24
-21 26 -27 13 -35 -10 -7 -11 -10 -2 -10 12 0 30 -34 37 -73 5 -21 2 -21 -38
-1 l-31 17 37 -35 c35 -34 47 -58 28 -58 -5 0 -11 -9 -14 -21 -5 -20 -6 -20
-39 -3 l-33 17 34 -39 c24 -27 30 -39 20 -43 -19 -6 -39 -27 -39 -42 0 -9 -4
-8 -13 3 -6 9 -25 23 -42 33 -16 9 -23 11 -15 4 20 -17 50 -61 50 -71 0 -5 -9
-8 -21 -8 -11 0 -17 -4 -14 -10 3 -5 -1 -10 -9 -10 -9 0 -16 -7 -16 -16 0 -9
-6 -14 -13 -11 -7 3 -19 -4 -25 -14 -10 -15 -17 -17 -31 -10 -15 9 -18 7 -17
-12 1 -14 -4 -21 -13 -19 -8 2 -17 -1 -20 -5 -3 -5 -21 -20 -40 -33 l-34 -23
-30 34 c-17 18 -28 26 -24 15 21 -53 20 -66 -4 -67 -13 -1 -32 0 -42 1 -16 1
-18 -3 -12 -32 4 -18 13 -50 20 -71 7 -20 12 -37 11 -37 -1 0 -25 29 -53 64
-41 50 -61 66 -98 79 l-47 15 5 -39 c3 -22 1 -42 -5 -46 -6 -3 -8 -1 -5 4 12
18 -17 31 -60 28 -72 -6 -96 6 -115 56 l-18 44 6 -50 6 -50 -45 0 c-25 1 -52
7 -61 14 -20 17 -20 4 -1 -42 18 -44 20 -86 2 -47 -19 44 -68 100 -100 117
-26 13 -67 18 -205 26 -7 0 -11 6 -8 13 3 9 -1 11 -11 7 -12 -5 -14 -3 -8 6 4
8 3 16 -4 20 -7 5 -5 14 9 28 11 13 15 23 8 25 -7 3 -3 19 11 47 26 49 24 59
-7 31 -11 -11 -23 -16 -26 -11 -11 17 -44 0 -39 -20 6 -23 -10 -25 -27 -4 -7
8 -17 12 -22 9 -5 -3 -4 3 4 15 10 17 10 23 -1 33 -12 11 -13 10 -7 -7 7 -18
5 -18 -17 3 -30 29 -33 28 -70 -10 -16 -18 -25 -24 -19 -13 5 11 22 31 36 44
17 16 22 27 15 32 -14 8 -49 0 -49 -12 0 -5 -3 -9 -7 -9 -15 0 -11 55 4 73 9
9 13 18 10 18 -4 1 -11 3 -17 4 -5 1 -19 3 -30 4 -23 1 -28 21 -5 21 9 0 20
11 25 25 5 14 21 30 35 37 14 6 25 17 25 24 0 23 -21 26 -43 8 -18 -16 -18
-14 2 9 20 22 22 27 8 27 -20 0 -22 11 -4 29 10 11 9 13 -5 7 -51 -18 -54 -18
-33 -2 18 15 18 17 2 33 -16 16 -18 16 -33 -5 -20 -29 -56 -49 -48 -27 4 9 9
13 12 11 10 -11 32 17 32 40 0 33 -18 40 -26 9 -6 -24 -32 -30 -26 -6 1 6 -2
11 -7 11 -5 0 -11 9 -14 21 -9 32 36 48 65 23 12 -10 18 -13 14 -6 -4 7 -2 19
4 27 9 11 9 15 1 15 -6 0 -11 -4 -11 -10 0 -5 -4 -10 -9 -10 -6 0 -8 10 -6 22
5 25 -22 88 -38 88 -7 0 -7 -4 1 -12 7 -7 12 -19 12 -27 0 -14 -1 -14 -10 -1
-7 11 -10 11 -10 2 0 -7 -5 -10 -10 -7 -6 4 -8 15 -5 26 5 14 1 19 -12 19 -15
0 -14 4 7 20 30 23 44 25 36 5 -3 -8 -1 -15 4 -15 17 0 25 5 22 13 -4 13 7 8
28 -13 11 -11 20 -27 20 -36 0 -14 3 -14 16 -4 13 12 13 16 -5 34 l-21 20 37
34 c21 18 67 48 103 65 58 29 74 32 155 32 88 0 92 -1 168 -44 75 -41 78 -44
60 -61 -16 -16 -20 -16 -35 -2 -14 12 -15 18 -6 29 9 11 6 13 -20 8 -26 -4
-30 -2 -25 11 5 14 3 15 -14 6 -16 -9 -22 -6 -36 12 -12 16 -26 22 -45 20 -14
-1 -32 2 -39 8 -8 7 -13 7 -13 0 0 -5 -9 -12 -20 -15 -11 -3 -20 0 -20 6 0 8
-4 7 -9 -2 -6 -9 -11 -10 -15 -2 -4 6 -13 11 -19 11 -9 0 -9 -2 0 -8 9 -5 1
-12 -22 -21 -20 -7 -33 -16 -31 -20 3 -4 -1 -8 -9 -8 -8 0 -12 4 -9 8 2 4 1
10 -4 13 -5 3 -8 -8 -8 -25 0 -16 1 -29 2 -29 12 0 83 49 74 52 -6 2 25 3 69
2 43 -1 88 -7 99 -13 12 -6 31 -11 43 -11 17 0 20 -3 12 -11 -9 -9 -22 -8 -53
5 -92 37 -170 16 -299 -79 -62 -46 -63 -47 -41 -62 16 -11 20 -22 16 -39 -5
-20 -2 -24 30 -30 20 -4 90 -7 157 -8 110 -1 129 2 192 26 39 15 97 34 130 44
33 9 65 20 70 24 6 5 37 12 70 16 l60 8 -54 8 c-30 5 -68 17 -85 27 -17 10
-45 18 -63 16 -28 -1 -31 0 -22 17 12 22 7 22 65 -4 44 -21 65 -23 194 -23
304 0 555 86 698 239 l42 45 0 510 0 511 -1295 0 -1295 0 0 -1295z m1158 1200
c18 -4 53 -22 79 -42 33 -25 51 -33 67 -28 65 20 93 22 149 13 34 -5 85 -13
112 -18 49 -8 201 -66 303 -117 49 -24 140 -100 217 -181 48 -49 132 -210 150
-283 19 -82 19 -216 0 -298 -23 -96 -32 -101 -32 -19 0 98 -40 219 -96 291
-22 28 -30 43 -17 32 l23 -20 -12 23 c-6 12 -16 22 -21 22 -5 0 -11 9 -15 19
-8 27 -88 105 -111 110 -10 2 -41 4 -69 5 -27 1 -61 8 -74 15 l-24 13 9 -43
c4 -24 8 -81 9 -126 0 -77 2 -83 28 -103 15 -12 34 -35 42 -50 24 -47 17 -48
-11 -2 -17 29 -31 41 -40 38 -8 -3 -13 -2 -10 3 3 5 -1 11 -9 15 -8 3 -15 0
-15 -7 0 -9 -2 -9 -8 1 -7 10 -15 10 -43 -2 -19 -9 -27 -15 -18 -16 14 0 15
-6 6 -40 -6 -22 -15 -40 -20 -40 -10 0 -51 -90 -43 -97 3 -3 12 0 21 7 20 17
19 6 -2 -15 -15 -16 -14 -16 13 -12 40 6 123 49 158 82 15 14 30 24 33 22 7
-7 -88 -82 -145 -114 l-54 -31 23 -16 c16 -11 18 -16 8 -16 -22 0 -60 30 -53
41 3 6 -2 9 -11 7 -9 -2 -24 7 -32 20 -14 20 -14 22 5 22 19 0 32 18 32 46 0
8 -6 11 -17 7 -12 -4 -8 4 11 25 26 28 27 33 15 49 -9 11 -10 14 -1 9 11 -6
17 5 13 26 0 5 4 7 11 5 7 -1 12 4 13 11 0 16 42 41 67 42 26 0 23 115 -3 167
-11 21 -13 30 -6 20 13 -16 14 -13 13 28 -1 40 -3 45 -25 45 -21 0 -22 2 -10
17 12 15 12 16 -3 10 -10 -3 -18 -2 -18 2 0 5 -7 12 -16 15 -8 3 -12 2 -9 -4
4 -6 -1 -17 -9 -26 -11 -11 -16 -36 -17 -87 0 -53 -3 -66 -9 -49 -10 24 -26
29 -33 10 -3 -7 -4 -3 -4 8 1 14 6 20 15 17 10 -4 12 5 6 46 -6 46 -4 55 17
78 18 20 20 25 7 20 -10 -4 -18 -2 -18 4 0 6 -5 7 -10 4 -7 -4 -10 7 -8 30 2
39 -19 65 -51 65 -12 0 -13 -2 -3 -8 9 -6 6 -12 -13 -20 -22 -10 -27 -17 -24
-38 0 -4 -4 -10 -10 -14 -8 -4 -4 -16 10 -34 l22 -28 -29 6 c-16 3 -40 9 -54
13 -49 13 -226 15 -295 3 -81 -14 -121 -32 -153 -69 -16 -18 -20 -20 -13 -6
12 26 49 59 86 78 63 31 177 59 231 55 30 -1 54 0 54 3 0 11 105 17 111 7 3
-5 9 4 12 20 3 16 17 39 30 52 22 21 23 25 10 52 -35 69 -125 63 -162 -10 -15
-28 4 -89 28 -95 9 -3 2 -5 -15 -6 -24 -1 -33 5 -42 24 -7 14 -12 34 -13 43 0
9 -5 4 -10 -13 -5 -16 -7 -36 -4 -43 3 -9 0 -10 -13 -3 -10 5 -31 8 -46 7 -41
-5 -109 12 -123 31 -7 9 -13 13 -13 7 0 -5 -5 -2 -11 6 -7 11 -9 1 -7 -37 3
-47 2 -50 -15 -41 -16 8 -18 7 -13 -10 6 -17 3 -19 -14 -15 -11 3 -26 1 -33
-5 -6 -5 -22 -13 -34 -16 -18 -6 -22 -4 -17 8 4 10 -2 15 -17 18 -13 2 -29 13
-35 26 -20 41 -24 35 -17 -30 4 -49 2 -67 -9 -79 -8 -8 -17 -21 -21 -29 -4
-11 -6 -10 -6 4 -1 12 -6 16 -16 12 -8 -3 -14 -2 -14 2 4 22 -3 32 -21 32 -20
0 -45 34 -35 50 3 5 1 11 -4 14 -10 7 -21 -16 -21 -43 0 -10 9 -40 19 -67 10
-27 25 -64 32 -82 6 -19 29 -54 51 -80 60 -73 45 -69 -32 8 -63 63 -75 71 -71
48 0 -4 -6 -5 -14 -2 -8 4 -15 10 -15 15 0 5 -11 3 -25 -3 -23 -10 -29 -8 -60
25 -19 20 -37 48 -41 62 -9 36 10 75 38 76 17 1 19 2 6 6 -10 2 -18 8 -18 12
0 5 -3 22 -6 38 -5 24 -1 35 17 52 26 24 48 29 29 6 -13 -16 -3 -20 18 -7 7 5
10 16 6 26 -18 47 -150 63 -214 26 l-35 -21 32 30 c57 53 168 65 243 26 29
-15 33 -15 49 -1 22 20 41 20 41 0 0 -8 5 -12 10 -9 17 11 11 53 -12 79 -13
14 -39 30 -58 35 -34 11 -34 11 13 7 29 -2 62 -13 87 -30 37 -24 40 -25 74
-11 20 9 36 17 36 20 0 9 -51 38 -83 46 -28 8 -26 8 15 5 26 -2 59 -12 76 -25
22 -15 38 -19 61 -15 39 8 39 18 2 55 -23 23 -39 29 -73 30 -37 0 -40 2 -21
11 36 18 108 0 158 -38 28 -21 54 -33 70 -32 14 1 25 5 25 9 0 18 -62 70 -89
75 -17 4 -31 11 -31 16 0 5 8 7 18 4 9 -2 32 -7 50 -11z m357 -201 c9 -10 12
-20 8 -23 -5 -3 -12 -14 -16 -23 -4 -12 -14 -15 -31 -12 -21 4 -26 0 -26 -16
0 -12 -5 -18 -10 -15 -6 4 -10 12 -9 18 1 7 -2 21 -6 31 -8 19 -9 19 -16 0 -6
-16 -8 -16 -8 -2 -2 46 80 76 114 42z m-886 -113 c8 -5 9 -11 3 -15 -5 -3 -15
1 -22 9 -14 16 -3 20 19 6z m-95 -16 c44 -9 82 -17 84 -20 2 -2 -6 -20 -18
-39 -19 -32 -27 -61 -29 -105 -1 -11 -4 -12 -12 -4 -7 7 -8 21 -3 34 15 50 10
78 -16 88 -88 33 -222 40 -287 14 -44 -18 -52 -16 -24 3 62 44 172 54 305 29z
m1086 -4 c0 -5 -10 -21 -22 -36 -20 -26 -22 -26 -29 -9 -12 31 -10 40 14 51
22 11 37 8 37 -6z m-546 -70 c6 -9 -35 -24 -43 -15 -6 5 18 24 31 24 4 0 9 -4
12 -9z m-884 -5 c0 -2 -8 -10 -17 -17 -16 -13 -17 -12 -4 4 13 16 21 21 21 13z
m1430 -16 c0 -5 -5 -10 -11 -10 -5 0 -7 5 -4 10 3 6 8 10 11 10 2 0 4 -4 4
-10z m-1105 -36 c-12 -13 -18 -14 -30 -4 -15 12 -64 10 -110 -4 -11 -4 -6 0
10 8 17 8 56 15 88 16 54 0 57 -1 42 -16z m1930 -54 c10 -11 15 -23 12 -27 -4
-3 -7 -1 -7 6 0 8 -6 11 -16 7 -16 -6 -48 17 -37 28 12 11 30 6 48 -14z
m-1954 0 c10 -6 19 -21 19 -35 0 -39 11 -55 37 -55 l26 0 -27 21 c-14 11 -26
27 -26 34 0 35 75 15 104 -27 9 -12 16 -19 16 -15 0 18 82 -37 104 -70 27 -39
26 -64 -1 -37 -9 9 -26 20 -37 25 -28 12 -55 30 -78 52 -40 38 -26 9 18 -39
50 -53 80 -102 68 -112 -4 -4 -9 -1 -11 6 -3 6 -15 12 -27 12 -12 0 -37 11
-56 25 -19 14 -41 23 -51 20 -9 -3 -36 6 -60 20 -56 32 -112 33 -133 3 -9 -12
-18 -19 -22 -16 -3 4 5 18 19 32 19 19 37 26 69 27 24 1 35 3 26 6 -10 2 -18
14 -18 25 0 15 5 19 20 15 11 -3 23 -1 26 4 3 5 0 9 -6 9 -7 0 -9 8 -5 20 4
13 0 23 -14 32 -38 23 -20 39 20 18z m693 -11 c-4 -8 1 -9 17 -4 13 4 21 4 17
0 -4 -4 -22 -9 -40 -11 -17 -2 -45 -16 -62 -32 l-30 -27 22 35 c13 22 32 37
49 41 15 4 29 7 31 8 2 0 0 -4 -4 -10z m-744 -3 c0 -2 -13 -6 -29 -8 -17 -2
-28 -1 -25 4 5 8 54 12 54 4z m1395 -72 c4 -58 4 -58 -4 -12 -5 25 -12 57 -16
70 -6 17 -4 20 4 12 7 -6 14 -38 16 -70z m-138 44 c-3 -8 -6 -5 -6 6 -1 11 2
17 5 13 3 -3 4 -12 1 -19z m233 -25 c0 -32 -5 -28 -14 10 -4 19 -3 26 4 22 5
-3 10 -18 10 -32z m-1525 14 c22 -13 27 -38 8 -44 -7 -3 -9 4 -6 18 4 15 2 20
-5 15 -6 -3 -14 -1 -18 5 -4 8 -9 7 -15 -2 -7 -11 -9 -10 -9 4 0 20 16 21 45
4z m805 -7 c0 -13 5 -18 15 -14 10 4 15 0 16 -12 0 -11 3 -14 5 -7 4 8 17 4
41 -13 19 -13 39 -21 44 -18 5 3 8 2 7 -3 -5 -14 45 -73 55 -66 6 3 7 1 3 -5
-3 -6 -2 -13 4 -17 17 -10 77 43 99 88 26 53 27 24 2 -43 -11 -27 -16 -50 -13
-50 4 1 23 21 42 45 19 24 36 42 38 40 6 -5 -45 -115 -54 -115 -3 0 -4 7 0 15
4 12 2 13 -13 5 -15 -7 -20 -6 -25 7 -6 14 -9 14 -29 -4 -12 -11 -43 -28 -70
-37 -52 -19 -77 -47 -78 -86 0 -14 -3 -19 -6 -12 -9 22 6 60 38 97 17 19 37
35 45 35 40 0 -12 51 -59 58 -54 8 -107 5 -122 -8 -10 -8 -15 -9 -15 -2 0 14
34 33 75 43 30 7 30 7 -7 8 -49 1 -88 -15 -116 -47 l-23 -27 15 32 c9 17 30
43 48 57 25 19 28 26 15 26 -25 0 -65 -28 -83 -59 l-15 -26 6 25 c6 25 88 110
106 110 5 0 9 -9 9 -20z m680 5 c0 -1 -6 -7 -13 -13 -10 -8 -13 -6 -14 8 -1
13 3 17 13 13 8 -3 14 -6 14 -8z m-1590 -21 c-30 -14 -71 -37 -90 -51 -27 -20
-30 -21 -15 -5 24 26 124 82 145 81 8 0 -10 -11 -40 -25z m1420 22 c0 -2 -8
-10 -17 -17 -16 -13 -17 -12 -4 4 13 16 21 21 21 13z m730 -27 c0 -25 -31 -25
-47 1 -11 16 -10 18 1 14 8 -3 17 0 21 5 9 16 25 3 25 -20z m-543 -41 c-2 -13
-4 -3 -4 22 0 25 2 35 4 23 2 -13 2 -33 0 -45z m-508 16 c4 3 5 -12 3 -32 -3
-30 -1 -34 8 -22 10 13 11 12 6 -4 -5 -14 -2 -17 10 -12 14 5 15 4 4 -8 -13
-17 -30 -6 -43 27 -3 9 -12 16 -19 15 -7 -2 -14 8 -15 22 l-2 25 8 -25 c7 -24
8 -24 16 10 6 22 10 29 13 17 2 -9 7 -15 11 -13z m358 -26 c-2 -13 -4 -5 -4
17 -1 22 1 32 4 23 2 -10 2 -28 0 -40z m300 -18 c8 0 13 -13 14 -32 0 -18 2
-43 5 -55 2 -12 -1 -25 -6 -28 -6 -4 -10 7 -10 24 0 33 -32 115 -49 125 -6 4
-11 15 -11 24 0 10 10 1 22 -20 12 -21 28 -38 35 -38z m-1507 -71 c55 -29 130
-99 130 -121 0 -13 -23 -9 -44 7 -11 8 -28 15 -38 15 -10 0 -18 5 -18 11 0 6
-16 10 -37 9 -42 -3 -83 8 -83 21 0 5 -5 8 -12 7 -6 -2 -14 6 -16 16 -4 17 1
19 52 13 60 -6 69 8 11 19 -18 3 -41 14 -51 25 -16 18 -15 18 14 14 17 -2 59
-18 92 -36z m790 18 c0 -5 4 -6 9 -2 5 3 12 1 15 -4 11 -18 -14 -22 -36 -7
-25 18 -58 21 -58 6 0 -5 -5 -10 -11 -10 -8 0 -8 5 1 15 13 15 80 17 80 2z
m-745 -7 c3 -6 -1 -7 -9 -4 -18 7 -21 14 -7 14 6 0 13 -4 16 -10z m-227 -16
c18 -8 32 -20 32 -25 0 -15 -13 -10 -44 16 -34 29 -31 31 12 9z m1598 -9 c17
-27 11 -65 -11 -65 -8 0 -19 9 -25 21 -10 17 -9 20 6 17 29 -5 27 20 -3 36
-26 14 -26 15 -6 16 13 0 29 -10 39 -25z m-496 -34 c0 -10 -30 -24 -37 -17 -3
3 -2 9 2 15 8 13 35 15 35 2z m74 -16 c-6 -15 -10 -17 -57 -20 -16 -1 -26 2
-24 9 2 6 18 11 34 11 17 0 35 3 39 8 11 11 14 9 8 -8z m-454 -15 c6 -11 8
-20 6 -20 -3 0 -10 9 -16 20 -6 11 -8 20 -6 20 3 0 10 -9 16 -20z m472 -11
c-12 -5 -22 -11 -22 -15 0 -3 7 -3 16 0 12 4 15 2 10 -9 -7 -19 8 -19 24 0 23
28 32 15 10 -15 -12 -16 -17 -30 -11 -30 5 0 18 14 28 30 20 34 40 41 21 8 -7
-13 -12 -26 -13 -30 0 -4 -6 -16 -14 -27 -12 -16 -18 -17 -35 -8 -12 7 -25 17
-29 22 -6 6 -10 6 -14 -2 -2 -7 -10 -13 -16 -13 -6 0 0 11 12 24 l23 25 -23
-6 c-18 -5 -21 -3 -16 10 4 11 2 14 -9 10 -7 -3 -14 -9 -14 -14 0 -5 -5 -9
-12 -9 -16 0 20 38 51 54 14 7 32 10 40 8 10 -4 8 -8 -7 -13z m73 11 c3 -6 -1
-7 -9 -4 -18 7 -21 14 -7 14 6 0 13 -4 16 -10z m-395 -4 c0 -2 -8 -10 -17 -17
-16 -13 -17 -12 -4 4 13 16 21 21 21 13z m-731 -21 c47 -7 78 -22 85 -42 7
-17 -17 -16 -60 2 -50 21 -34 3 23 -24 60 -30 83 -49 77 -66 -8 -20 -155 -11
-233 14 -62 20 -101 20 -128 -2 -9 -6 -13 -6 -13 2 0 7 17 19 38 28 30 13 53
14 125 7 96 -10 95 -12 22 39 -14 10 -25 23 -25 29 0 7 4 7 13 0 19 -15 57
-24 57 -14 0 5 -9 12 -20 15 -11 3 -20 10 -20 17 0 6 3 9 8 6 4 -2 27 -7 51
-11z m371 5 c0 -5 -2 -10 -4 -10 -3 0 -8 5 -11 10 -3 6 -1 10 4 10 6 0 11 -4
11 -10z m904 -2 c-4 -7 -9 -26 -11 -43 -2 -16 -11 -36 -20 -42 -26 -20 -29 -6
-5 27 28 37 29 51 2 22 -20 -21 -30 -27 -30 -18 0 5 63 66 68 66 2 0 0 -5 -4
-12z m-577 -40 c-3 -8 -6 -5 -6 6 -1 11 2 17 5 13 3 -3 4 -12 1 -19z m0 -50
c-3 -7 -5 -2 -5 12 0 14 2 19 5 13 2 -7 2 -19 0 -25z m682 -16 c-7 -10 -29
-30 -51 -43 -21 -13 -38 -28 -38 -33 0 -4 15 3 34 18 21 16 36 21 38 14 2 -6
21 4 43 23 42 36 39 27 -8 -33 -16 -21 -34 -38 -40 -38 -6 0 -3 6 7 13 15 11
16 15 4 19 -9 4 -23 -7 -37 -28 -21 -31 -24 -32 -40 -17 -9 9 -16 24 -16 32
-1 15 34 48 46 44 3 -1 19 10 35 26 33 31 41 32 23 3z m-319 14 c0 -3 -4 -8
-10 -11 -5 -3 -10 -1 -10 4 0 6 5 11 10 11 6 0 10 -2 10 -4z m-326 -66 c6 -9
1 -5 -11 8 -13 13 -23 28 -23 35 0 7 6 3 12 -8 6 -11 16 -27 22 -35z m-183 1
c25 -24 39 -47 38 -62 0 -14 -3 -18 -6 -9 -13 40 -31 65 -63 86 -19 13 -29 24
-21 24 7 0 31 -17 52 -39z m-181 9 c0 -5 -4 -10 -10 -10 -5 0 -10 5 -10 10 0
6 5 10 10 10 6 0 10 -4 10 -10z m-315 -36 c14 -9 32 -13 42 -10 10 4 14 4 10
0 -4 -4 3 -18 15 -31 19 -20 20 -25 8 -33 -15 -10 -96 -7 -106 3 -3 3 -18 1
-34 -3 -29 -8 -36 -5 -55 29 -6 10 1 12 34 8 23 -2 44 0 47 4 7 12 -39 29 -79
30 -27 0 -29 2 -12 9 33 14 104 11 130 -6z m189 -19 c40 -38 45 -65 19 -91
-10 -10 -16 -20 -14 -23 2 -3 -6 -10 -18 -16 -25 -12 -26 -18 -6 -35 23 -19
20 -59 -5 -57 -11 1 -20 5 -20 10 0 4 -3 6 -7 4 -5 -3 -14 1 -21 9 -10 12 -10
14 2 14 14 0 15 34 2 48 -3 2 2 11 10 19 13 14 13 18 -3 42 -37 57 -46 81 -33
96 20 25 56 17 94 -20z m220 -1 c9 -8 15 -27 15 -42 -1 -21 -2 -22 -6 -7 -3
10 -12 29 -20 42 -18 26 -12 30 11 7z m984 -12 c2 -7 -2 -10 -12 -6 -9 3 -16
11 -16 16 0 13 23 5 28 -10z m-928 -14 c0 -6 -6 -5 -15 2 -8 7 -15 14 -15 16
0 2 7 1 15 -2 8 -4 15 -11 15 -16z m-90 -8 c0 -5 -7 -7 -15 -4 -8 4 -15 8 -15
10 0 2 7 4 15 4 8 0 15 -4 15 -10z m-110 -21 c0 -6 -4 -7 -10 -4 -5 3 -10 11
-10 16 0 6 5 7 10 4 6 -3 10 -11 10 -16z m1127 -3 c-3 -8 -16 -20 -28 -27 -22
-12 -22 -11 2 18 25 31 36 35 26 9z m-1511 -21 c10 -8 14 -15 8 -15 -5 0 -19
7 -30 15 -10 8 -14 15 -8 15 5 0 19 -7 30 -15z m465 -50 c21 -48 18 -82 -11
-112 -17 -17 -17 -19 2 -40 44 -48 31 -136 -24 -163 -18 -9 -17 -6 5 10 29 23
34 48 15 69 -10 11 -10 13 0 7 6 -4 12 -2 12 4 0 6 -12 11 -27 10 -45 -3 -51
-1 -58 20 -4 11 -10 18 -13 16 -4 -2 -18 2 -31 9 l-24 12 25 17 26 17 -24 24
c-55 55 -13 145 68 145 37 0 40 -3 59 -45z m-401 14 c0 -5 -6 -9 -12 -9 -7 0
-24 -3 -38 -6 l-25 -5 23 13 c12 8 20 17 16 20 -3 4 3 4 15 1 12 -3 21 -9 21
-14z m116 2 c-3 -4 9 -13 25 -20 56 -25 31 -37 -108 -57 -50 -6 -53 -5 -53 14
0 15 8 24 24 28 16 4 23 11 19 20 -4 10 4 14 30 14 20 0 39 5 42 10 4 6 11 8
16 4 5 -3 7 -9 5 -13z m885 -5 c-18 -21 90 -81 147 -81 23 0 37 -2 32 -3 -6
-2 -8 -8 -4 -13 16 -27 -80 5 -155 52 -49 30 -52 33 -35 46 23 17 29 17 15 -1z
m156 -72 c-3 -3 -12 -4 -19 -1 -8 3 -5 6 6 6 11 1 17 -2 13 -5z m-1181 -35
c19 -22 19 -22 -3 -8 -13 8 -23 17 -23 21 0 12 6 9 26 -13z m230 -21 c26 -18
30 -24 18 -31 -8 -4 -19 -5 -24 -2 -6 3 -10 1 -10 -4 0 -6 -11 -11 -25 -11
-14 0 -25 -4 -25 -8 0 -4 -19 -8 -42 -7 -50 0 -66 28 -26 45 23 10 23 10 -2 6
-14 -3 -32 -1 -40 4 -8 5 -13 10 -10 10 3 0 23 7 45 15 50 19 97 13 141 -17z
m54 4 c0 -4 -9 -8 -20 -9 -11 -1 -20 2 -20 5 0 4 9 8 20 9 11 1 20 -2 20 -5z
m190 -40 c0 -12 -3 -12 -15 -2 -8 6 -20 8 -27 4 -10 -6 -9 -3 1 9 11 14 11 17
0 17 -11 0 -11 2 1 10 16 11 40 -12 40 -38z m413 36 c6 -17 -11 -48 -26 -48
-8 0 -7 4 3 10 13 9 13 12 -2 24 -10 7 -18 16 -18 20 0 12 38 6 43 -6z m-1148
-107 c-28 -56 -31 -85 -9 -121 14 -25 14 -25 8 11 -4 29 -1 41 18 64 23 27 25
27 54 12 25 -13 26 -16 12 -22 -10 -4 -25 -4 -34 -1 -14 5 -15 4 -4 -9 9 -11
9 -15 1 -15 -7 0 -9 -5 -5 -11 4 -8 -1 -9 -17 -4 l-24 7 23 -17 c12 -9 22 -27
22 -41 0 -13 5 -24 11 -24 6 0 8 -7 5 -16 -3 -8 -2 -13 2 -10 4 2 14 1 21 -3
9 -6 7 -18 -10 -54 -23 -48 -59 -70 -59 -37 0 10 -7 21 -16 24 -9 3 -14 12
-11 20 4 10 0 12 -13 9 -11 -3 -27 2 -36 12 -15 14 -15 18 -3 26 11 7 11 9 1
9 -7 0 -11 4 -7 9 3 5 -7 11 -22 13 -26 3 -26 4 -9 21 17 16 17 17 -1 18 -10
0 -13 3 -6 5 7 3 9 12 6 20 -3 8 1 14 11 14 21 0 21 18 -1 22 -15 3 -15 4 0
20 10 9 26 14 39 11 20 -4 21 -3 6 7 -25 15 -22 29 6 36 15 3 23 11 20 19 -5
11 7 19 38 24 4 0 -4 -21 -17 -48z m2285 45 c0 -2 -9 -6 -20 -9 -11 -3 -18 -1
-14 4 5 9 34 13 34 5z m-1966 -45 c-2 -3 -12 3 -22 13 -16 17 -16 18 5 5 12
-7 20 -15 17 -18z m197 9 c10 -6 19 -15 19 -20 0 -13 -42 -50 -50 -45 -5 3
-21 -2 -36 -10 -20 -10 -32 -11 -41 -3 -20 16 -16 38 9 47 16 6 18 10 9 16
-34 20 53 35 90 15z m-145 -15 c-22 -17 -36 -19 -36 -7 0 14 12 22 34 22 21
-1 21 -1 2 -15z m378 -56 c-6 -11 -24 -2 -24 11 0 5 7 7 15 4 8 -4 12 -10 9
-15z m59 -90 c14 -29 15 -42 6 -67 -9 -25 -16 -30 -40 -30 -18 1 -34 8 -40 20
-5 10 -13 16 -17 14 -5 -3 -9 4 -9 15 -1 12 2 17 10 12 7 -3 5 2 -4 13 -29 35
-32 57 -8 75 21 16 24 16 53 0 17 -9 39 -33 49 -52z m-245 51 c22 0 47 -9 62
-21 16 -13 19 -19 8 -15 -10 3 -20 0 -24 -5 -3 -6 -25 -19 -49 -29 -24 -10
-46 -23 -49 -28 -3 -6 -15 -8 -26 -5 -26 7 -28 52 -2 54 16 1 16 2 0 6 -9 2
-27 -1 -40 -7 -15 -8 -11 1 15 25 23 22 44 34 54 31 8 -3 31 -6 51 -6z m-158
-10 c8 -5 11 -10 5 -10 -5 0 -17 5 -25 10 -8 5 -10 10 -5 10 6 0 17 -5 25 -10z
m280 -112 c0 -5 -4 -8 -10 -8 -5 0 -10 10 -10 23 0 18 2 19 10 7 5 -8 10 -18
10 -22z m160 18 c0 -3 -4 -8 -10 -11 -5 -3 -10 -1 -10 4 0 6 5 11 10 11 6 0
10 -2 10 -4z m-249 -33 c-11 -5 -11 -7 0 -15 10 -7 7 -8 -11 -4 -14 3 -34 6
-45 6 -17 0 -17 2 -5 10 8 5 29 9 45 9 17 0 24 -3 16 -6z m-431 -43 c12 -29
40 -42 40 -18 0 6 3 9 6 5 3 -3 -1 -15 -9 -27 -13 -18 -15 -19 -21 -4 -5 13
-14 15 -41 10 -23 -5 -35 -3 -35 4 0 6 -4 8 -10 5 -20 -12 -9 17 15 41 29 29
37 26 55 -16z m30 15 c0 -8 -4 -15 -10 -15 -5 0 -7 7 -4 15 4 8 8 15 10 15 2
0 4 -7 4 -15z m450 1 c0 -2 -9 -6 -20 -9 -11 -3 -18 -1 -14 4 5 9 34 13 34 5z
m210 -10 c0 -3 -4 -8 -10 -11 -5 -3 -10 -1 -10 4 0 6 5 11 10 11 6 0 10 -2 10
-4z m-112 -42 c13 -8 31 -28 40 -43 21 -34 77 -83 86 -74 3 3 6 -1 6 -10 0 -8
-6 -22 -13 -29 -7 -7 -18 -22 -25 -33 -7 -13 -11 -15 -12 -6 0 11 -4 9 -14 -5
-13 -17 -14 -16 -6 19 9 43 5 45 -29 15 l-24 -23 16 25 c9 13 17 30 17 37 0
16 -32 17 -47 2 -8 -8 -13 -8 -17 0 -10 15 3 33 17 24 12 -7 -1 12 -33 48 -37
43 -39 46 -27 58 8 8 8 11 -1 11 -7 0 -24 -11 -37 -24 -23 -23 -24 -23 -22 -5
2 12 10 25 18 30 18 12 77 2 107 -17z m220 -102 c4 -28 -24 -41 -44 -20 -20
20 -7 50 20 46 13 -2 22 -12 24 -26z m107 -12 c3 -5 1 -10 -4 -10 -6 0 -11 5
-11 10 0 6 2 10 4 10 3 0 8 -4 11 -10z m1185 -115 c0 -2 -18 -14 -40 -25 -22
-11 -40 -18 -40 -15 0 2 17 13 38 24 42 23 42 23 42 16z m-1178 -62 l19 -32
-24 12 c-17 8 -23 17 -19 31 3 12 1 17 -6 12 -6 -3 -14 -1 -17 5 -5 7 -1 10
11 7 10 -1 26 -17 36 -35z m1088 15 c0 -2 -21 -23 -47 -48 -32 -31 -41 -37
-28 -17 17 27 75 77 75 65z m-1209 -197 c10 -13 19 -27 19 -31 0 -15 -34 -17
-75 -5 -47 14 -165 11 -193 -4 -14 -7 -24 -6 -40 5 -12 8 -23 10 -26 5 -4 -5
0 -11 6 -14 10 -4 10 -7 0 -18 -11 -12 -14 -12 -22 1 -14 22 -12 28 13 44 42
28 130 46 215 43 74 -2 86 -5 103 -26z m1184 -48 c9 -21 23 -45 32 -55 9 -10
12 -18 8 -18 -16 0 -75 72 -75 91 0 31 19 21 35 -18z m-1525 -32 c0 -4 -12
-13 -27 -20 -24 -10 -26 -10 -10 2 9 8 17 20 17 26 0 7 5 9 10 6 6 -3 10 -10
10 -14z m595 -4 c6 -12 12 -45 14 -73 2 -46 -1 -54 -25 -73 -32 -25 -55 -29
-25 -3 24 19 27 44 16 120 -8 54 2 69 20 29z m411 5 c16 -10 87 -123 81 -128
-8 -8 -104 85 -110 105 -7 28 6 39 29 23z m353 -30 c14 -20 34 -48 45 -62 14
-17 9 -14 -14 7 -37 34 -77 93 -63 93 4 0 19 -17 32 -38z m-1483 21 c-4 -5
-23 -8 -41 -8 -18 0 -31 3 -28 8 2 4 20 7 40 7 20 0 33 -3 29 -7z m-99 -9 c-3
-3 -12 -4 -19 -1 -8 3 -5 6 6 6 11 1 17 -2 13 -5z m13 -34 c0 -5 -5 -10 -11
-10 -5 0 -7 5 -4 10 3 6 8 10 11 10 2 0 4 -4 4 -10z m459 -14 c-2 -2 -17 -6
-34 -10 -22 -5 -26 -4 -15 4 14 9 59 15 49 6z m-1036 -106 c-3 -11 -1 -20 5
-20 6 0 13 8 15 18 3 12 5 11 6 -6 2 -36 -33 -25 -37 12 -2 16 0 26 6 22 6 -3
8 -15 5 -26z"/>
<path d="M1256 2310 c49 -19 36 -38 -23 -34 -18 1 -33 -2 -33 -6 0 -5 -2 -14
-5 -22 -7 -19 54 -21 82 -3 38 26 24 76 -21 74 -20 0 -20 0 0 -9z"/>
<path d="M819 2223 c-13 -16 -12 -17 4 -4 9 7 17 15 17 17 0 8 -8 3 -21 -13z"/>
<path d="M931 2204 c0 -11 3 -14 6 -6 3 7 2 16 -1 19 -3 4 -6 -2 -5 -13z"/>
<path d="M796 2185 c-9 -26 -7 -32 5 -12 6 10 9 21 6 23 -2 3 -7 -2 -11 -11z"/>
<path d="M950 2165 c0 -9 7 -18 15 -22 23 -8 24 0 3 20 -15 14 -18 15 -18 2z"/>
<path d="M1720 2166 c-19 -23 -8 -61 18 -64 31 -5 52 15 50 45 -2 21 -4 22
-14 9 -12 -17 -44 -22 -44 -6 0 5 8 14 18 19 15 9 15 10 1 11 -9 0 -22 -7 -29
-14z"/>
<path d="M1839 2127 c-29 -45 -30 -47 -17 -45 7 2 12 -2 11 -8 -3 -16 37 -5
44 12 3 8 9 11 14 8 12 -7 11 3 -1 25 -15 28 -35 31 -51 8z m31 -17 c0 -5 -4
-10 -10 -10 -5 0 -10 5 -10 10 0 6 5 10 10 10 6 0 10 -4 10 -10z"/>
<path d="M1815 2130 c-3 -5 -2 -10 4 -10 5 0 13 5 16 10 3 6 2 10 -4 10 -5 0
-13 -4 -16 -10z"/>
<path d="M1885 2051 c-61 -9 -28 -17 40 -10 33 3 56 7 50 8 -27 7 -54 7 -90 2z"/>
<path d="M1817 2039 c7 -7 15 -10 18 -7 3 3 -2 9 -12 12 -14 6 -15 5 -6 -5z"/>
<path d="M2040 1994 c0 -3 7 -18 15 -32 8 -15 20 -40 25 -56 6 -16 14 -26 18
-22 4 4 5 8 3 9 -2 1 1 12 8 25 7 12 16 20 22 16 7 -4 6 -10 0 -18 -8 -10 -5
-18 9 -31 20 -18 21 -18 14 0 -5 13 -4 16 4 11 17 -10 15 9 -3 24 -8 7 -12 16
-9 21 3 5 -7 14 -21 19 -15 6 -33 17 -41 25 -15 15 -44 21 -44 9z m60 -65 c0
-6 -4 -7 -10 -4 -5 3 -10 11 -10 16 0 6 5 7 10 4 6 -3 10 -11 10 -16z"/>
<path d="M1694 1698 l-19 -23 23 19 c21 18 27 26 19 26 -2 0 -12 -10 -23 -22z"/>
<path d="M1310 1826 c0 -2 7 -7 16 -10 8 -3 12 -2 9 4 -6 10 -25 14 -25 6z"/>
<path d="M1381 1854 c0 -11 3 -14 6 -6 3 7 2 16 -1 19 -3 4 -6 -2 -5 -13z"/>
<path d="M710 1378 c0 -7 4 -19 9 -26 6 -10 13 -6 26 15 l18 28 -22 -19 c-18
-17 -21 -17 -15 -3 3 10 1 17 -5 17 -6 0 -11 -6 -11 -12z"/>
<path d="M902 1270 c0 -14 2 -19 5 -12 2 6 2 18 0 25 -3 6 -5 1 -5 -13z"/>
<path d="M935 960 c-3 -5 -1 -10 4 -10 6 0 11 5 11 10 0 6 -2 10 -4 10 -3 0
-8 -4 -11 -10z"/>
<path d="M914 773 c11 -11 48 -14 41 -3 -3 5 -16 10 -27 10 -12 0 -18 -3 -14
-7z"/>
<path d="M1460 1390 c0 -5 5 -10 11 -10 5 0 7 5 4 10 -3 6 -8 10 -11 10 -2 0
-4 -4 -4 -10z"/>
<path d="M1547 1343 c-11 -17 13 -28 26 -13 9 10 9 11 0 6 -6 -3 -13 -1 -15 6
-3 9 -6 9 -11 1z"/>
<path d="M1146 1325 c-13 -10 -23 -11 -31 -5 -9 7 -11 2 -10 -20 2 -30 1 -30
-19 -13 -19 16 -19 15 1 -7 18 -19 24 -21 37 -11 9 8 13 17 10 22 -3 5 1 6 9
3 15 -5 30 10 33 34 3 16 -6 15 -30 -3z"/>
<path d="M1928 1263 c6 -2 18 -2 25 0 6 3 1 5 -13 5 -14 0 -19 -2 -12 -5z"/>
<path d="M2040 1260 c14 -4 34 -8 45 -8 16 0 15 2 -5 8 -14 4 -34 8 -45 8 -16
0 -15 -2 5 -8z"/>
<path d="M1828 1253 c6 -2 18 -2 25 0 6 3 1 5 -13 5 -14 0 -19 -2 -12 -5z"/>
<path d="M1630 1135 c0 -30 -3 -35 -25 -35 -13 0 -28 7 -33 17 -6 10 -26 17
-58 19 -39 3 -44 2 -26 -6 31 -13 52 -35 52 -54 0 -19 -21 -21 -39 -3 -11 10
-13 8 -8 -11 4 -17 2 -22 -8 -19 -7 3 -17 1 -23 -5 -6 -6 -12 -6 -16 0 -4 7
-15 6 -32 -3 -20 -10 -32 -11 -50 -3 -13 6 -30 7 -41 2 -18 -8 -28 -11 -48
-13 -10 -1 -9 -69 1 -100 4 -11 8 -11 22 3 27 24 49 20 67 -12 14 -23 23 -27
46 -24 26 4 31 0 41 -26 11 -27 59 -67 83 -67 13 0 55 -36 55 -47 0 -4 -15 -5
-32 -1 -27 5 -31 3 -20 -8 15 -16 16 -33 0 -23 -6 4 -8 3 -5 -4 12 -18 47 -1
64 32 10 17 16 34 15 39 -1 4 6 7 17 7 21 0 45 -23 34 -33 -15 -16 11 -5 34
13 38 30 80 26 113 -10 33 -36 34 -36 61 -9 17 17 29 20 67 15 26 -4 59 -6 74
-7 15 0 27 -3 27 -7 -3 -19 3 -22 23 -11 19 10 20 12 4 21 -23 13 -10 28 24
28 23 0 35 9 59 46 17 25 26 42 19 38 -7 -5 -1 8 14 28 15 19 25 38 22 41 -3
3 0 15 6 27 7 12 7 20 2 16 -11 -6 -102 80 -102 97 0 5 -7 4 -16 -4 -13 -10
-19 -10 -36 0 -14 9 -24 9 -31 2 -6 -6 -14 -5 -24 5 -8 8 -23 12 -32 9 -12 -3
-22 3 -31 21 l-14 26 -24 -29 c-16 -18 -22 -21 -18 -9 4 13 2 17 -8 13 -10 -4
-12 0 -8 15 4 18 3 19 -17 7 -11 -8 -21 -17 -21 -21 0 -21 -19 -5 -22 18 l-3
26 -37 -26 c-36 -24 -38 -24 -38 -6 0 26 -8 25 -37 -2 l-24 -22 -6 22 c-3 12
-10 22 -15 22 -5 0 -6 5 -3 10 3 6 1 10 -4 10 -6 0 -11 -16 -11 -35z m-55
-405 c3 -5 1 -10 -4 -10 -6 0 -11 5 -11 10 0 6 2 10 4 10 3 0 8 -4 11 -10z"/>
<path d="M975 1130 c4 -6 11 -8 16 -5 14 9 11 15 -7 15 -8 0 -12 -5 -9 -10z"/>
<path d="M1601 1124 c0 -11 3 -14 6 -6 3 7 2 16 -1 19 -3 4 -6 -2 -5 -13z"/>
<path d="M1136 1101 c-3 -5 3 -11 15 -14 16 -4 18 -3 8 9 -13 16 -16 17 -23 5z"/>
<path d="M1186 1087 c3 -10 9 -15 12 -12 3 3 0 11 -7 18 -10 9 -11 8 -5 -6z"/>
<path d="M1295 1070 c3 -5 11 -10 16 -10 6 0 7 5 4 10 -3 6 -11 10 -16 10 -6
0 -7 -4 -4 -10z"/>
<path d="M1165 1059 c-4 -6 -5 -12 -2 -15 2 -3 7 2 10 11 7 17 1 20 -8 4z"/>
<path d="M1211 1053 c-1 -13 -6 -23 -12 -23 -5 0 -7 5 -4 10 3 6 1 10 -4 10
-14 0 -14 -17 -1 -25 6 -3 10 -15 10 -26 0 -10 5 -19 11 -19 7 0 18 -8 25 -17
12 -17 13 -16 13 7 0 14 -9 43 -19 65 -15 31 -19 35 -19 18z"/>
<path d="M1121 906 l-22 -24 26 -6 c16 -4 23 -11 19 -19 -4 -7 -4 -9 1 -5 4 4
16 3 26 -2 36 -20 65 13 48 55 -8 20 -8 20 -9 0 -2 -11 -2 -23 -2 -27 1 -3 -5
-9 -14 -12 -8 -3 -13 -2 -10 3 8 12 -21 34 -34 26 -5 -3 -10 -2 -10 4 0 5 5
11 12 13 8 3 9 6 1 11 -5 3 -20 -4 -32 -17z"/>
<path d="M1375 831 c-4 -7 -1 -19 7 -27 12 -12 20 -13 41 -3 15 7 27 19 27 28
0 10 -3 12 -8 5 -12 -19 -36 -22 -48 -6 -8 12 -13 12 -19 3z"/>
<path d="M1136 815 c4 -8 11 -15 16 -15 6 0 5 6 -2 15 -7 8 -14 15 -16 15 -2
0 -1 -7 2 -15z"/>
<path d="M1300 786 c0 -2 8 -10 18 -17 15 -13 16 -12 3 4 -13 16 -21 21 -21
13z"/>
<path d="M1403 760 c-3 -11 -10 -17 -15 -14 -6 4 -5 -3 1 -15 17 -30 67 -28
97 4 12 13 19 27 14 30 -4 3 -10 -2 -14 -10 -3 -9 -12 -12 -22 -8 -12 5 -15 3
-9 -6 6 -10 3 -11 -13 -2 -13 7 -19 17 -16 26 4 8 1 15 -6 15 -6 0 -14 -9 -17
-20z"/>
<path d="M1867 732 c-20 -22 -22 -58 -4 -68 6 -4 9 -4 5 0 -12 14 15 33 39 28
28 -5 31 18 5 41 -23 21 -25 21 -45 -1z"/>
<path d="M1642 728 c-14 -14 -16 -28 -3 -28 9 0 24 30 18 36 -2 2 -9 -2 -15
-8z"/>
<path d="M2082 720 c-17 -27 -16 -30 13 -30 29 0 45 28 24 41 -20 12 -23 11
-37 -11z"/>
<path d="M1498 723 c7 -3 16 -2 19 1 4 3 -2 6 -13 5 -11 0 -14 -3 -6 -6z"/>
<path d="M1603 712 c1 -14 5 -18 11 -12 7 7 6 14 -1 21 -9 9 -12 7 -10 -9z"/>
<path d="M2140 715 c0 -8 5 -15 10 -15 6 0 10 7 10 15 0 8 -4 15 -10 15 -5 0
-10 -7 -10 -15z"/>
<path d="M1467 691 c-2 -11 0 -24 6 -30 16 -16 67 -13 74 4 8 24 -4 30 -22 11
-23 -23 -33 -20 -27 9 5 30 -23 36 -31 6z"/>
<path d="M1665 700 c3 -5 11 -10 16 -10 6 0 7 5 4 10 -3 6 -11 10 -16 10 -6 0
-7 -4 -4 -10z"/>
<path d="M1800 685 c-7 -9 -19 -14 -25 -11 -8 3 -12 -7 -13 -25 0 -19 4 -29
14 -29 21 0 54 37 54 60 0 24 -13 26 -30 5z"/>
<path d="M1950 676 c0 -7 -9 -16 -20 -19 -11 -3 -20 0 -20 6 0 8 -3 8 -11 0
-13 -13 -3 -36 12 -28 5 4 9 1 9 -4 0 -12 69 -15 86 -3 6 4 10 19 10 33 0 24
-3 26 -23 18 -14 -5 -23 -5 -23 1 0 6 -4 10 -10 10 -5 0 -10 -6 -10 -14z"/>
<path d="M1686 661 c-17 -19 -17 -20 3 -30 11 -6 26 -11 34 -11 20 0 31 31 16
44 -9 8 -10 7 -5 -4 5 -9 2 -8 -7 3 -18 21 -20 21 -41 -2z m29 -29 c-8 -8 -25
10 -19 20 4 6 9 5 15 -3 4 -7 6 -15 4 -17z"/>
</g>
</svg>
