<?xml version="1.0" standalone="no"?>
<!DOCTYPE svg PUBLIC "-//W3C//DTD SVG 20010904//EN"
 "http://www.w3.org/TR/2001/REC-SVG-20010904/DTD/svg10.dtd">
<svg version="1.0" xmlns="http://www.w3.org/2000/svg"
 width="622.000000pt" height="473.000000pt" viewBox="0 0 622.000000 473.000000"
 preserveAspectRatio="xMidYMid meet">

<g transform="translate(0.000000,473.000000) scale(0.100000,-0.100000)"
fill="#000000" stroke="none">
<path d="M0 4069 c0 -525 3 -659 12 -653 10 6 11 4 1 -7 -19 -20 -17 -126 2
-126 8 0 15 4 15 8 0 5 7 5 17 2 11 -4 14 -3 9 5 -4 7 -2 12 4 12 6 0 8 5 4
12 -4 7 -3 8 4 4 6 -4 9 -13 6 -21 -6 -15 20 -15 33 0 4 4 1 5 -7 0 -8 -4 -5
2 8 15 13 12 26 19 30 15 4 -4 1 -10 -6 -12 -10 -4 -10 -8 -1 -19 10 -12 9
-18 -6 -32 -17 -16 -17 -16 -11 3 6 19 5 19 -8 2 -10 -13 -15 -14 -18 -6 -3
10 -6 10 -12 1 -6 -11 -1 -14 20 -11 3 0 11 -7 18 -16 11 -16 13 -15 27 1 8
11 9 15 2 10 -7 -4 -13 -3 -13 3 0 5 5 13 10 16 6 4 8 16 4 27 -4 13 -2 18 4
14 6 -4 8 2 5 13 -5 20 -33 38 -33 21 0 -15 -17 -12 -23 4 -4 11 -1 13 10 9
12 -5 14 -3 8 8 -7 12 -6 12 7 1 15 -12 17 -10 16 17 -1 19 -5 28 -12 24 -6
-4 -4 1 4 11 13 17 13 18 -5 14 -11 -2 -19 -10 -17 -17 1 -7 -2 -9 -9 -6 -7 5
-3 15 12 30 21 19 25 20 30 6 4 -9 5 -19 3 -23 -3 -4 1 -10 7 -14 8 -5 10 1 7
20 -5 26 14 38 27 16 3 -5 14 -10 23 -10 12 1 10 5 -8 15 -14 8 -20 15 -15 15
6 0 1 7 -9 15 -26 20 -6 19 22 -1 14 -10 22 -11 22 -3 0 6 7 8 16 5 14 -5 15
-4 4 9 -10 12 -10 15 0 15 8 0 10 3 6 7 -4 5 -14 -1 -22 -11 -7 -11 -17 -16
-21 -13 -3 4 4 19 18 35 13 15 17 21 9 15 -16 -15 -40 -17 -40 -4 0 5 12 12
27 16 14 3 36 13 47 22 15 11 16 14 4 10 -10 -4 -24 0 -32 8 -7 8 -17 11 -20
7 -4 -3 -4 1 0 11 3 10 1 17 -5 17 -6 0 -11 -5 -11 -12 0 -6 -3 -8 -7 -5 -3 4
4 17 17 29 16 15 22 17 18 7 -11 -28 6 -41 35 -30 34 13 35 23 2 15 -34 -8
-32 9 3 23 l27 12 -30 -5 c-23 -4 -27 -3 -15 5 8 6 11 11 7 11 -4 0 -3 9 3 20
6 12 7 20 1 20 -5 0 -11 -5 -13 -12 -3 -7 -7 -8 -10 -3 -3 6 6 19 20 29 21 17
25 17 19 3 -3 -9 -1 -19 5 -23 7 -5 5 -12 -8 -22 -18 -14 -18 -14 -1 -8 10 3
21 6 23 6 2 0 4 7 4 16 0 14 2 15 18 3 15 -13 16 -12 3 3 -7 10 -17 16 -21 13
-4 -3 -10 5 -13 17 -5 18 -8 19 -21 8 -9 -7 -16 -9 -16 -4 0 5 -5 2 -10 -6 -5
-8 -10 -10 -10 -5 0 21 36 43 55 33 11 -7 21 -6 28 2 9 8 7 10 -8 5 -19 -6
-19 -6 -2 8 11 9 26 13 35 10 13 -4 13 -2 -2 9 -10 8 -16 20 -12 26 4 7 3 12
-3 12 -5 0 -11 -5 -13 -12 -2 -6 -15 -12 -29 -14 -13 -1 -28 -3 -32 -3 -5 -1
-5 -5 -2 -11 3 -5 -1 -10 -11 -10 -14 0 -15 2 -3 17 8 9 13 18 11 20 -2 3 0 8
4 11 4 4 4 2 0 -5 -11 -19 36 -11 57 10 22 22 28 47 16 63 -6 7 -3 17 8 25 15
12 16 12 10 -4 -4 -11 -3 -16 4 -12 6 4 8 13 5 20 -2 7 1 18 7 24 8 8 8 11 -2
11 -8 0 -10 7 -6 20 5 16 2 20 -14 20 -12 0 -21 4 -21 10 0 5 6 7 13 5 7 -3
29 3 50 14 26 13 33 21 22 25 -8 3 -23 -4 -33 -15 -18 -19 -58 -17 -46 2 8 14
26 11 18 -3 -4 -8 -2 -8 7 1 11 10 11 15 2 18 -13 5 -5 15 51 63 16 14 26 20
22 13 -3 -6 -2 -14 4 -18 6 -4 7 -12 4 -18 -4 -7 6 2 22 18 25 26 27 32 14 42
-8 7 -11 13 -6 13 5 0 2 7 -5 17 -13 15 -12 15 10 4 15 -8 21 -9 17 -2 -7 10
6 16 27 12 5 -1 6 3 2 9 -3 6 -11 7 -17 4 -7 -5 -8 -2 -4 5 5 7 14 10 20 8 7
-3 19 -1 26 3 8 5 18 6 23 3 5 -3 3 -9 -4 -14 -12 -7 -12 -10 0 -21 8 -8 11
-8 7 -1 -3 6 0 13 6 16 10 3 10 7 0 19 -9 12 -10 17 -1 20 7 2 6 8 -5 17 -14
12 -16 11 -16 -8 0 -11 -4 -21 -9 -21 -4 0 -6 11 -3 25 2 14 9 25 16 24 23 -3
51 3 38 8 -19 7 -14 23 6 16 12 -4 10 1 -7 15 -13 12 -19 22 -13 22 7 0 11 5
10 12 -2 7 3 12 9 13 7 0 20 10 28 23 15 21 13 27 -10 22 -5 -1 -7 2 -3 6 4 4
2 14 -4 23 -7 9 -1 6 13 -6 14 -13 31 -23 39 -23 7 0 10 -3 7 -7 -4 -3 -1 -13
6 -21 10 -13 9 -14 -2 -8 -8 5 -17 3 -22 -5 -13 -21 -11 -27 11 -39 16 -9 20
-8 20 5 0 9 -5 13 -10 10 -16 -10 -11 4 8 23 10 10 25 17 33 14 11 -3 12 -2 0
6 -11 8 -11 11 0 18 8 5 17 9 22 10 4 1 9 3 12 4 3 1 10 3 17 4 6 0 12 11 13
23 1 17 -2 20 -19 13 -13 -4 -20 -15 -19 -26 1 -11 0 -13 -3 -7 -3 7 -5 15 -4
19 1 3 -7 13 -18 22 -19 17 -19 17 1 37 20 20 20 20 9 -1 -10 -18 -8 -23 8
-27 11 -3 23 -1 26 4 3 5 11 6 17 2 9 -5 9 -3 1 8 -18 24 -24 48 -12 55 7 4 8
3 4 -4 -4 -7 -2 -12 3 -12 6 0 11 6 11 14 0 7 10 16 22 20 22 5 22 6 4 19 -15
11 -16 16 -6 22 9 5 11 4 6 -3 -4 -7 -4 -12 1 -13 4 0 18 -2 30 -5 17 -3 20 0
16 16 -3 12 0 20 6 20 7 0 9 -5 5 -12 -4 -7 -3 -8 4 -4 7 4 12 2 12 -4 0 -6 5
-8 11 -4 7 4 -1 14 -21 27 -27 17 -29 22 -16 29 9 5 25 7 35 3 12 -3 21 0 25
11 5 12 2 15 -9 10 -15 -5 -23 -3 -72 22 -16 9 -140 12 -423 12 l-400 0 0
-661z m821 558 c-10 -9 -11 -8 -5 6 3 10 9 15 12 12 3 -3 0 -11 -7 -18z m-51
-32 c0 -2 -9 -3 -19 -2 -11 0 -18 5 -15 9 4 6 34 0 34 -7z m-83 -71 c-3 -3
-12 -4 -19 -1 -8 3 -5 6 6 6 11 1 17 -2 13 -5z m11 -55 c11 -18 11 -24 -4 -40
-9 -10 -22 -19 -27 -19 -6 0 -7 3 -4 7 4 3 1 13 -6 21 -10 13 -9 14 2 8 22
-14 33 16 14 37 -13 14 -14 17 -2 12 8 -3 20 -15 27 -26z m-144 -94 c-4 -8
-11 -12 -16 -9 -6 4 -5 10 3 15 19 12 19 11 13 -6z m-113 -48 c-10 -9 -11 -8
-5 6 3 10 9 15 12 12 3 -3 0 -11 -7 -18z m115 1 c1 -11 -4 -18 -14 -18 -21 0
-43 -44 -31 -59 5 -6 1 -4 -9 5 -12 12 -14 18 -4 21 6 3 10 9 7 13 -3 5 6 17
21 27 24 16 25 18 8 25 -18 8 -18 8 0 5 11 -1 20 -10 22 -19z m-97 -15 c-12
-15 -12 -16 2 -11 13 5 16 0 14 -30 -5 -69 -4 -67 -19 -46 -13 16 -13 21 0 35
17 19 18 29 3 29 -5 0 -7 -4 -4 -10 3 -5 1 -10 -4 -10 -6 0 -10 8 -8 18 3 20
16 42 24 42 3 0 -1 -8 -8 -17z m-45 -106 c4 4 4 -1 0 -10 -3 -10 -7 -17 -8
-15 -1 2 -8 12 -16 23 -14 18 -13 19 1 8 9 -7 19 -10 23 -6z m28 -73 c-8 -14
-9 -13 -9 10 0 18 3 24 9 18 7 -7 7 -16 0 -28z m-142 -176 c0 -5 10 -3 23 3
22 12 22 11 -2 -14 -20 -22 -22 -29 -11 -42 11 -13 10 -14 -4 -9 -9 3 -16 12
-16 20 0 7 -9 18 -20 24 -11 6 -19 14 -16 18 6 10 46 10 46 0z m5 -78 c4 -6 1
-17 -5 -25 -13 -16 -35 -21 -26 -6 4 5 0 12 -6 14 -7 3 -2 6 12 6 20 1 22 3
10 11 -9 6 -10 10 -3 10 6 0 15 -5 18 -10z m-70 -29 c-3 -6 -11 -11 -16 -11
-5 0 -4 6 3 14 14 16 24 13 13 -3z m55 -61 c0 -5 -4 -10 -9 -10 -6 0 -13 5
-16 10 -3 6 1 10 9 10 9 0 16 -4 16 -10z m-104 -217 c10 1 22 6 25 10 3 4 14
5 24 1 17 -7 17 -8 -3 -15 -12 -5 -28 -6 -35 -3 -16 6 -19 -25 -4 -43 6 -9 6
-13 -2 -13 -6 0 -11 6 -12 13 0 9 -2 9 -6 -1 -2 -6 -9 -10 -14 -6 -5 3 -2 13
7 22 11 11 13 17 5 20 -6 2 -16 13 -22 25 -9 19 -9 20 3 5 8 -9 23 -16 34 -15z
m-116 -77 c0 -3 -4 -8 -10 -11 -5 -3 -10 -1 -10 4 0 6 5 11 10 11 6 0 10 -2
10 -4z m95 -16 c13 -6 15 -9 5 -9 -8 0 -22 4 -30 9 -18 12 -2 12 25 0z m-107
-129 c-7 -9 -13 -17 -14 -19 -1 -2 -1 8 0 21 0 15 6 23 14 20 10 -4 10 -9 0
-22z"/>
<path d="M285 3940 c3 -5 8 -10 11 -10 2 0 4 5 4 10 0 6 -5 10 -11 10 -5 0 -7
-4 -4 -10z"/>
<path d="M835 4723 c11 -3 24 -9 30 -14 5 -5 14 -9 20 -9 5 0 3 5 -5 10 -13 9
-13 10 1 10 15 0 59 -39 59 -53 0 -4 -8 -7 -17 -7 -17 -1 -17 -1 0 -11 18 -10
18 -11 0 -32 l-18 -21 26 20 c15 10 22 22 17 25 -7 4 -6 13 1 26 5 11 7 24 3
28 -4 5 1 5 10 2 9 -3 22 0 28 8 10 12 8 13 -9 10 -12 -2 -21 1 -21 6 0 6 -5
7 -10 4 -6 -4 -8 -10 -5 -15 3 -5 0 -12 -6 -16 -8 -4 -9 -3 -5 4 4 7 2 12 -4
12 -6 0 -9 4 -6 8 3 5 -21 9 -52 9 -31 1 -48 -1 -37 -4z"/>
<path d="M4766 4718 c3 -4 9 -8 15 -8 5 0 9 4 9 8 0 5 -7 9 -15 9 -8 0 -12 -4
-9 -9z"/>
<path d="M4869 4709 l-24 -20 28 17 c15 9 27 18 27 20 0 8 -8 4 -31 -17z"/>
<path d="M4930 4722 c0 -7 -3 -11 -7 -11 -23 4 -25 -3 -5 -17 13 -9 26 -13 29
-10 4 3 1 6 -5 6 -7 0 -12 4 -12 10 0 5 8 7 18 4 10 -4 13 -2 7 3 -5 4 -13 12
-17 17 -5 5 -8 4 -8 -2z"/>
<path d="M4963 4719 c15 -9 16 -13 5 -27 -8 -11 -4 -10 11 3 l24 20 -13 -25
c-13 -24 -12 -25 7 -7 11 9 25 17 32 17 7 0 3 -9 -10 -20 -21 -17 -22 -19 -5
-20 15 0 16 -3 6 -15 -7 -8 -19 -14 -28 -13 -8 2 -17 -4 -19 -12 -3 -9 -1 -11
4 -5 12 15 53 17 53 3 0 -7 7 -2 16 10 8 12 20 20 25 17 5 -4 9 -1 9 4 0 16
-16 13 -30 -4 -19 -23 -22 -12 -6 20 11 22 12 32 4 43 -10 11 -7 11 15 1 28
-13 38 -33 12 -23 -8 4 -15 1 -15 -5 0 -6 6 -10 12 -8 7 1 14 -9 16 -22 3 -19
6 -21 13 -10 7 11 9 11 9 -3 0 -10 6 -18 13 -19 6 -1 21 -2 32 -3 13 0 19 -7
17 -18 -2 -14 1 -15 22 -5 20 10 21 13 9 22 -12 9 -11 11 5 11 24 0 25 -27 0
-34 -10 -2 -18 -9 -18 -14 0 -6 8 -7 18 -3 13 5 14 3 6 -5 -18 -18 -57 -2 -51
21 3 10 1 19 -4 19 -5 0 -9 -8 -9 -17 0 -10 -4 -14 -8 -8 -9 12 -74 16 -66 4
3 -5 16 -9 29 -9 35 0 56 -10 48 -24 -9 -13 -11 -55 -3 -54 17 1 21 -4 11 -15
-8 -10 -7 -14 3 -14 14 0 16 21 3 33 -13 13 -7 23 11 18 12 -4 13 -3 4 3 -9 7
-6 12 13 21 34 15 55 15 55 0 0 -7 5 -5 11 5 5 9 15 17 20 17 6 0 7 -4 4 -10
-3 -5 -2 -10 4 -10 5 0 12 -8 14 -17 2 -10 3 -6 1 9 -3 20 0 26 11 21 17 -6
20 -49 5 -58 -6 -4 -8 -10 -6 -14 3 -4 0 -13 -6 -21 -8 -12 -9 -11 -4 4 5 14
2 17 -10 12 -11 -4 -15 -2 -11 7 3 8 -3 13 -14 14 -18 2 -18 1 1 -19 11 -12
17 -24 15 -28 -12 -19 23 -15 35 3 16 25 17 28 19 60 1 25 51 56 51 32 0 -8 8
-11 20 -8 15 4 20 0 20 -16 0 -12 -6 -21 -15 -21 -8 0 -15 6 -15 13 0 8 -2 9
-8 1 -4 -6 -17 -15 -30 -19 -13 -4 -21 -9 -18 -12 3 -3 0 -15 -6 -27 -11 -21
-11 -21 10 -2 12 10 19 23 15 29 -4 7 0 8 13 3 10 -5 25 -9 32 -9 6 0 12 -5
13 -11 0 -6 4 -2 8 8 7 18 9 16 22 -12 14 -32 29 -42 29 -19 0 9 3 8 9 -2 5
-7 13 -11 19 -7 5 3 9 -2 8 -12 -1 -11 6 -16 19 -15 19 1 20 1 1 -12 -19 -15
-41 -11 -31 5 3 5 1 11 -4 14 -11 7 -21 -17 -13 -31 4 -5 16 -14 26 -20 16 -9
23 -7 36 9 16 20 16 20 16 0 0 -11 -4 -18 -8 -16 -8 5 -38 -48 -38 -67 0 -8 4
-8 15 1 13 11 14 10 9 -5 -6 -14 -4 -16 6 -10 9 5 11 4 6 -4 -4 -6 -12 -8 -18
-5 -7 5 -8 2 -4 -5 5 -7 15 -10 23 -7 9 4 11 2 7 -6 -5 -8 -2 -9 10 -5 10 4
20 7 22 7 2 0 4 5 4 11 0 5 -4 8 -9 4 -5 -3 -13 0 -17 6 -4 8 -3 9 4 5 7 -4
12 -2 12 3 0 6 -4 11 -9 11 -5 0 -11 10 -13 23 -3 17 0 23 15 24 14 2 16 -1 7
-12 -8 -9 -7 -16 2 -27 19 -20 21 -41 5 -53 -12 -9 -12 -12 -1 -23 9 -8 14 -9
14 -2 0 6 3 9 8 7 4 -3 18 0 32 6 14 5 34 12 44 14 11 2 27 9 35 15 12 9 12 7
-1 -7 -9 -10 -25 -19 -35 -21 -42 -5 -65 -17 -52 -25 7 -4 19 -3 25 2 9 7 14
4 19 -10 3 -12 10 -21 15 -21 4 0 7 -8 6 -17 -2 -10 -7 -16 -12 -13 -5 3 -7
12 -6 19 3 13 1 13 -15 1 -15 -12 -16 -12 -5 0 14 16 16 30 4 30 -5 0 -14 -11
-20 -25 -10 -21 -15 -23 -37 -15 -17 6 -25 6 -25 -1 0 -6 -5 -7 -12 -3 -7 5
-8 3 -4 -5 5 -7 14 -10 22 -7 8 3 14 1 14 -3 0 -10 19 -9 35 1 6 3 21 0 35 -8
18 -9 20 -13 8 -14 -11 0 -15 -6 -11 -20 3 -12 0 -20 -7 -20 -7 0 -10 7 -6 16
6 14 4 15 -10 4 -13 -12 -17 -11 -25 1 -7 11 -9 11 -9 1 0 -8 9 -16 19 -19 15
-4 18 -12 15 -31 -3 -20 -2 -23 5 -12 5 8 7 18 4 23 -3 5 4 6 15 3 11 -4 23
-2 27 4 3 5 2 10 -4 10 -6 0 -8 7 -5 15 4 8 10 15 16 15 5 0 6 -5 2 -11 -4 -7
2 -7 16 1 l23 13 -24 14 c-17 10 -18 12 -4 8 36 -12 50 -12 57 -1 4 6 6 1 5
-11 -1 -16 -5 -19 -13 -12 -8 7 -15 6 -20 -3 -14 -22 -13 -36 3 -42 11 -5 13
0 8 17 -5 19 -4 20 5 4 17 -27 2 -41 -26 -22 -13 8 -24 11 -24 6 0 -6 6 -14
13 -18 8 -4 17 -21 21 -38 7 -29 7 -29 -13 -10 -17 14 -19 21 -9 27 8 6 4 7
-11 3 -16 -5 -21 -4 -17 4 4 6 0 11 -10 11 -14 0 -15 -2 -3 -17 12 -14 12 -16
-1 -11 -11 4 -16 0 -17 -13 -2 -17 0 -18 13 -4 23 22 35 18 30 -10 -5 -27 3
-32 22 -13 9 9 12 9 12 0 0 -6 7 -9 16 -5 14 5 15 3 5 -18 -11 -23 -11 -23 3
-5 11 13 12 23 6 31 -5 7 -7 15 -3 18 3 4 1 7 -5 7 -7 0 -12 7 -12 17 0 13 4
11 20 -7 24 -27 21 -78 -4 -92 -9 -5 -21 -18 -27 -30 -7 -12 -7 -18 -1 -14 6
3 13 0 16 -6 4 -9 5 -8 5 2 -2 33 2 42 16 36 8 -3 14 0 12 6 -1 6 4 13 12 16
8 2 11 0 8 -6 -4 -5 0 -15 8 -22 8 -7 15 -9 15 -4 0 5 4 3 9 -5 8 -13 12 -13
27 0 16 12 17 12 12 -3 -7 -17 16 -33 33 -22 5 3 9 1 9 -4 0 -6 -7 -13 -16
-16 -23 -9 -6 -28 19 -21 12 2 16 2 9 -1 -10 -5 -10 -9 -1 -21 7 -8 8 -13 3
-11 -5 2 -11 -1 -13 -7 -8 -21 -36 -33 -52 -24 -13 7 -16 5 -14 -9 2 -9 4 -19
5 -22 1 -3 2 -9 1 -15 -1 -5 8 1 20 15 17 21 20 21 14 5 -11 -33 -13 -65 -3
-59 5 3 7 11 5 17 -2 7 2 17 9 24 16 16 28 17 18 1 -4 -6 -8 -23 -9 -37 -1
-18 -6 -25 -17 -23 -26 4 -31 -16 -7 -28 12 -7 19 -8 15 -2 -6 10 19 36 47 45
10 4 17 17 17 34 0 21 3 24 10 13 5 -8 5 -21 1 -28 -5 -8 -6 -24 -4 -36 4 -17
3 -18 -6 -6 -7 10 -11 11 -11 3 0 -7 -6 -10 -14 -7 -8 3 -17 1 -20 -4 -3 -5 6
-8 19 -6 14 1 25 -3 25 -9 0 -7 5 -5 10 3 5 8 10 12 11 8 5 -26 4 -34 -3 -45
-12 -16 11 -28 25 -14 9 9 7 11 -8 6 -15 -5 -17 -4 -6 3 8 6 23 9 33 7 10 -2
18 0 18 6 0 5 -6 9 -12 9 -10 0 -9 3 1 9 8 5 9 11 3 15 -6 4 -16 -2 -22 -11
-7 -12 -10 -13 -7 -3 2 8 -3 21 -12 28 -9 8 -11 11 -4 8 6 -4 13 -1 15 6 3 8
11 5 23 -9 10 -12 23 -19 29 -16 6 4 5 -1 -3 -10 -9 -11 -10 -17 -2 -18 26 -3
30 -4 38 -12 4 -5 3 -7 -4 -5 -6 2 -19 -6 -27 -17 l-16 -20 7 20 c6 18 5 19
-13 5 -10 -8 -21 -15 -23 -17 -2 -1 8 -8 23 -14 22 -11 24 -14 11 -21 -8 -5
-13 -14 -9 -19 3 -5 1 -16 -5 -23 -8 -9 -7 -13 4 -13 8 0 15 4 15 9 0 4 5 8
11 8 6 0 8 -7 5 -16 -3 -9 -2 -12 5 -9 6 4 10 1 8 -6 -3 -28 1 -49 12 -49 5 0
8 3 6 8 -3 4 6 16 18 27 21 18 22 20 7 33 -15 11 -14 12 5 2 l22 -10 -27 -39
c-23 -33 -30 -37 -47 -29 -15 8 -17 8 -9 -1 15 -16 77 -24 68 -9 -4 7 -3 8 5
4 6 -4 9 -12 5 -17 -9 -16 17 -41 31 -29 8 7 12 5 12 -6 0 -10 -7 -14 -18 -11
-20 6 -19 -20 2 -34 11 -7 10 -9 -6 -10 -11 0 -14 -3 -7 -6 6 -2 9 -10 5 -16
-22 -36 -5 -83 20 -58 9 9 8 10 -7 5 -14 -5 -17 -3 -14 7 3 8 12 14 19 13 8
-1 15 7 15 17 0 13 -4 15 -12 8 -9 -8 -11 -5 -7 10 3 12 9 21 13 21 5 0 9 320
9 710 l2 710 -275 0 -275 0 -4 -27 -4 -28 -2 28 c-1 34 -31 38 -31 3 0 -17 -7
-26 -26 -30 -15 -4 -29 -5 -32 -1 -3 3 1 5 8 5 11 0 11 3 2 12 -19 19 -14 30
9 18 11 -7 23 -9 27 -6 8 8 2 12 -30 20 -25 6 -28 4 -28 -19 0 -14 -4 -25 -10
-25 -5 0 -10 11 -10 25 0 34 -28 32 -33 -2 l-4 -28 -2 28 c0 17 -7 27 -16 27
-9 0 -15 -10 -16 -27 l-1 -28 -8 30 c-5 21 -8 24 -9 10 -2 -46 -51 -55 -51 -9
0 16 -4 22 -14 18 -8 -3 -12 -13 -9 -22 3 -14 -3 -18 -28 -20 -18 -2 -41 -10
-50 -18 -10 -9 -19 -11 -23 -5 -4 5 3 12 14 16 20 6 25 16 14 27 -10 11 -46
-33 -40 -49 5 -13 4 -14 -9 -3 -8 7 -13 16 -10 20 3 5 0 10 -5 12 -6 2 -12 12
-14 22 -4 30 -58 31 -90 1 -15 -14 -24 -30 -21 -35 3 -6 2 -10 -4 -10 -5 0
-13 5 -16 10 -3 6 -1 10 6 10 7 0 9 3 6 7 -4 3 5 15 20 25 l28 18 -33 0 c-20
0 -31 -4 -27 -10 4 -6 -5 -5 -20 2 -21 9 -31 9 -46 0 -10 -7 -19 -8 -19 -4 0
5 -15 9 -32 10 -27 1 -30 -1 -15 -9z m213 -66 c-3 -19 -42 -28 -52 -11 -4 7
-3 8 5 4 15 -10 43 13 34 27 -3 5 -1 7 5 4 5 -4 9 -15 8 -24z m174 -12 c0 -6
-5 -13 -12 -17 -6 -4 -8 -3 -4 4 3 5 0 13 -6 15 -8 3 -6 6 5 6 9 1 17 -3 17
-8z m-65 -40 c3 -5 0 -13 -6 -17 -7 -4 -9 -3 -5 4 3 5 0 13 -6 15 -9 4 -10 6
-1 6 6 1 14 -3 18 -8z m65 -17 c0 -2 -11 -3 -24 -2 -14 1 -23 5 -20 9 4 7 44
0 44 -7z m153 -30 c33 3 37 1 37 -20 0 -31 -30 -32 -31 -1 -2 22 -2 22 -6 1
-2 -12 -13 -24 -25 -27 -11 -3 -17 -10 -13 -16 3 -6 11 -8 17 -5 7 4 8 2 4 -5
-14 -22 -36 7 -26 34 6 15 6 27 0 30 -6 4 -10 -4 -10 -16 0 -12 -3 -20 -6 -16
-4 3 -3 18 0 34 5 16 10 22 14 16 4 -7 24 -10 45 -9z m266 9 c-4 -26 2 -43 14
-37 9 5 9 4 0 -6 -12 -13 -37 -5 -28 10 3 4 -2 10 -10 14 -10 4 -15 -1 -15
-14 0 -21 -29 -28 -31 -7 0 10 -2 10 -6 0 -8 -20 -53 -16 -54 5 -1 16 -2 16
-6 0 -5 -20 -43 -25 -44 -5 0 10 -2 10 -6 0 -8 -22 -33 -14 -32 10 0 21 1 21
9 2 7 -17 9 -17 9 -2 1 9 4 16 9 16 4 -1 9 0 12 1 3 1 20 3 38 4 26 2 32 -1
33 -18 1 -15 2 -17 6 -5 2 9 14 17 26 17 29 0 55 6 63 15 9 9 14 9 13 0z
m-599 -18 c-7 -9 -15 -13 -17 -11 -7 7 7 26 19 26 6 0 6 -6 -2 -15z m375 -67
c5 4 5 1 1 -6 -6 -10 -11 -10 -22 -1 -8 6 -14 14 -14 16 0 3 6 0 13 -6 8 -6
18 -7 22 -3z m25 -19 c-7 -11 -14 -18 -17 -15 -3 3 0 12 7 21 18 21 23 19 10
-6z m25 -19 c-3 -5 -12 -10 -18 -10 -7 0 -6 4 3 10 19 12 23 12 15 0z m142
-205 c0 -8 -4 -12 -9 -9 -5 3 -6 10 -3 15 9 13 12 11 12 -6z m79 -190 c1 -8
-3 -18 -8 -22 -7 -3 -8 -1 -4 5 4 7 1 12 -6 13 -10 0 -10 2 0 6 6 2 9 10 5 16
-3 7 -2 8 2 4 5 -4 10 -14 11 -22z m34 -61 c0 -3 -7 -1 -15 6 -8 7 -15 17 -15
22 0 5 7 3 15 -6 8 -8 15 -18 15 -22z m30 -28 c0 -2 -7 -7 -16 -10 -8 -3 -12
-2 -9 4 6 10 25 14 25 6z m11 -19 c-10 -9 -11 -8 -5 6 3 10 9 15 12 12 3 -3 0
-11 -7 -18z m74 -17 c4 -6 1 -9 -7 -8 -7 2 -12 -3 -10 -10 1 -8 -2 -11 -8 -7
-8 5 -7 11 1 21 14 17 16 17 24 4z m68 -131 c-6 -6 -9 -17 -7 -24 3 -7 1 -15
-4 -19 -5 -3 -8 3 -7 12 1 20 13 42 23 42 3 0 1 -5 -5 -11z m-33 -25 c0 -2 -9
0 -20 6 -11 6 -20 13 -20 16 0 2 9 0 20 -6 11 -6 20 -13 20 -16z m-60 12 c0
-11 -19 -15 -25 -6 -3 5 1 10 9 10 9 0 16 -2 16 -4z m12 -53 c-6 -2 -10 -9 -7
-13 3 -5 1 -11 -4 -14 -7 -5 -8 11 -2 32 1 1 7 2 14 1 9 0 9 -2 -1 -6z m153
-132 c3 -5 2 -12 -3 -15 -5 -3 -9 1 -9 9 0 17 3 19 12 6z m15 -86 c0 -5 -5 -3
-10 5 -5 8 -10 20 -10 25 0 6 5 3 10 -5 5 -8 10 -19 10 -25z m25 25 c3 -6 -1
-7 -9 -4 -18 7 -21 14 -7 14 6 0 13 -4 16 -10z m-15 -54 c0 -3 -4 -8 -10 -11
-5 -3 -10 -1 -10 4 0 6 5 11 10 11 6 0 10 -2 10 -4z m70 -76 c0 -5 -2 -10 -4
-10 -3 0 -8 5 -11 10 -3 6 -1 10 4 10 6 0 11 -4 11 -10z"/>
<path d="M5410 4710 c0 -13 5 -20 13 -17 6 2 12 10 12 17 0 7 -6 15 -12 18 -8
2 -13 -5 -13 -18z"/>
<path d="M3060 4700 c0 -5 5 -10 11 -10 5 0 7 5 4 10 -3 6 -8 10 -11 10 -2 0
-4 -4 -4 -10z"/>
<path d="M5240 4700 c0 -5 6 -10 14 -10 8 0 18 5 21 10 3 6 -3 10 -14 10 -12
0 -21 -4 -21 -10z"/>
<path d="M5320 4700 c0 -5 6 -10 14 -10 8 0 18 5 21 10 3 6 -3 10 -14 10 -12
0 -21 -4 -21 -10z"/>
<path d="M4910 4671 c0 -7 -5 -9 -12 -5 -7 5 -8 3 -3 -5 5 -9 10 -10 18 -2 6
6 8 14 4 18 -4 3 -7 1 -7 -6z"/>
<path d="M870 4656 c14 -8 27 -12 29 -10 6 6 -1 11 -29 18 l-25 7 25 -15z"/>
<path d="M1019 4633 c-13 -16 -12 -17 4 -4 9 7 17 15 17 17 0 8 -8 3 -21 -13z"/>
<path d="M5057 4623 c-4 -3 -7 -13 -7 -22 1 -13 3 -13 11 2 11 19 8 33 -4 20z"/>
<path d="M5086 4609 c3 -5 12 -9 21 -9 19 0 9 13 -12 16 -8 1 -13 -2 -9 -7z"/>
<path d="M801 4579 c-13 -11 -21 -22 -19 -25 3 -3 12 2 21 10 8 8 18 12 21 9
4 -4 17 -8 29 -9 12 -2 16 0 9 3 -10 4 -10 8 0 21 11 13 10 14 -9 4 -12 -7
-23 -8 -25 -3 -2 5 -14 1 -27 -10z"/>
<path d="M4966 4581 c-15 -17 -15 -19 -1 -25 10 -3 14 -2 10 5 -4 5 -1 16 5
24 18 22 6 18 -14 -4z"/>
<path d="M5076 4553 c-6 -14 -5 -15 5 -6 7 7 10 15 7 18 -3 3 -9 -2 -12 -12z"/>
<path d="M802 4551 c-13 -8 -15 -27 -10 -77 2 -21 20 -26 35 -9 5 4 2 5 -6 0
-11 -6 -13 -4 -8 9 4 10 3 15 -3 11 -16 -10 -12 11 5 25 12 10 15 10 15 -1 0
-9 5 -8 18 4 16 17 16 19 -2 33 -23 16 -26 17 -44 5z m18 -20 c-10 -20 -30
-37 -30 -26 0 11 25 45 33 45 4 0 3 -9 -3 -19z m30 -1 c0 -5 -5 -10 -11 -10
-5 0 -7 5 -4 10 3 6 8 10 11 10 2 0 4 -4 4 -10z"/>
<path d="M879 4543 c-13 -16 -12 -17 4 -4 9 7 17 15 17 17 0 8 -8 3 -21 -13z"/>
<path d="M5225 4541 c-3 -5 -2 -12 3 -15 5 -3 9 1 9 9 0 17 -3 19 -12 6z"/>
<path d="M760 4529 c0 -5 5 -7 10 -4 6 3 10 8 10 11 0 2 -4 4 -10 4 -5 0 -10
-5 -10 -11z"/>
<path d="M5027 4519 c7 -7 15 -10 18 -7 3 3 -2 9 -12 12 -14 6 -15 5 -6 -5z"/>
<path d="M886 4498 c3 -5 10 -6 15 -3 13 9 11 12 -6 12 -8 0 -12 -4 -9 -9z"/>
<path d="M5359 4459 c-14 -27 13 -61 33 -41 9 9 7 12 -9 12 -17 0 -20 4 -15
22 5 20 6 20 12 3 6 -17 7 -17 13 -1 10 24 9 26 -8 26 -8 0 -19 -10 -26 -21z"/>
<path d="M5407 4463 c-12 -11 -8 -29 13 -51 17 -18 24 -20 40 -9 25 15 25 24
-1 32 -12 4 -18 12 -15 21 3 8 1 14 -3 14 -5 0 -11 -6 -14 -13 -5 -15 18 -39
29 -29 4 4 4 1 0 -6 -11 -18 -47 14 -39 34 5 15 1 18 -10 7z"/>
<path d="M5240 4442 c0 -5 7 -9 15 -9 8 0 12 4 9 9 -3 4 -9 8 -15 8 -5 0 -9
-4 -9 -8z"/>
<path d="M5310 4430 c-13 -8 -12 -10 3 -10 9 0 17 5 17 10 0 12 -1 12 -20 0z"/>
<path d="M5275 4421 c-3 -5 -2 -12 3 -15 5 -3 9 1 9 9 0 17 -3 19 -12 6z"/>
<path d="M613 4385 c-13 -20 -19 -37 -13 -40 13 -8 32 4 25 15 -3 5 -1 19 5
31 19 34 6 30 -17 -6z"/>
<path d="M730 4410 c-9 -6 -10 -10 -3 -10 6 0 15 5 18 10 8 12 4 12 -15 0z"/>
<path d="M5358 4397 c15 -16 30 -23 43 -20 21 6 25 18 7 29 -6 4 -8 3 -5 -3 4
-6 0 -13 -8 -17 -8 -3 -15 -2 -15 2 0 4 -10 13 -22 21 l-23 14 23 -26z"/>
<path d="M5459 4393 c-1 -5 -1 -12 0 -17 1 -5 -5 -4 -13 4 -11 9 -16 9 -16 1
0 -6 7 -14 16 -18 16 -6 16 -7 0 -18 -15 -11 -15 -13 -1 -19 8 -3 15 -10 15
-17 0 -6 -6 -9 -14 -6 -16 6 -43 -19 -32 -30 3 -3 6 -1 6 5 0 7 12 11 30 10
17 -1 30 -6 30 -11 0 -4 5 -5 11 -2 5 4 8 12 6 18 -2 6 5 19 15 29 22 22 23
34 4 41 -8 3 -17 -1 -20 -10 -5 -11 -2 -14 11 -9 13 4 11 0 -5 -14 -13 -11
-21 -25 -17 -32 4 -7 -1 -4 -9 6 -21 26 -20 37 2 29 15 -6 16 -5 2 12 -9 11
-10 16 -2 11 7 -4 12 -1 12 8 0 9 -5 16 -11 16 -5 0 -7 5 -4 10 3 6 1 10 -4
10 -6 0 -12 -3 -12 -7z"/>
<path d="M685 4379 c-4 -6 -4 -13 -1 -16 3 -4 6 0 6 8 0 11 2 11 10 -1 8 -13
10 -12 10 3 0 19 -15 23 -25 6z"/>
<path d="M5340 4376 c0 -2 7 -7 16 -10 8 -3 12 -2 9 4 -6 10 -25 14 -25 6z"/>
<path d="M676 4334 c-5 -14 -4 -15 9 -4 17 14 19 20 6 20 -5 0 -12 -7 -15 -16z"/>
<path d="M2645 4319 c-4 -6 -5 -12 -2 -15 2 -3 7 2 10 11 7 17 1 20 -8 4z"/>
<path d="M5365 4310 c-2 -3 7 -7 20 -8 13 -1 26 2 29 6 2 4 -7 7 -21 7 -14 0
-26 -2 -28 -5z"/>
<path d="M593 4286 c-3 -6 -3 -8 2 -4 4 4 13 3 20 -2 8 -7 12 -5 12 3 0 16
-25 18 -34 3z"/>
<path d="M665 4289 c-4 -6 -5 -12 -2 -15 2 -3 7 2 10 11 7 17 1 20 -8 4z"/>
<path d="M690 4286 c0 -2 8 -10 18 -17 15 -13 16 -12 3 4 -13 16 -21 21 -21
13z"/>
<path d="M5516 4255 c3 -8 10 -12 15 -9 5 3 9 0 9 -6 0 -6 5 -8 10 -5 10 6 14
-7 11 -32 -1 -7 2 -13 6 -14 4 0 18 -2 30 -3 12 -1 20 1 17 6 -3 4 5 8 18 8
18 0 20 2 8 9 -8 6 -18 7 -23 4 -4 -3 -16 2 -25 10 -9 8 -32 22 -49 31 -28 14
-32 14 -27 1z m71 -50 c0 -8 -4 -12 -9 -9 -5 3 -6 10 -3 15 9 13 12 11 12 -6z"/>
<path d="M5499 4228 c-8 -26 -4 -33 17 -33 32 2 38 9 19 25 -10 8 -15 9 -15 1
0 -6 -5 -11 -11 -11 -5 0 -7 5 -4 10 3 6 4 10 1 10 -3 0 -6 -1 -7 -2z"/>
<path d="M524 4201 c4 -5 0 -12 -6 -14 -7 -3 -2 -6 11 -6 20 -1 21 1 11 14
-14 16 -25 21 -16 6z"/>
<path d="M2070 4171 c-44 -24 -105 -83 -125 -120 -31 -61 -44 -114 -33 -134 6
-12 6 -17 0 -13 -6 3 -11 -12 -14 -39 l-3 -44 20 22 c11 13 16 16 10 8 -8 -12
-6 -13 11 -9 22 6 28 -13 9 -29 -4 -4 -5 -2 0 6 5 9 -1 7 -19 -4 -30 -20 -34
-27 -8 -18 15 6 16 5 2 -12 -15 -19 -14 -19 12 -2 38 24 55 21 27 -4 l-24 -20
25 12 c22 11 23 10 13 -2 -10 -13 -4 -15 42 -14 35 1 65 -5 87 -17 18 -10 24
-16 13 -14 -40 10 -111 7 -165 -7 l-55 -15 90 4 c63 2 80 1 57 -5 -52 -14 -50
-21 9 -22 30 -1 65 -5 79 -10 16 -5 -3 -6 -52 -3 -53 4 -78 2 -78 -5 0 -6 -12
-11 -27 -11 -16 0 -35 -5 -43 -10 -10 -6 -3 -8 22 -3 27 4 56 -1 100 -18 l63
-24 -50 -6 c-47 -6 -46 -6 20 -7 82 0 120 -8 157 -33 14 -11 33 -19 41 -19 8
0 45 -20 83 -45 37 -25 62 -45 54 -45 -7 0 -11 -3 -7 -6 3 -3 13 -1 23 4 15 9
14 12 -14 26 -39 20 -41 30 -5 23 l27 -5 -25 19 c-13 10 -28 19 -34 20 -5 0 1
4 14 8 23 6 22 7 -20 48 -24 24 -53 50 -64 59 -11 9 3 4 30 -11 l50 -26 -30
27 -30 27 34 -5 33 -5 -23 18 c-19 15 -21 21 -10 28 11 7 10 11 -7 20 -12 6
-19 17 -16 24 3 8 0 25 -5 40 -8 19 -6 28 5 38 10 9 11 15 3 25 -6 7 -8 17 -5
23 14 22 22 142 13 191 -6 29 -28 60 -44 60 -12 0 -13 3 -4 13 14 17 4 28 -17
20 -10 -4 -14 -3 -10 2 13 13 -18 34 -42 28 -15 -4 -21 -2 -17 4 12 19 -114
14 -153 -6z m-143 -243 c-3 -7 -5 -2 -5 12 0 14 2 19 5 13 2 -7 2 -19 0 -25z
m118 -138 c-20 -22 -8 -28 15 -7 12 10 12 9 2 -4 -7 -9 -24 -16 -39 -16 l-27
0 29 23 c37 29 44 31 20 4z m120 -80 c3 -5 2 -10 -4 -10 -5 0 -13 5 -16 10 -3
6 -2 10 4 10 5 0 13 -4 16 -10z m115 -70 c30 -21 68 -52 84 -69 l30 -31 -26 0
c-14 0 -37 9 -51 20 -14 11 -30 20 -37 20 -6 0 -9 4 -5 9 3 5 -9 14 -27 20
-18 6 -44 20 -58 31 l-25 21 30 -7 c50 -10 57 -13 49 -25 -5 -8 -3 -9 6 -4 10
6 8 12 -9 27 -13 10 -28 15 -35 11 -6 -3 -8 -3 -4 2 4 4 0 14 -10 22 -31 25
27 -6 88 -47z"/>
<path d="M506 4162 c-3 -4 4 -9 15 -9 23 -2 25 3 4 10 -8 4 -16 3 -19 -1z"/>
<path d="M5546 4152 c-3 -5 1 -9 9 -9 8 0 12 4 9 9 -3 4 -7 8 -9 8 -2 0 -6 -4
-9 -8z"/>
<path d="M5647 4136 c-4 -10 -1 -13 8 -9 8 3 12 9 9 14 -7 12 -11 11 -17 -5z"/>
<path d="M659 4127 c12 -15 11 -17 -5 -18 -11 -1 -25 -2 -32 -3 -20 -2 -38
-48 -37 -98 0 -27 -4 -48 -9 -48 -6 0 -5 -5 2 -12 14 -14 16 -42 3 -34 -13 8
-8 -19 7 -36 6 -8 15 -29 18 -46 4 -18 11 -32 16 -32 5 0 7 -4 4 -9 -9 -14 29
-42 47 -35 10 3 14 11 11 16 -12 20 20 27 49 11 l30 -15 -22 31 c-13 17 -24
45 -26 62 l-4 30 19 -23 19 -23 -5 25 c-2 14 -2 19 2 13 3 -7 13 -13 21 -13
11 0 14 6 9 23 -4 12 -11 65 -17 117 -11 99 -17 112 -46 116 -10 1 -29 6 -43
10 -22 7 -24 6 -11 -9z"/>
<path d="M396 4118 c-7 -20 -3 -48 5 -48 4 0 7 14 7 30 -1 32 -6 39 -12 18z"/>
<path d="M483 4115 c0 -8 4 -12 9 -9 5 3 6 10 3 15 -9 13 -12 11 -12 -6z"/>
<path d="M2785 4119 c-4 -6 -5 -12 -2 -15 2 -3 7 2 10 11 7 17 1 20 -8 4z"/>
<path d="M5553 4095 c0 -8 4 -12 9 -9 5 3 6 10 3 15 -9 13 -12 11 -12 -6z"/>
<path d="M356 4085 c-3 -8 -1 -15 4 -15 13 0 22 18 11 24 -5 3 -11 -1 -15 -9z"/>
<path d="M496 4072 c-3 -5 1 -9 9 -9 8 0 12 4 9 9 -3 4 -7 8 -9 8 -2 0 -6 -4
-9 -8z"/>
<path d="M4197 4045 l-28 -25 48 2 c38 1 41 2 15 5 -33 4 -33 5 -16 24 24 26
15 23 -19 -6z"/>
<path d="M379 4038 c0 -2 -2 -11 -4 -20 -5 -25 11 -23 18 2 3 11 1 20 -4 20
-5 0 -9 -1 -10 -2z"/>
<path d="M4418 4033 c7 -3 16 -2 19 1 4 3 -2 6 -13 5 -11 0 -14 -3 -6 -6z"/>
<path d="M3890 4020 c-23 -7 -22 -8 10 -8 19 0 46 4 60 8 23 7 22 8 -10 8 -19
0 -46 -4 -60 -8z"/>
<path d="M389 3999 c-16 -16 -15 -17 6 -15 12 0 22 6 21 13 -3 20 -10 21 -27
2z"/>
<path d="M1742 3950 c0 -19 2 -27 5 -17 2 9 2 25 0 35 -3 9 -5 1 -5 -18z"/>
<path d="M1882 3940 c0 -14 2 -19 5 -12 2 6 2 18 0 25 -3 6 -5 1 -5 -13z"/>
<path d="M5706 3949 c3 -6 0 -18 -8 -28 -7 -9 -4 -7 7 4 12 12 27 19 35 17 8
-3 12 -2 9 2 -11 11 -50 16 -43 5z"/>
<path d="M810 3918 c0 -9 7 -22 17 -29 15 -13 15 -12 3 11 -17 34 -20 36 -20
18z"/>
<path d="M5660 3920 c-9 -6 -10 -10 -3 -10 6 0 15 5 18 10 8 12 4 12 -15 0z"/>
<path d="M902 3890 c0 -14 2 -19 5 -12 2 6 2 18 0 25 -3 6 -5 1 -5 -13z"/>
<path d="M1693 3895 c0 -8 4 -12 9 -9 5 3 6 10 3 15 -9 13 -12 11 -12 -6z"/>
<path d="M4076 3895 c-11 -8 -15 -15 -9 -15 6 0 16 7 23 15 16 19 11 19 -14 0z"/>
<path d="M5799 3889 c-8 -17 -8 -20 1 -14 9 5 10 1 6 -16 -3 -13 -3 -18 0 -11
3 6 10 10 15 7 4 -3 20 2 34 11 14 9 25 12 25 6 0 -5 -6 -12 -13 -15 -17 -6
-15 -49 2 -55 8 -3 10 4 5 22 -4 16 -2 26 5 26 6 0 8 -7 5 -15 -4 -8 -1 -15 5
-15 6 0 8 -7 4 -16 -5 -14 -3 -14 15 2 21 17 21 18 2 31 -11 8 -17 20 -14 27
8 20 -26 29 -46 11 -25 -23 -36 -18 -14 7 10 12 13 18 7 14 -7 -4 -13 -2 -13
3 0 19 -19 12 -31 -10z"/>
<path d="M1785 3848 c-24 -24 -30 -33 -14 -23 23 17 65 65 56 65 -1 0 -21 -19
-42 -42z"/>
<path d="M1814 3843 c-15 -20 -23 -33 -16 -29 13 8 56 66 49 66 -3 0 -17 -17
-33 -37z"/>
<path d="M3980 3859 c-30 -12 -61 -21 -68 -22 -9 0 -8 -5 3 -17 30 -33 -8 -48
-165 -65 -79 -8 -146 -18 -149 -21 -3 -4 14 -4 39 -2 25 3 65 -1 90 -8 43 -12
54 -12 126 2 72 14 355 -58 464 -118 119 -66 339 -235 413 -318 41 -45 48 -83
18 -100 -15 -7 -23 -6 -33 4 -8 7 -36 25 -63 40 -28 14 -45 26 -40 26 6 0 -7
11 -27 24 -21 12 -35 26 -30 30 4 4 3 6 -3 5 -22 -6 -55 14 -74 44 -11 18 -39
50 -62 72 l-43 40 45 -55 c84 -102 94 -126 66 -164 -13 -17 -17 -17 -76 -2
-35 9 -70 21 -79 27 -15 9 -15 10 1 5 11 -3 31 -9 45 -12 22 -5 24 -3 12 6
-13 10 -12 11 3 6 10 -3 23 -6 28 -6 6 0 8 -4 5 -9 -4 -5 3 -7 14 -4 24 6 26
28 4 37 -9 3 -12 2 -8 -5 9 -16 -37 13 -60 37 -12 12 -31 24 -44 28 -13 4 -19
12 -16 18 5 7 1 9 -9 5 -11 -4 -21 0 -28 12 -7 11 -20 16 -33 14 -13 -3 -47
13 -90 41 -38 26 -75 46 -83 46 -9 0 -11 5 -7 13 4 6 3 9 -1 4 -5 -4 -20 3
-34 15 -31 27 -18 9 42 -60 20 -23 37 -48 37 -55 0 -24 -72 -13 -137 21 -34
18 -66 32 -70 32 -4 0 19 -15 52 -33 33 -18 70 -42 82 -54 12 -12 41 -32 63
-43 22 -11 38 -25 35 -31 -4 -5 -1 -8 7 -7 7 2 14 -7 16 -19 l3 -22 -56 20
c-30 11 -108 30 -173 42 -64 12 -117 27 -116 32 0 11 -39 46 -45 40 -2 -2 5
-12 15 -22 27 -27 119 -154 137 -190 9 -17 23 -35 29 -39 7 -5 5 4 -4 19 -10
14 -18 28 -18 30 0 2 22 0 50 -6 27 -5 48 -13 45 -17 -2 -4 7 -5 20 -2 19 3
32 -4 57 -34 18 -20 68 -76 112 -123 79 -86 111 -129 154 -205 l23 -41 -34 33
c-23 23 -36 29 -45 22 -6 -6 -10 -7 -7 -4 5 8 -46 106 -52 101 -2 -2 8 -24 21
-48 39 -70 22 -79 -58 -30 -36 23 -69 41 -72 41 -5 0 -8 2 -64 48 -19 16 -75
57 -123 92 -80 57 -122 100 -99 100 16 0 90 -59 113 -89 12 -17 28 -32 36 -35
25 -10 -2 27 -61 82 -57 54 -70 76 -38 65 18 -7 17 -5 -12 17 -13 10 -17 10
-12 3 12 -22 -8 -14 -52 18 -23 17 -46 28 -51 24 -21 -12 -159 34 -144 48 3 4
-2 7 -13 7 -10 0 -53 11 -94 25 -56 18 -67 24 -45 25 l30 1 -28 15 c-15 8 -32
12 -37 9 -6 -4 -49 12 -96 34 -47 23 -89 41 -93 41 -4 0 -8 7 -8 15 0 9 6 14
13 11 7 -3 10 2 7 14 -6 22 -33 35 -33 16 0 -25 -34 -55 -70 -61 -61 -11 -164
-9 -188 4 -28 15 -161 31 -168 20 -2 -4 -27 9 -54 29 -57 42 -59 52 -4 23 21
-12 48 -21 59 -21 20 1 20 1 1 15 -11 8 -14 15 -7 15 7 0 9 5 6 10 -3 6 -18
10 -32 10 -42 0 -18 13 34 18 62 6 68 12 12 12 -27 0 -39 3 -31 9 8 4 -25 8
-75 8 -86 0 -156 8 -174 19 -5 3 -9 1 -9 -4 0 -11 57 -36 77 -35 7 0 11 -3 8
-7 -4 -7 117 -90 132 -90 2 0 16 -9 30 -20 14 -11 30 -17 36 -13 6 3 7 1 3 -5
-7 -12 27 -34 60 -38 21 -2 74 -32 74 -41 0 -3 -13 -3 -30 -1 -25 4 -28 2 -17
-10 10 -12 7 -14 -18 -9 -140 26 -268 39 -260 27 4 -6 -15 -10 -44 -10 -65 0
-169 43 -153 63 9 10 1 17 -33 32 -25 10 -45 22 -45 26 0 5 -11 11 -25 15 -13
3 -30 13 -37 22 -7 9 -8 13 -3 10 6 -4 16 -3 23 1 8 5 4 12 -15 20 -16 8 -36
17 -45 22 -23 12 -31 11 -23 -1 3 -5 0 -10 -7 -10 -7 0 -24 -3 -37 -7 -17 -4
-22 -3 -17 5 4 7 1 12 -8 12 -9 0 -16 -4 -16 -9 0 -5 -48 -12 -107 -17 l-108
-8 90 -11 c73 -10 82 -13 45 -15 -25 -1 -36 -4 -25 -7 11 -2 38 -11 60 -20 52
-20 125 -42 125 -38 0 2 -18 14 -40 26 -47 27 -46 38 2 14 58 -30 149 -87 145
-91 -2 -3 -16 2 -31 10 -19 9 -37 11 -55 6 -17 -4 -60 -2 -107 7 -43 7 -97 11
-120 8 -43 -6 -127 19 -88 27 10 2 -10 4 -46 5 -44 2 -60 -1 -50 -7 8 -5 25
-10 37 -10 12 0 82 -20 155 -44 127 -41 218 -86 218 -109 0 -6 -8 -3 -17 5
-10 9 -45 18 -79 21 -34 3 -70 10 -80 15 -11 6 -35 15 -54 20 l-35 10 40 2
c34 2 28 5 -45 21 -47 11 -100 22 -117 25 -18 4 -30 10 -28 14 3 4 -5 10 -18
14 -31 8 -46 6 -22 -3 12 -5 -22 -10 -90 -15 -61 -4 -114 -11 -119 -16 -6 -6
-17 -10 -25 -10 -14 0 -14 1 -1 10 11 7 7 10 -18 10 -18 0 -31 3 -29 8 6 8
-45 15 -115 16 -25 1 -44 4 -42 7 2 4 -15 7 -39 7 -28 1 -57 -8 -86 -25 -39
-23 -43 -28 -37 -56 3 -16 15 -37 27 -45 15 -10 17 -17 9 -27 -8 -10 -7 -13 6
-11 9 0 19 -5 22 -13 3 -9 0 -11 -8 -6 -8 5 -11 4 -7 -3 8 -12 24 -11 54 6 19
10 24 9 32 -7 6 -10 7 -22 3 -26 -4 -5 -2 -5 4 -2 13 7 37 -16 40 -39 2 -10
-3 -10 -22 2 -12 9 -28 13 -34 9 -7 -4 -9 2 -6 19 3 15 1 24 -5 21 -5 -4 -9 0
-9 7 0 7 -7 2 -16 -10 -9 -13 -13 -26 -10 -29 3 -4 6 0 6 8 1 15 22 -8 42 -46
11 -19 10 -19 -8 -5 -10 8 -22 20 -26 25 -5 6 -8 6 -8 -1 0 -6 3 -14 7 -17 3
-4 8 -17 9 -29 5 -36 9 -52 15 -63 10 -19 -7 -75 -22 -75 -6 0 -7 -5 -3 -12 5
-8 2 -9 -9 -5 -11 4 -17 1 -17 -8 0 -17 3 -17 -80 -20 -36 -1 -68 2 -71 8 -4
5 -23 10 -44 10 -27 1 -41 8 -52 24 -8 13 -19 20 -24 17 -5 -3 -9 -1 -9 3 0 5
-10 14 -21 22 -20 12 -21 11 -16 -8 3 -12 4 -21 3 -21 -11 0 -120 36 -151 50
-40 18 -112 17 -83 -1 9 -6 8 -9 -7 -9 -12 0 -26 5 -32 11 -14 14 -27 -22 -25
-71 0 -19 -2 -29 -5 -22 -4 10 -8 10 -21 0 -14 -11 -15 -10 -8 7 5 11 12 34
17 51 5 18 16 37 24 44 20 17 19 31 -2 23 -10 -3 -15 -3 -11 1 3 4 13 9 22 10
14 2 50 47 76 96 11 20 10 21 -12 9 -13 -6 -31 -18 -40 -27 -10 -8 -18 -12
-18 -7 0 4 -6 2 -14 -4 -11 -10 -14 -9 -12 4 1 8 4 14 7 13 5 -3 102 63 111
76 5 7 8 5 8 -4 1 -10 7 -7 21 10 12 14 37 42 57 64 27 30 33 42 25 55 -6 9
-14 16 -19 15 -5 0 -17 9 -27 20 -17 21 -17 21 -10 1 6 -19 6 -19 -14 -2 -22
19 -63 23 -81 5 -8 -8 -15 -8 -26 2 -9 7 -14 16 -11 20 3 4 -3 7 -12 6 -10 0
-18 4 -18 11 0 6 -4 15 -9 20 -5 5 -6 3 -2 -4 5 -9 0 -13 -16 -13 -18 -1 -13
-5 21 -23 42 -22 65 -47 42 -47 -6 0 -8 -6 -5 -14 9 -24 -11 -25 -22 -1 -9 19
-9 22 4 18 10 -4 13 -1 10 8 -3 8 -16 15 -29 15 -13 1 -33 5 -44 9 -11 3 -7
-1 9 -10 22 -13 26 -19 15 -26 -11 -7 -10 -9 4 -9 9 0 17 -4 17 -9 0 -5 -9 -7
-19 -4 -11 3 -30 -2 -43 -11 -12 -9 -18 -16 -12 -16 5 0 15 5 22 12 9 9 15 9
24 -1 11 -10 9 -15 -5 -26 -16 -12 -14 -14 22 -20 25 -4 38 -11 35 -19 -2 -6
8 -17 23 -24 l28 -12 -27 4 c-15 2 -29 -2 -32 -9 -3 -8 7 -11 31 -9 32 2 33 1
16 -11 -22 -17 -37 -19 -27 -3 5 7 3 8 -5 4 -7 -5 -35 -10 -62 -11 -27 -2 -58
-7 -69 -10 -10 -3 -21 -1 -25 4 -8 13 66 51 102 52 17 1 9 5 -22 10 -53 9 -69
4 -45 -12 12 -8 10 -9 -7 -4 -16 4 -23 0 -29 -17 -4 -13 -7 -29 -6 -35 2 -7
-3 -23 -9 -35 -12 -22 -12 -22 14 -5 15 9 34 17 44 17 15 0 15 -2 4 -9 -15
-10 -25 -41 -13 -40 24 4 42 -3 42 -15 0 -8 5 -16 12 -18 7 -3 5 -7 -6 -11
-10 -4 -15 -3 -11 3 3 6 1 10 -5 10 -7 0 -10 -6 -7 -14 3 -7 0 -20 -6 -27 -10
-11 -9 -11 6 0 9 7 17 10 17 6 0 -4 8 -1 18 6 15 13 16 12 3 -3 -7 -10 -17
-16 -21 -13 -4 3 -11 -2 -14 -11 -3 -8 -11 -12 -17 -8 -8 4 -9 3 -5 -4 4 -6
-6 -18 -24 -27 -37 -19 -40 -28 -4 -15 14 6 27 10 30 10 13 0 -7 -29 -58 -82
-31 -33 -50 -57 -42 -54 23 9 16 -4 -9 -15 -19 -8 -17 -9 13 -5 19 3 29 2 23
-1 -7 -2 -13 -9 -13 -14 0 -19 26 -8 63 29 52 49 32 8 -25 -54 -35 -38 -38
-44 -20 -44 12 0 38 20 61 46 l41 47 -14 -47 c-8 -25 -12 -46 -9 -46 3 0 0 -7
-7 -15 -10 -12 -10 -15 0 -15 10 0 10 -3 0 -15 -7 -8 -16 -13 -20 -10 -4 3
-14 -3 -21 -12 -10 -12 -10 -14 -1 -9 7 4 12 2 12 -8 0 -8 -8 -20 -17 -26 -14
-8 -12 -9 11 -4 21 5 27 4 22 -5 -5 -8 7 -11 38 -11 50 0 54 -4 30 -38 -9 -13
-11 -22 -4 -22 6 0 8 -5 5 -10 -4 -6 -12 -7 -18 -3 -8 4 -8 1 1 -9 10 -13 10
-19 -3 -32 -19 -19 -12 -21 18 -4 12 6 48 19 79 29 l57 17 -15 -37 c-9 -20
-18 -54 -21 -75 l-4 -39 25 16 c33 22 33 22 41 -16 10 -52 27 -87 38 -80 7 4
8 -9 4 -38 l-7 -44 20 35 c20 35 20 35 13 5 -6 -28 -5 -29 11 -16 16 14 16 12
2 -25 -19 -50 -40 -144 -33 -150 2 -3 10 16 16 41 6 25 14 45 16 45 7 0 0 -38
-14 -73 -19 -49 -13 -66 12 -32 26 35 74 87 60 65 -5 -8 -23 -33 -40 -55 -17
-22 -35 -54 -41 -72 -9 -28 -9 -31 6 -26 15 5 14 3 -2 -15 -11 -12 -14 -22 -9
-22 15 0 36 27 29 38 -3 6 10 22 29 36 52 40 45 10 -16 -69 -28 -37 -48 -69
-45 -72 3 -4 0 -13 -7 -21 -10 -13 -9 -14 3 -7 13 8 13 7 0 -11 -8 -10 -21
-24 -28 -29 -7 -6 -15 -19 -16 -30 -2 -12 -10 -19 -18 -17 -21 3 -31 -27 -16
-45 9 -12 2 -23 -41 -64 -29 -27 -49 -54 -46 -59 4 -6 11 -7 17 -4 7 4 8 2 4
-5 -4 -6 -11 -9 -16 -6 -5 3 -21 -7 -37 -21 -15 -15 -21 -22 -13 -17 8 6 23
13 33 16 15 6 15 3 -4 -36 -20 -42 -20 -42 0 -17 23 29 28 15 6 -16 -8 -12
-12 -23 -10 -26 3 -3 -4 -13 -15 -23 -11 -10 -20 -24 -20 -32 0 -8 -4 -11 -10
-8 -5 3 -10 -1 -10 -11 0 -12 13 -5 46 26 28 26 51 39 60 36 9 -3 18 -6 21 -6
3 0 -5 -16 -16 -36 -13 -22 -19 -44 -15 -56 3 -11 2 -18 -3 -15 -9 6 -40 -38
-101 -141 -37 -62 -38 -66 -14 -53 10 5 27 28 37 50 23 52 40 54 30 3 -5 -20
-8 -45 -9 -54 0 -9 -3 -15 -7 -12 -12 7 -17 -51 -13 -149 3 -66 1 -97 -5 -92
-11 6 -17 -13 -25 -87 -6 -51 9 -67 44 -46 15 10 23 9 39 -6 23 -21 18 -41 -8
-31 -11 4 -13 3 -6 -4 7 -7 22 -8 42 -2 32 9 62 -6 46 -23 -4 -3 4 -5 17 -3
13 2 24 12 26 22 1 10 8 23 14 29 9 8 10 4 4 -18 -5 -21 -4 -27 5 -22 6 4 11
2 11 -5 0 -7 8 -6 25 5 20 13 23 14 19 1 -3 -8 -14 -17 -25 -20 -10 -4 -19
-12 -19 -19 0 -26 13 -23 42 10 39 44 60 56 79 42 11 -8 11 -9 -3 -4 -11 3
-15 1 -12 -8 3 -7 17 -12 32 -11 15 2 19 0 9 -2 -9 -2 -15 -9 -12 -14 4 -5 -1
-9 -10 -9 -11 0 -15 -5 -12 -15 4 -8 2 -17 -3 -20 -6 -4 -10 -16 -10 -28 0
-12 -4 -17 -8 -12 -11 16 -64 18 -74 3 -7 -9 -8 -6 -5 9 3 13 -1 28 -10 35
-13 10 -18 9 -32 -7 -19 -23 -35 -28 -73 -26 -16 1 -28 -4 -28 -9 0 -6 -4 -9
-10 -5 -5 3 -19 -11 -30 -32 -14 -25 -18 -30 -14 -13 11 41 35 84 56 101 16
12 18 18 8 24 -9 6 -11 4 -5 -5 6 -9 4 -12 -6 -8 -8 3 -26 -4 -39 -15 -18 -14
-19 -18 -7 -14 13 5 17 3 15 -5 -3 -7 -13 -13 -24 -13 -10 0 -25 -4 -31 -8 -7
-5 -13 -5 -13 -2 0 10 -62 -37 -97 -73 -35 -37 -64 -110 -56 -141 5 -21 -11
-29 -21 -12 -10 16 35 129 76 193 22 34 34 57 26 50 -8 -6 -17 -10 -20 -7 -2
3 -5 -1 -5 -8 0 -20 -42 -73 -69 -88 -14 -7 -23 -18 -20 -25 5 -14 -13 -33
-29 -31 -5 0 -24 -20 -41 -46 -36 -55 -52 -52 -24 4 28 53 24 62 -5 14 -28
-45 -32 -41 -10 11 8 19 10 32 4 28 -8 -4 -9 1 -4 17 7 22 7 23 -10 9 -17 -14
-17 -14 -5 7 15 24 44 19 36 -6 -4 -10 -1 -9 7 3 7 11 32 44 56 75 24 31 33
46 21 34 l-23 -22 -19 22 -19 22 15 -25 c14 -23 13 -27 -5 -50 l-20 -25 6 25
c4 17 3 21 -3 12 -5 -8 -12 -13 -16 -13 -3 1 -14 1 -23 1 -14 0 -15 -2 -5 -9
11 -7 10 -9 -3 -14 -9 -4 -13 -3 -10 3 3 6 1 10 -6 10 -7 0 -9 -9 -6 -22 6
-22 6 -22 -9 -3 -13 17 -12 20 7 31 16 8 18 13 9 19 -7 4 -16 2 -21 -6 -7 -11
-9 -10 -9 4 0 10 -4 15 -10 12 -7 -4 -7 3 0 20 7 17 7 24 0 20 -14 -9 -12 9 2
23 8 8 8 12 1 12 -6 0 -13 -6 -16 -14 -3 -7 -15 -16 -26 -19 -14 -3 -19 -1
-14 6 4 6 0 8 -10 4 -10 -3 -17 -3 -17 2 0 4 -10 12 -22 18 -19 8 -20 10 -4
16 10 4 15 3 11 -3 -3 -6 -2 -10 4 -10 5 0 11 3 14 8 2 4 2 1 1 -5 -2 -7 3
-13 11 -13 18 0 18 5 4 31 -9 18 -8 19 10 7 15 -9 19 -19 15 -33 -7 -22 -10
-23 46 24 3 2 -2 2 -12 -2 -21 -8 -31 3 -17 20 6 7 8 13 3 14 -12 1 -74 8 -96
11 -22 3 -24 18 -2 18 8 0 12 5 9 10 -4 6 -11 8 -16 5 -5 -4 -16 -2 -25 3 -11
6 -13 11 -5 16 6 4 11 3 11 -1 0 -8 17 -12 63 -13 9 -1 15 -5 12 -11 -4 -5 -2
-9 4 -9 5 0 9 9 8 19 -1 12 -6 17 -16 13 -9 -3 -12 -1 -7 6 4 7 1 12 -9 12 -9
0 -13 -4 -10 -10 3 -5 1 -10 -4 -10 -18 0 -13 20 7 27 9 4 26 16 37 27 20 20
20 20 -8 3 -20 -13 -27 -14 -27 -5 0 7 -8 1 -18 -15 -10 -15 -22 -24 -25 -21
-4 4 -2 13 4 20 5 7 12 25 15 41 3 15 13 37 22 48 17 20 17 20 -4 2 -24 -19
-39 -23 -28 -5 5 7 2 9 -9 5 -11 -4 -14 -2 -10 8 3 8 8 13 12 11 3 -2 6 10 6
27 0 29 -13 44 -25 30 -3 -4 1 -3 9 2 11 6 12 2 7 -21 -10 -37 -26 -56 -43
-50 -7 3 -13 1 -13 -4 0 -5 9 -12 20 -15 11 -3 20 -13 20 -21 0 -8 5 -14 11
-14 5 0 7 5 4 10 -3 6 -1 10 4 10 12 0 9 -35 -4 -47 -4 -5 -5 -2 -1 4 9 16 1
16 -27 2 -21 -10 -21 -10 -3 5 11 9 16 17 10 17 -5 1 -21 3 -35 4 l-27 4 -1
-96 c-1 -68 2 -99 11 -105 10 -6 10 -8 1 -8 -10 0 -13 -70 -13 -315 0 -173 3
-315 8 -315 4 0 15 21 26 46 23 56 43 55 65 -3 13 -36 19 -43 42 -43 23 0 28
5 31 28 3 26 5 27 71 29 68 2 68 2 74 -27 7 -39 23 -39 23 0 0 28 2 30 39 30
36 0 40 -3 46 -32 l7 -31 14 32 c12 28 18 32 46 29 35 -3 51 -33 26 -49 -9 -6
-7 -9 10 -9 18 0 22 6 22 30 0 28 2 30 40 30 30 0 42 -5 46 -17 3 -10 8 -25
11 -33 3 -10 9 -5 18 16 10 25 20 32 48 36 20 2 35 1 35 -2 -5 -53 18 -84 24
-33 3 25 7 28 43 28 33 0 40 -4 46 -25 4 -14 8 -20 8 -15 1 6 6 3 12 -5 11
-15 9 -7 -7 35 -2 6 4 19 12 30 16 20 16 20 31 -2 12 -17 21 -20 49 -16 38 6
64 -9 64 -38 0 -11 5 -19 11 -19 7 0 10 14 7 35 -2 19 0 35 5 35 5 0 4 7 -3
15 -10 13 -9 15 9 15 19 0 21 -6 21 -52 0 -35 3 -48 9 -39 5 8 7 19 5 26 -3 6
2 18 11 25 14 12 18 11 26 -1 5 -8 9 -24 9 -37 0 -13 4 -21 9 -18 11 7 11 56
0 56 -5 0 -9 5 -9 11 0 8 4 8 14 0 13 -11 107 -8 126 4 4 2 16 -5 26 -18 16
-18 16 -19 2 -8 -11 8 -18 9 -18 3 0 -6 4 -13 10 -17 5 -3 7 -12 3 -20 -4 -12
3 -15 30 -15 34 0 44 16 24 36 -11 11 -8 26 3 19 6 -4 10 -3 9 2 -4 21 2 33
18 33 9 0 26 8 37 18 20 16 20 16 7 0 -12 -16 -11 -18 8 -18 22 0 28 -14 11
-25 -16 -10 -12 -25 5 -19 8 3 14 9 13 12 -2 20 3 33 15 31 6 -1 23 3 37 9 14
6 18 11 11 11 -12 1 -12 4 -3 13 10 10 16 7 28 -11 15 -21 17 -21 35 -5 18 16
20 16 37 1 10 -10 23 -17 28 -17 5 0 2 5 -6 10 -13 8 -12 10 3 10 9 0 17 -5
17 -11 0 -5 5 -7 10 -4 14 8 13 52 -2 61 -7 4 -8 3 -4 -4 4 -7 1 -12 -6 -12
-10 0 -10 -2 0 -9 10 -6 7 -10 -12 -13 -34 -7 -56 18 -49 56 4 20 3 27 -6 22
-6 -4 -9 -12 -6 -17 3 -5 -1 -6 -9 -3 -8 3 -16 -2 -19 -13 -4 -16 -5 -16 -6
-1 0 10 8 22 19 28 12 7 18 16 13 23 -5 9 -3 9 9 0 8 -7 18 -10 21 -6 4 3 7 0
7 -8 0 -11 2 -11 10 1 6 9 10 11 10 3 0 -7 7 -10 17 -6 11 4 14 3 9 -5 -4 -7
-19 -10 -33 -8 -22 4 -24 2 -19 -17 3 -12 6 -25 6 -29 0 -5 5 -8 11 -8 6 0 9
7 5 15 -7 20 27 38 42 23 9 -9 16 -7 28 8 13 15 15 16 10 2 -4 -15 -2 -16 19
-6 14 6 25 16 25 22 0 6 5 4 10 -4 6 -9 10 -11 10 -3 0 7 7 10 17 6 11 -4 14
-3 9 5 -4 7 -2 12 3 12 6 0 11 -5 11 -11 0 -6 9 -8 23 -3 12 3 19 3 14 -1 -6
-7 -26 -12 -64 -14 -7 -1 -13 -7 -13 -15 0 -19 -26 -40 -35 -26 -3 5 -12 10
-18 10 -7 0 -3 -7 7 -15 13 -10 15 -15 6 -15 -7 0 -22 7 -32 17 -10 9 -18 11
-18 6 0 -6 7 -14 16 -17 8 -3 12 -10 9 -16 -4 -6 1 -7 11 -3 13 5 15 3 10 -8
-4 -8 1 -3 12 10 10 13 24 21 30 17 5 -3 21 -2 34 3 13 6 16 10 8 11 -13 0
-13 1 0 10 13 9 13 10 0 10 -8 1 -5 5 8 11 15 6 30 5 40 -1 15 -9 14 -10 -5
-16 -13 -3 -23 -11 -23 -16 0 -9 13 -4 38 15 8 7 9 13 2 22 -8 9 -6 14 5 18 8
4 14 1 12 -5 -4 -18 20 -20 38 -2 16 17 17 17 13 -2 -2 -10 -11 -18 -19 -16
-12 3 -12 1 -1 -10 11 -11 16 -10 26 5 7 9 18 17 24 17 6 0 14 5 18 12 4 7 3
8 -5 4 -13 -8 -41 10 -41 26 0 5 7 2 16 -6 8 -9 20 -14 24 -11 5 3 14 -4 20
-15 7 -12 18 -19 26 -16 7 3 18 -3 24 -12 10 -15 11 -15 5 3 -4 11 -8 30 -10
43 l-2 23 19 -21 c10 -11 23 -20 29 -20 6 0 7 -4 4 -10 -4 -6 3 -6 21 0 33 13
40 8 19 -14 -9 -9 -12 -16 -6 -16 6 0 14 0 18 0 11 0 10 32 0 47 -5 7 -14 10
-20 6 -6 -3 -7 -1 -3 6 6 9 14 8 32 -3 27 -19 38 -20 28 -5 -4 8 0 7 15 -1 12
-6 19 -15 16 -20 -3 -4 4 -6 15 -3 11 3 23 9 26 14 3 5 -3 6 -13 3 -15 -5 -16
-4 -3 5 11 8 18 7 28 -6 6 -9 12 -13 12 -9 0 5 6 3 14 -3 15 -13 23 -6 22 19
-1 8 -6 15 -13 15 -6 0 -14 3 -18 7 -10 10 17 4 43 -10 12 -7 22 -10 22 -6 0
4 9 -1 19 -10 14 -12 21 -14 26 -6 4 7 16 9 27 7 12 -3 27 2 39 14 17 17 25
19 50 10 18 -6 29 -6 29 0 0 5 5 9 11 9 6 0 9 -8 7 -18 -4 -13 1 -18 16 -20
17 -1 18 1 6 8 -13 9 -13 11 0 19 10 7 17 6 22 -2 6 -9 8 -9 8 0 0 8 13 11 40
8 22 -2 40 -1 40 3 0 8 152 7 174 -1 9 -4 16 -2 16 2 0 5 11 8 25 6 14 -1 25
2 25 8 0 6 5 6 13 -1 6 -6 30 -8 52 -5 51 6 54 6 88 -2 16 -3 26 -2 23 3 -7
11 34 9 53 -2 9 -6 12 -5 8 1 -5 7 17 11 63 11 40 0 70 -4 70 -10 0 -6 12 -3
26 7 15 9 24 13 20 7 -3 -6 5 -9 19 -8 14 0 25 6 25 11 0 6 5 2 11 -8 8 -13
14 -15 30 -7 11 6 23 8 28 5 5 -3 12 1 14 7 4 10 6 9 6 -1 1 -11 4 -11 18 0
13 11 17 11 20 1 3 -6 9 -9 15 -6 15 9 137 11 131 2 -7 -13 11 -9 35 7 18 13
26 14 44 3 31 -17 39 -17 67 0 13 8 21 9 17 4 -7 -11 39 -10 51 1 3 4 17 4 31
0 20 -5 23 -3 17 8 -7 11 -6 12 6 3 20 -15 55 -12 51 5 -2 11 0 12 11 3 10 -9
16 -9 25 0 8 8 12 9 12 1 0 -6 9 -9 22 -5 15 4 19 2 13 -7 -6 -10 -3 -11 11
-3 11 5 24 7 31 5 6 -2 14 0 17 6 3 5 15 7 25 4 10 -3 22 0 26 7 5 8 10 8 20
0 10 -8 15 -8 20 0 5 8 11 7 23 -2 12 -10 14 -10 8 0 -4 6 -2 12 3 12 6 0 11
-3 11 -7 0 -5 26 -7 57 -6 32 1 186 5 343 7 274 6 473 13 552 20 27 3 36 1 31
-7 -4 -8 -1 -8 9 0 8 7 29 11 46 9 17 -2 29 1 26 5 -3 5 2 9 11 9 9 0 14 -4
10 -9 -3 -5 0 -13 6 -17 8 -4 9 -3 5 4 -5 8 1 12 16 13 49 3 68 7 97 19 16 6
35 9 40 5 6 -3 11 -1 11 5 0 6 5 8 10 5 6 -4 7 -11 4 -17 -4 -6 -2 -8 3 -5 6
4 11 18 11 33 0 18 -4 22 -11 15 -18 -18 -31 -12 -16 6 13 17 13 17 -13 0 -19
-12 -26 -13 -22 -4 3 9 -4 13 -26 11 -16 -1 -32 2 -35 6 -3 5 -18 5 -33 1 -30
-9 -73 1 -55 12 6 4 24 40 39 80 16 41 30 64 32 54 6 -29 21 -19 32 22 6 22
19 58 29 81 16 37 19 38 27 19 8 -18 14 -12 51 53 27 49 46 72 57 70 11 -2 14
2 10 13 -4 8 -1 15 6 15 7 0 10 7 6 16 -3 8 -2 12 4 9 13 -8 7 50 -7 67 -12
14 -17 35 -13 58 1 9 6 4 11 -10 5 -17 8 1 6 57 -1 44 2 79 6 76 4 -2 6 6 3
19 -12 58 -15 103 -6 83 7 -16 9 -10 9 25 -1 91 14 195 32 226 20 33 26 59 8
34 -9 -12 -9 -11 -4 5 4 11 7 31 6 45 -1 20 1 22 10 10 9 -12 10 -11 6 8 -3
12 -1 19 4 16 6 -3 7 6 3 23 -10 41 -17 221 -10 240 6 14 9 14 28 -3 20 -19
21 -19 14 6 l-7 25 21 -25 21 -25 -18 38 c-9 21 -20 32 -23 26 -4 -6 -7 3 -6
19 1 25 3 28 19 18 15 -9 20 -7 30 9 17 28 17 55 0 90 l-14 30 20 -25 c11 -14
27 -34 35 -45 l16 -20 -7 20 c-6 16 -4 18 8 8 12 -9 15 -5 18 25 6 63 5 96 -4
116 -7 15 -5 18 6 11 13 -8 -11 26 -36 50 -24 24 -65 77 -65 86 0 5 35 9 78 9
53 0 72 3 62 10 -12 8 -10 10 8 10 13 0 21 4 18 9 -3 5 4 12 17 16 19 6 19 8
5 12 -20 5 -23 18 -8 28 18 11 11 23 -31 47 -33 20 -38 26 -25 31 11 5 15 3
10 -5 -5 -7 -3 -8 6 -3 10 6 5 15 -20 37 -19 15 -39 28 -46 28 -6 0 -23 9 -38
21 -14 11 -31 17 -37 13 -8 -5 -9 -3 -4 6 6 10 4 12 -11 6 -10 -4 -15 -4 -11
0 3 4 -16 17 -43 30 -28 13 -53 31 -57 41 -8 22 -33 42 -51 43 -8 0 -27 9 -43
21 -16 11 -34 17 -40 13 -8 -4 -9 -3 -5 5 7 10 -3 21 -73 79 -14 12 -12 13 14
7 22 -4 26 -3 15 5 -8 5 -11 10 -6 10 17 0 138 -72 189 -114 29 -23 70 -52 92
-64 l40 -23 -33 31 c-18 16 -28 30 -24 30 5 0 12 -3 16 -7 3 -4 15 -7 26 -8
31 -2 6 20 -56 52 -30 15 -78 46 -106 70 -28 23 -56 39 -61 36 -6 -3 -7 -1 -3
5 4 7 -9 19 -33 32 -44 22 -55 25 -47 12 3 -5 -25 6 -62 23 -37 18 -83 37
-102 44 -39 13 -92 50 -72 51 7 0 0 11 -15 24 -15 13 -25 28 -21 32 4 4 34 1
65 -6 96 -21 127 -24 119 -11 -13 20 6 11 68 -32 60 -44 99 -56 89 -30 -7 19
27 17 57 -4 14 -9 38 -28 54 -42 l29 -26 -17 27 c-10 14 -24 29 -32 32 -9 3
-12 11 -8 17 4 7 3 9 -3 6 -13 -8 -26 20 -17 35 3 5 12 7 20 4 8 -3 14 -4 14
-1 0 7 -162 85 -177 85 -8 0 -29 10 -46 22 l-32 21 33 -35 32 -34 -39 2 c-21
1 -43 4 -47 6 -5 3 -27 9 -49 13 -22 5 -47 10 -55 12 -8 2 -27 5 -42 8 -34 5
-61 19 -79 41 -12 16 -12 17 1 9 13 -8 13 -6 1 8 -9 11 -18 14 -29 8 -19 -11
-165 20 -229 49 -45 20 -100 67 -95 82 1 5 -2 7 -7 5 -5 -1 -52 40 -104 91
-52 50 -100 92 -107 92 -6 0 -9 4 -6 9 3 5 -12 21 -33 36 -22 14 -42 33 -45
41 -3 8 -12 14 -21 14 -8 0 -15 5 -15 11 0 6 10 8 23 5 12 -3 5 2 -15 12 -52
23 -47 36 10 27 76 -11 159 -61 247 -151 74 -74 87 -83 175 -117 93 -36 250
-127 250 -146 0 -8 64 -51 77 -51 3 0 -5 8 -17 18 l-22 18 34 -2 c18 -1 47 -5
63 -9 29 -7 29 -7 10 8 -11 9 -16 17 -11 17 16 0 -24 38 -53 50 -15 6 -28 18
-28 26 0 12 8 14 36 10 l36 -5 -28 13 c-44 20 -33 31 35 36 56 4 63 7 62 26
-1 17 4 20 27 18 15 -2 31 1 34 6 11 18 -20 21 -61 6 -29 -10 -46 -11 -60 -3
-18 10 -18 9 -1 -10 9 -11 17 -23 17 -26 0 -22 -356 26 -399 54 -12 7 -6 9 24
5 29 -4 19 2 -35 19 -41 14 -88 27 -105 31 -16 3 -34 9 -38 13 -12 12 50 41
71 34 13 -4 12 -2 -3 9 -11 9 -42 19 -70 23 -27 4 -55 11 -61 16 -6 5 -20 10
-32 12 -29 4 -40 17 -16 17 14 1 11 5 -13 18 -18 9 -32 21 -32 27 0 5 -8 12
-18 16 -13 6 -8 8 17 8 34 1 163 -29 191 -43 8 -4 6 -1 -4 7 -14 11 -15 16 -5
21 7 3 0 3 -17 0 l-30 -5 30 15 30 14 -33 7 c-18 4 -35 12 -38 16 -3 5 -17 9
-32 9 -37 0 -15 18 28 23 l35 4 -38 1 c-21 1 -48 -3 -60 -9 -15 -7 -12 -2 8
15 17 14 34 25 38 26 5 0 6 4 2 9 -3 6 4 15 15 21 11 6 18 15 15 20 -3 5 3 14
12 20 14 9 11 10 -17 4 -22 -4 -73 -36 -140 -89 -58 -45 -116 -87 -130 -94
l-25 -12 24 19 c14 11 21 24 17 31 -4 7 -3 18 3 25 8 10 6 20 -9 39 -11 14
-19 31 -18 38 2 6 -4 13 -12 14 -16 3 -51 -20 -139 -92 -58 -47 -82 -49 -131
-12 -43 32 -113 62 -148 62 l-33 1 45 23 c42 21 45 25 34 43 -7 11 -17 20 -23
20 -5 1 4 7 20 15 46 21 17 17 -45 -6z m455 -129 c3 -5 1 -10 -4 -10 -6 0 -11
5 -11 10 0 6 2 10 4 10 3 0 8 -4 11 -10z m78 -67 c-7 -2 -21 -2 -30 0 -10 3
-4 5 12 5 17 0 24 -2 18 -5z m-1768 -133 c3 -5 2 -10 -4 -10 -5 0 -13 5 -16
10 -3 6 -2 10 4 10 5 0 13 -4 16 -10z m135 -156 c0 -2 -9 0 -20 6 -11 6 -20
13 -20 16 0 2 9 0 20 -6 11 -6 20 -13 20 -16z m380 11 c14 -8 21 -14 15 -14
-5 0 -21 6 -35 14 -14 8 -20 14 -15 14 6 0 21 -6 35 -14z m-195 -15 c-2 -4 25
-7 61 -6 60 1 63 2 37 13 l-28 12 33 1 c42 0 86 -18 148 -63 27 -19 103 -61
169 -93 133 -64 147 -70 125 -55 -10 7 -11 11 -3 11 23 0 139 -172 128 -190
-3 -6 7 -24 24 -41 17 -17 31 -36 31 -43 0 -7 25 -45 55 -85 30 -40 55 -76 55
-80 0 -4 -9 -16 -20 -26 -17 -15 -24 -16 -45 -7 -15 7 -25 20 -25 32 0 22 -29
37 -83 43 -18 2 -38 7 -45 11 -7 4 -12 2 -12 -7 0 -12 -10 -13 -52 -5 -201 33
-288 59 -288 84 0 7 -6 11 -14 8 -14 -5 -64 21 -78 41 -4 5 -11 10 -15 10 -32
2 -143 98 -143 124 0 9 -7 26 -15 37 -8 12 -11 24 -8 28 3 3 1 6 -5 6 -7 0
-12 5 -12 11 0 16 73 -29 148 -90 37 -30 61 -48 54 -39 -10 12 -10 18 2 27 11
10 24 1 67 -48 35 -40 67 -65 96 -76 24 -10 46 -15 49 -12 3 3 -11 10 -30 17
-21 7 -33 16 -30 22 4 6 2 8 -3 5 -6 -4 -14 0 -17 9 -4 10 -2 13 7 8 6 -4 4 2
-6 13 -17 20 -17 21 0 27 16 7 15 9 -7 22 l-25 14 30 -6 c17 -4 48 -13 70 -21
67 -24 125 -41 125 -38 0 10 -93 55 -113 55 -13 0 -34 9 -47 20 -13 11 -29 20
-36 20 -16 0 -74 33 -74 42 0 3 9 4 20 1 31 -8 23 4 -10 16 -19 6 -28 6 -25 0
4 -5 -15 -1 -42 9 -95 37 -129 50 -205 77 -43 15 -78 31 -78 35 0 11 87 -14
158 -46 74 -33 75 -25 2 13 -32 17 -56 33 -53 37 4 3 2 6 -3 6 -5 0 -24 9 -43
21 -25 15 -31 23 -21 29 7 5 24 4 36 0 36 -14 38 6 4 30 -33 24 -32 41 2 32
16 -4 19 -2 13 8 -5 9 -4 11 4 6 6 -4 9 -11 6 -16z m-1223 -11 c29 -6 58 -15
63 -21 6 -6 1 -7 -15 -4 -117 27 -142 34 -123 35 12 1 46 -4 75 -10z m-125
-23 c-32 -6 -81 -9 -110 -7 -50 5 -51 5 -17 12 19 3 69 6 110 6 l75 0 -58 -11z
m-985 -31 c3 -13 1 -22 -3 -19 -9 5 -13 44 -5 44 2 0 6 -11 8 -25z m1582 -3
c16 -10 28 -21 27 -25 -2 -5 8 -21 22 -35 14 -15 37 -50 51 -79 24 -47 34 -56
121 -103 59 -31 93 -55 89 -62 -4 -6 -3 -8 4 -4 6 3 13 2 17 -4 3 -6 -1 -13
-10 -16 -14 -6 -14 -9 2 -27 12 -14 6 -12 -15 6 -19 15 -38 27 -44 27 -6 0
-30 10 -54 22 -30 15 -41 25 -34 33 14 17 -38 69 -55 55 -10 -8 -23 -6 -52 10
-21 12 -29 19 -19 15 15 -4 17 -3 8 8 -7 8 -9 16 -6 20 3 3 -4 10 -15 17 -23
12 -28 36 -8 43 9 3 9 7 0 19 -7 8 -11 17 -8 20 3 3 -22 17 -55 31 -38 17 -60
32 -60 43 0 12 6 14 33 9 17 -4 45 -14 61 -23z m162 -28 c19 -5 25 -4 20 5 -4
6 -6 11 -4 11 23 -1 256 -73 274 -85 14 -9 30 -15 37 -12 6 2 -9 14 -34 26
-69 36 -88 47 -106 63 -10 9 -27 18 -38 21 -18 4 -18 5 2 6 12 0 48 -11 80
-25 32 -14 81 -29 108 -34 47 -7 48 -7 28 7 -32 22 -28 34 7 22 37 -13 122
-88 117 -103 -4 -13 -70 -10 -109 6 -27 10 -60 3 -153 -32 l-28 -10 53 -54
c66 -67 74 -81 61 -103 -10 -17 -10 -17 -11 0 0 10 -7 20 -15 23 -8 4 -15 10
-15 15 0 5 -9 18 -20 29 -12 12 -18 25 -15 30 8 13 -14 26 -52 29 -15 1 -15 3
-4 10 10 6 -9 11 -55 14 -38 2 -78 7 -89 10 -11 3 -27 6 -35 6 -13 1 -13 2 0
11 13 9 13 10 -1 10 -8 0 -28 14 -44 30 -25 27 -27 30 -9 30 18 1 18 1 1 14
-14 11 -15 15 -5 19 8 4 7 6 -4 6 -10 1 -17 6 -15 12 1 6 -6 13 -16 14 -24 4
-31 11 -23 24 5 7 21 2 46 -14 21 -13 51 -27 66 -31z m579 46 c3 -6 -1 -7 -9
-4 -18 7 -21 14 -7 14 6 0 13 -4 16 -10z m-1190 -20 c6 -4 45 -20 89 -36 66
-23 196 -95 196 -107 0 -3 -17 -1 -37 3 -53 10 -128 46 -111 53 14 6 -37 11
-87 9 -26 -1 -27 0 -10 8 16 8 14 9 -11 4 -18 -3 -54 2 -82 11 -28 9 -59 15
-69 12 -16 -4 -16 -5 2 -6 11 0 67 -16 125 -35 57 -19 108 -32 114 -29 5 3 6
1 2 -5 -4 -7 -2 -12 5 -12 7 0 10 -2 8 -5 -3 -2 -33 5 -68 16 -35 10 -66 17
-69 14 -3 -3 9 -8 27 -11 17 -4 34 -11 37 -15 7 -13 -15 -10 -59 5 -21 8 -46
12 -56 9 -10 -2 -25 2 -33 10 -9 9 -25 13 -43 10 -18 -4 -26 -2 -22 4 9 14
-28 23 -62 17 -15 -3 -49 3 -79 15 -29 12 -60 21 -70 21 -9 -1 1 -7 23 -15 22
-8 41 -19 43 -25 2 -5 11 -10 20 -11 10 0 0 -7 -22 -16 -32 -13 -39 -14 -46
-2 -10 14 -119 26 -162 16 -6 -1 -13 5 -15 13 -3 10 -2 11 4 3 6 -8 14 -9 23
-3 8 6 11 10 5 10 -12 1 65 31 82 32 10 1 10 5 1 15 -6 8 -7 13 -2 12 5 -2 47
2 94 9 47 6 99 14 115 16 43 6 188 -4 200 -14z m3291 -41 c3 -5 -7 -4 -23 3
-41 17 -53 30 -15 17 18 -6 35 -15 38 -20z m-2944 -51 c25 -18 58 -49 74 -68
l28 -35 -30 26 c-16 15 -35 25 -42 24 -7 -2 -8 -1 -2 2 9 4 -28 39 -76 70 -11
6 -14 12 -8 12 6 1 31 -14 56 -31z m2059 -14 c22 -27 160 -115 170 -108 5 3 8
1 7 -4 -2 -6 14 -28 34 -49 l36 -40 -34 11 c-25 8 -29 12 -17 17 15 5 15 6 -1
12 -10 4 -23 4 -28 0 -7 -3 -8 -1 -4 5 5 8 0 12 -12 12 -11 0 -25 7 -32 15 -7
8 -21 15 -31 15 -21 0 -92 59 -71 60 6 0 12 -4 12 -10 0 -5 5 -10 11 -10 8 0
8 5 -1 15 -7 8 -18 14 -24 13 -16 -4 -96 33 -96 44 0 5 6 6 13 1 34 -21 61 -1
31 23 -18 14 -18 15 2 5 11 -5 27 -18 35 -27z m-2646 -4 c4 -6 -6 -10 -22 -9
-25 0 -26 1 -8 9 11 5 21 9 22 9 1 1 5 -3 8 -9z m2814 -6 c12 8 82 -71 112
-128 20 -38 21 -47 10 -58 -11 -10 -12 -10 -7 0 7 11 -5 17 -27 13 -5 -1 -6 3
-3 8 4 5 -5 18 -20 28 -14 10 -35 28 -47 41 -11 12 -25 22 -31 22 -12 0 -66
47 -66 56 0 4 7 4 14 1 11 -4 13 -1 9 10 -4 11 -2 14 5 9 7 -4 12 -2 12 5 0 9
4 9 15 -1 8 -6 18 -9 24 -6z m-3765 -6 c-3 -4 -11 -5 -19 -1 -21 7 -19 12 4
10 11 0 18 -5 15 -9z m1096 -13 c10 3 28 1 41 -4 20 -8 21 -10 5 -10 -20 -1
-20 -1 0 -16 17 -13 12 -14 -51 -10 -39 3 -97 14 -130 25 -54 18 -42 19 24 3
21 -5 23 -3 19 15 -6 20 -4 20 35 6 22 -8 48 -12 57 -9z m2496 -66 c26 -25 31
-36 23 -46 -14 -16 -43 -18 -33 -1 4 7 3 8 -4 4 -6 -4 -29 3 -52 14 -40 21
-55 37 -22 26 11 -4 9 1 -7 14 -13 11 -21 23 -18 27 4 3 -1 12 -11 20 -10 8 4
6 37 -7 30 -10 69 -34 87 -51z m-3636 41 c0 -5 -12 -10 -27 -9 -25 0 -26 1 -8
9 27 12 35 12 35 0z m1253 3 c-7 -2 -19 -2 -25 0 -7 3 -2 5 12 5 14 0 19 -2
13 -5z m985 -22 c20 -10 54 -33 76 -50 21 -17 42 -29 45 -26 6 3 7 -30 2 -42
-1 -1 -20 6 -43 17 -22 10 -48 16 -57 12 -9 -3 -13 -1 -8 3 4 5 -4 16 -19 25
-14 10 -25 21 -25 26 0 5 -7 19 -15 32 -18 27 -5 28 44 3z m2166 -45 c39 -24
85 -59 101 -76 17 -18 56 -50 88 -72 64 -43 72 -65 10 -27 -21 13 -42 23 -47
21 -13 -4 -36 19 -29 31 3 6 1 7 -5 3 -6 -4 -24 0 -39 9 l-28 15 30 -6 c30 -5
10 4 -135 65 -60 25 -65 30 -71 63 -5 35 -5 36 24 27 16 -4 61 -28 101 -53z
m-3050 33 c-3 -5 2 -6 10 -3 17 7 95 -47 136 -92 21 -24 19 -24 -14 5 -30 25
-41 30 -47 19 -5 -7 -2 -22 7 -36 15 -22 14 -23 -3 -18 -10 3 -51 12 -91 21
-77 16 -146 45 -124 53 8 2 1 13 -19 28 l-33 24 83 0 c51 0 80 4 76 10 -3 6 1
7 9 4 9 -3 13 -10 10 -15z m221 4 c36 -17 46 -33 20 -33 -23 0 -95 31 -95 41
0 14 36 10 75 -8z m780 -13 c62 -43 183 -172 166 -178 -8 -3 -23 5 -33 18 -10
12 -18 19 -18 15 0 -3 -7 0 -15 9 -8 8 -15 20 -15 26 0 7 -7 9 -16 6 -8 -3
-12 -2 -9 3 8 14 -36 54 -99 91 -31 17 -56 32 -56 33 0 1 12 3 27 4 15 0 44
-11 68 -27z m-2295 16 c0 -2 -8 -10 -17 -17 -16 -13 -17 -12 -4 4 13 16 21 21
21 13z m4147 -68 c55 -53 84 -108 57 -108 -9 0 -48 22 -87 50 -70 48 -144 108
-120 95 7 -3 22 3 34 14 27 25 42 18 116 -51z m-2602 -8 c3 -5 -10 -1 -29 11
-20 12 -36 23 -36 25 0 7 58 -25 65 -36z m1559 17 c4 4 4 1 1 -8 -3 -9 9 -31
33 -57 21 -23 37 -42 34 -42 -2 0 1 -7 8 -15 7 -8 18 -15 24 -15 7 0 6 4 -2 9
-8 4 -13 11 -13 15 0 3 -13 26 -30 50 -18 24 -31 48 -31 53 0 4 -5 14 -11 21
-16 20 53 -10 136 -59 109 -65 182 -132 240 -222 112 -172 119 -188 81 -205
-28 -14 -57 1 -121 62 -18 16 -33 26 -33 21 0 -13 -39 35 -46 57 -3 11 -8 18
-10 16 -2 -2 6 -28 17 -57 22 -59 19 -79 -5 -34 -13 25 -40 54 -176 184 -19
18 -39 32 -43 31 -5 -1 -6 2 -3 6 3 5 -4 18 -15 28 -25 22 -63 83 -56 90 2 3
14 -7 25 -21 11 -14 23 -21 27 -16 3 6 -15 35 -40 66 -51 63 -55 72 -22 50 13
-8 27 -12 31 -8z m-2129 -7 c7 -12 -2 -12 -30 0 -19 8 -19 9 2 9 12 1 25 -3
28 -9z m106 -5 c16 -9 27 -20 24 -24 -2 -5 2 -8 11 -7 18 1 58 -46 53 -62 -2
-7 -40 7 -88 31 -46 23 -82 47 -80 52 2 6 6 9 9 9 3 -1 21 -5 40 -8 l35 -6
-30 14 c-16 8 -24 15 -17 15 7 1 26 -6 43 -14z m2603 -16 c60 -23 136 -82 136
-105 0 -8 -12 -1 -30 18 -16 17 -30 28 -30 24 0 -3 -10 0 -22 8 -13 8 -25 15
-28 15 -13 0 -73 30 -60 31 13 0 13 1 0 10 -8 5 -23 7 -32 4 -10 -3 -18 -1
-18 5 0 16 22 13 84 -10z m-2659 -35 c26 -15 67 -52 91 -83 45 -57 58 -87 26
-58 -10 10 -21 14 -24 11 -14 -13 -112 51 -102 68 3 4 1 7 -4 6 -5 -2 -21 9
-35 25 -28 29 -16 37 26 16 17 -8 16 -5 -6 15 -35 33 -31 32 28 0z m1045 -30
c0 -2 -9 0 -20 6 -11 6 -20 13 -20 16 0 2 9 0 20 -6 11 -6 20 -13 20 -16z
m1576 -6 c27 -18 83 -64 123 -103 42 -39 66 -57 55 -40 -38 55 -36 60 6 15 35
-38 90 -127 90 -145 0 -14 -52 -2 -70 17 -26 28 -17 37 12 12 12 -10 18 -13
14 -6 -4 6 -34 30 -66 52 -43 29 -58 35 -54 23 9 -27 -154 150 -180 195 -13
22 19 13 70 -20z m150 -35 c-5 -6 -86 40 -86 49 0 4 20 -5 46 -19 25 -14 43
-27 40 -30z m-2011 12 l30 -25 -37 21 c-21 11 -38 23 -38 25 0 10 17 2 45 -21z
m326 8 c13 -17 13 -17 -6 -3 -11 8 -22 16 -24 17 -2 2 0 3 6 3 6 0 17 -8 24
-17z m219 -18 c41 -21 90 -66 145 -134 l20 -24 -22 12 c-13 6 -23 16 -23 22 0
6 -5 7 -12 3 -7 -4 -8 -3 -4 4 4 7 3 12 -2 12 -4 0 -51 32 -102 71 -92 70 -92
80 0 34z m-330 -56 c0 -12 -7 -11 -31 1 -10 6 -19 16 -19 22 0 6 6 5 17 -3 15
-13 15 -12 4 11 l-12 25 20 -24 c12 -13 21 -27 21 -32z m140 25 c0 -14 -12
-19 -23 -8 -9 9 4 35 14 28 5 -3 9 -12 9 -20z m2160 -8 c7 -9 8 -16 2 -16 -5
0 -15 7 -22 15 -7 8 -19 15 -27 15 -8 0 -11 5 -8 10 7 12 35 -1 55 -24z m132
-50 c40 -39 62 -59 50 -45 -21 24 -21 26 -3 24 25 -2 67 -30 109 -74 l34 -36
-26 40 c-29 44 -18 65 21 40 12 -8 31 -15 42 -15 11 0 36 -19 58 -45 20 -25
41 -45 46 -45 5 0 3 8 -4 17 -8 9 14 -4 48 -28 60 -43 108 -102 120 -147 9
-36 -4 -38 -34 -6 -20 22 -25 24 -20 9 8 -21 -41 27 -76 75 -18 25 -18 25 -1
-5 9 -16 34 -50 54 -75 52 -64 82 -117 78 -137 -3 -15 -9 -12 -33 16 -47 53
-110 119 -89 92 19 -24 19 -24 -3 -12 -21 11 -65 64 -60 72 2 2 -17 22 -42 44
-24 22 -41 35 -38 28 11 -18 -10 -25 -35 -11 -13 7 -26 11 -31 10 -4 -1 -6 1
-5 5 2 5 -1 9 -5 10 -16 2 -66 56 -61 64 7 12 -64 62 -81 55 -8 -3 -15 -2 -15
2 0 5 -21 18 -47 31 -73 35 -132 75 -133 89 0 14 16 16 25 2 3 -5 15 -15 27
-21 15 -8 19 -8 14 0 -9 14 -1 14 27 1 13 -7 7 2 -15 22 l-36 34 34 -4 c27 -3
51 -20 106 -76z m-2207 54 c-3 -5 4 -14 15 -20 25 -14 52 -65 48 -93 -3 -20
-5 -19 -41 13 -22 19 -36 39 -33 47 3 8 2 12 -2 10 -4 -3 -16 7 -27 22 -10 14
-13 21 -5 15 12 -9 18 -9 27 1 6 7 9 16 5 21 -4 4 -1 4 6 0 7 -4 10 -11 7 -16z
m-2294 -31 c-35 -28 -51 -22 -17 7 15 14 31 22 35 19 3 -4 -5 -15 -18 -26z
m4659 -13 c0 -9 -37 6 -60 25 -24 19 -24 19 18 -1 23 -11 42 -22 42 -24z
m-3234 -8 l29 -33 -32 29 c-18 17 -33 31 -33 33 0 8 8 1 36 -29z m-1343 -25
c9 -24 15 -43 12 -43 -6 0 -35 69 -35 83 0 15 5 7 23 -40z m4038 -67 c24 -44
62 -109 86 -144 24 -35 43 -68 43 -73 0 -14 -79 72 -86 94 -3 9 -9 17 -14 17
-4 0 -11 12 -14 26 -4 15 -10 24 -13 20 -9 -9 -74 64 -67 75 3 5 -9 27 -26 49
-17 22 -27 40 -21 40 5 0 16 -9 24 -21 10 -13 17 -17 22 -9 4 6 1 19 -6 28
-11 14 -9 13 8 -2 12 -10 41 -55 64 -100z m-2413 75 c31 -16 68 -38 82 -50 24
-21 -43 12 -125 61 -46 28 -21 21 43 -11z m506 4 c20 -30 21 -46 1 -39 -8 4
-12 10 -9 16 3 5 -2 18 -12 29 -9 10 -12 19 -7 19 6 0 18 -11 27 -25z m207 -4
c24 -15 56 -41 71 -57 50 -55 130 -214 143 -286 l7 -37 -30 8 -29 9 5 -47 c3
-25 8 -48 13 -51 4 -3 15 -43 23 -90 9 -47 27 -121 41 -164 25 -81 25 -106 -2
-85 -15 13 -48 70 -46 80 2 6 -14 110 -27 174 -7 37 -8 38 -9 9 -2 -45 -21
-94 -36 -94 -40 0 -220 321 -239 427 l-6 28 12 -27 c7 -16 16 -28 21 -28 4 0
6 -4 2 -9 -3 -6 1 -25 10 -43 8 -18 12 -23 9 -10 -11 45 -13 82 -4 87 5 3 25
-27 45 -67 21 -40 43 -80 50 -88 6 -8 15 -24 19 -34 3 -10 9 -17 11 -14 7 6
-33 95 -45 103 -5 3 -17 21 -25 39 -12 25 -13 39 -5 60 8 22 6 37 -10 74 l-20
47 60 -62 c33 -33 60 -58 60 -54 0 4 -11 18 -25 31 -14 13 -23 30 -20 38 2 7
1 10 -4 7 -5 -3 -12 -1 -16 5 -3 5 1 10 10 10 8 0 20 -12 26 -27 7 -20 13 -23
21 -15 9 9 6 18 -11 36 -13 14 -20 29 -17 34 3 5 -11 25 -32 43 -77 70 -78 90
-1 40z m1859 -8 c0 -7 -39 17 -46 28 -3 6 5 3 20 -6 14 -10 26 -19 26 -22z
m-1619 0 c9 -7 19 -10 23 -6 4 4 4 0 1 -9 -4 -9 -1 -19 6 -24 8 -5 10 -3 4 7
-7 11 -6 12 7 2 8 -7 18 -10 21 -7 10 10 68 -35 131 -100 32 -33 52 -52 45
-42 -10 14 -10 18 -2 12 7 -4 28 -30 48 -59 19 -29 44 -63 56 -77 l21 -25 -18
30 c-36 61 -66 115 -61 115 2 0 21 -25 41 -55 20 -30 39 -55 42 -55 3 0 -3 12
-14 28 -11 15 -27 43 -37 62 l-17 35 38 -35 38 -35 -19 30 -18 30 33 -30 c32
-30 81 -116 106 -189 19 -53 1 -66 -41 -28 -41 37 -100 78 -90 62 5 -8 3 -11
-6 -8 -8 3 -14 10 -14 16 0 10 -219 222 -231 222 -3 0 -2 -9 1 -20 9 -29 -4
-25 -44 13 -18 17 -31 25 -27 17 10 -20 -103 100 -115 122 -13 23 -4 23 32 -3
l29 -20 -10 25 c-8 21 -7 24 8 19 9 -3 24 -12 33 -20z m1346 0 c7 -10 18 -26
24 -37 17 -28 -6 -11 -31 24 -23 32 -17 42 7 13z m242 3 c14 -8 31 -12 38 -9
14 6 182 -157 211 -206 43 -71 9 -57 -76 31 -48 50 -114 111 -147 136 -33 25
-64 49 -69 54 -16 13 16 9 43 -6z m-2057 -61 c8 -14 2 -12 -21 9 -17 17 -31
34 -31 39 0 14 39 -23 52 -48z m1568 -21 c0 -7 10 -18 23 -27 13 -8 51 -69 86
-136 63 -123 77 -166 20 -66 -17 30 -37 58 -43 63 -17 9 -112 170 -121 202
l-6 25 20 -25 c11 -14 21 -30 21 -36z m-646 -32 c31 -30 54 -58 51 -62 -3 -5
0 -12 6 -16 8 -4 9 -3 5 4 -4 7 -3 12 2 12 6 0 30 -24 53 -52 24 -29 46 -55
49 -58 3 -3 24 -27 45 -55 l40 -49 -35 26 c-19 15 -48 41 -64 59 -16 17 -60
55 -97 85 -65 51 -87 74 -74 74 3 0 17 -8 32 -17 21 -14 25 -14 21 -3 -4 14
-53 55 -108 91 -24 16 -24 16 -3 15 12 0 46 -25 77 -54z m1470 10 c2 -4 -4 -8
-14 -8 -11 0 -17 2 -15 4 2 3 -6 13 -18 24 l-22 19 32 -15 c17 -9 34 -19 37
-24z m-1178 -136 c29 -62 31 -96 3 -43 -11 20 -22 37 -24 37 -3 0 1 -13 10
-30 24 -47 17 -47 -14 1 -16 24 -27 47 -25 51 3 4 -1 8 -9 8 -8 0 -22 9 -32
20 -10 11 -14 20 -10 20 4 0 1 8 -9 19 -18 20 -31 65 -15 56 5 -4 9 -1 9 5 0
21 93 -94 116 -144z m-686 69 c6 4 9 1 8 -7 -2 -7 5 -13 14 -13 9 0 20 -4 25
-9 5 -5 2 -6 -7 -2 -8 4 -3 -2 13 -14 31 -24 92 -109 84 -116 -3 -3 -15 5 -27
18 -13 13 -19 17 -15 10 6 -11 3 -12 -14 -3 -11 7 -21 15 -21 19 0 4 -17 18
-38 32 -20 13 -53 37 -72 52 -19 16 -39 28 -45 28 -11 0 -38 37 -41 57 -1 7
27 -3 62 -23 35 -19 68 -33 74 -29z m1871 31 c8 4 9 3 5 -4 -9 -16 69 -91 125
-120 43 -22 34 -10 -17 26 -16 11 -16 12 -2 8 10 -3 20 -1 23 4 4 6 12 10 18
10 7 0 6 -4 -3 -10 -13 -8 -12 -12 8 -25 34 -25 122 -161 122 -189 0 -29 8
-33 -85 44 -23 19 -85 71 -138 114 -54 43 -97 81 -97 84 0 2 8 -1 18 -8 9 -7
-4 8 -30 33 -53 50 -59 62 -27 52 16 -5 19 -4 13 6 -4 7 7 3 24 -10 18 -12 37
-19 43 -15z m-1720 -3 c13 -16 12 -17 -3 -4 -17 13 -22 21 -14 21 2 0 10 -8
17 -17z m1481 -58 c3 3 11 -1 18 -10 26 -31 1 -25 -65 17 -37 23 -63 44 -56
46 6 2 8 9 4 15 -4 7 16 -7 44 -30 27 -23 52 -40 55 -38z m-638 49 c3 -8 2
-12 -4 -9 -6 3 -10 10 -10 16 0 14 7 11 14 -7z m-603 -91 c13 -16 12 -17 -3
-4 -17 13 -22 21 -14 21 2 0 10 -8 17 -17z m612 -55 c52 -74 60 -88 53 -88 -3
0 -22 25 -42 55 -21 31 -41 52 -48 48 -6 -3 -8 -3 -4 2 4 4 3 16 -3 26 -20 39
1 17 44 -43z m837 -3 c29 -48 41 -92 25 -92 -7 0 -11 6 -8 12 2 7 -10 33 -26
58 -33 48 -36 57 -22 57 5 0 19 -16 31 -35z m-1850 4 c17 -13 18 -17 5 -10
-33 17 -51 31 -40 31 6 0 21 -10 35 -21z m265 -57 c-5 -5 -95 66 -95 74 0 2
22 -12 50 -33 27 -20 47 -39 45 -41z m1082 56 c-3 -8 -6 -5 -6 6 -1 11 2 17 5
13 3 -3 4 -12 1 -19z m-841 -65 c1 -19 -2 -17 -45 26 -22 22 -33 37 -24 34 12
-5 14 -3 8 8 -4 8 8 -2 26 -21 19 -19 35 -41 35 -47z m769 29 c-3 -3 -16 5
-28 17 l-22 23 28 -17 c15 -10 25 -20 22 -23z m477 1 c3 -5 3 -2 2 5 -2 6 0
12 4 12 5 0 14 -6 21 -12 11 -11 12 -10 6 1 -5 9 -4 12 4 7 19 -12 39 -58 49
-114 8 -42 7 -56 -5 -67 -8 -8 -11 -20 -7 -26 4 -8 3 -9 -4 -5 -7 4 -12 2 -12
-3 0 -6 6 -11 14 -11 18 0 26 -52 26 -166 0 -101 -8 -157 -21 -148 -5 3 -8 -5
-6 -17 1 -12 -4 -23 -11 -25 -7 -1 -8 0 -2 3 5 2 10 9 10 14 0 6 -5 7 -12 3
-6 -4 -8 -3 -4 4 3 6 -3 13 -14 17 -11 4 -27 16 -35 28 -13 20 -68 298 -60
305 6 6 36 -109 41 -161 3 -29 8 -54 11 -57 5 -5 -1 82 -13 180 l-5 45 15 -30
14 -30 7 43 c7 38 9 40 20 25 29 -40 21 -3 -16 72 -21 44 -43 92 -48 108 -9
25 -8 26 9 17 10 -5 20 -13 22 -17z m-1672 -13 c8 -5 11 -10 5 -10 -5 0 -21
10 -35 21 -24 20 -5 13 30 -11z m2323 -55 l30 -40 -39 40 c-21 22 -48 51 -59
65 l-20 25 29 -25 c15 -14 42 -43 59 -65z m-2396 32 c-8 -6 -9 -10 -1 -13 6
-2 39 -27 75 -54 57 -43 65 -47 76 -32 10 13 10 19 -2 32 -9 10 -17 27 -20 39
-3 18 -1 20 16 11 10 -6 19 -8 19 -4 0 3 17 -14 38 -39 20 -25 69 -74 107
-110 75 -68 98 -117 47 -94 -39 16 -74 38 -99 61 -13 11 -23 16 -23 12 0 -4
-26 13 -57 37 -32 24 -78 57 -103 73 -25 16 -51 34 -58 41 -7 7 -21 17 -30 23
-13 8 -14 13 -4 17 10 4 10 8 0 21 -12 14 -11 14 9 1 16 -10 19 -16 10 -22z
m1678 3 c7 0 15 -8 18 -17 3 -10 10 -33 15 -50 17 -55 -6 -49 -33 9 -14 29
-24 60 -24 68 0 10 2 11 6 3 2 -7 11 -13 18 -13z m-800 -92 c5 2 7 0 3 -3 -4
-4 -1 -17 7 -29 19 -26 19 -36 -1 -36 -8 0 -13 4 -10 9 6 9 -62 103 -83 116
-6 3 -16 16 -22 28 -6 12 13 -3 42 -33 29 -30 58 -53 64 -52z m482 80 c-3 -8
-6 -5 -6 6 -1 11 2 17 5 13 3 -3 4 -12 1 -19z m-756 -29 l24 -20 -30 17 c-39
24 -40 24 -28 24 6 0 21 -9 34 -21z m-512 -95 c85 -45 132 -98 130 -148 -1
-17 -3 -23 -6 -13 -2 10 -12 16 -21 15 -10 -2 -16 3 -14 10 2 9 -4 9 -21 -3
-22 -14 -25 -13 -53 18 -25 27 -25 29 -3 9 22 -19 27 -20 32 -8 4 9 -8 26 -31
46 -20 17 -49 43 -64 58 -17 17 -28 22 -28 13 0 -8 -9 -3 -20 12 -11 14 -20
34 -20 45 0 11 -7 22 -15 26 -8 3 -15 11 -15 18 0 7 17 -4 38 -24 20 -19 70
-53 111 -74z m1912 49 c17 -18 36 -60 52 -117 23 -79 24 -92 11 -110 -8 -11
-14 -32 -15 -46 0 -15 -3 -19 -6 -10 -9 22 -60 91 -70 93 -4 1 -7 8 -7 15 1 6
-2 12 -6 12 -9 0 -36 61 -32 73 1 4 -2 7 -6 7 -5 0 -14 18 -21 41 -7 23 -15
48 -18 57 -4 10 -2 13 5 8 7 -4 12 -1 12 8 0 36 55 20 101 -31z m312 -9 c-8
-22 -23 -6 -23 24 1 25 2 26 15 9 7 -11 11 -25 8 -33z m-982 19 c13 -16 12
-17 -3 -4 -17 13 -22 21 -14 21 2 0 10 -8 17 -17z m59 -18 c0 -5 -5 -3 -10 5
-5 8 -10 20 -10 25 0 6 5 3 10 -5 5 -8 10 -19 10 -25z m-10 -60 c0 -11 -14 7
-31 40 -7 13 -3 12 10 -5 11 -14 21 -29 21 -35z m968 19 c-4 -3 -12 5 -18 18
-12 22 -12 22 6 6 10 -10 15 -20 12 -24z m-2377 -64 c25 -52 40 -110 29 -110
-4 0 -11 7 -14 16 -3 8 -10 12 -16 9 -5 -3 -7 0 -4 9 3 9 -3 19 -16 26 -13 7
-19 17 -16 26 3 8 2 13 -3 10 -9 -6 -25 54 -16 62 3 3 5 0 5 -6 0 -7 5 -12 10
-12 6 0 4 14 -5 33 l-16 32 20 -25 c11 -14 30 -45 42 -70z m1952 -15 c47 -94
79 -196 66 -211 -16 -19 -33 -18 -25 2 3 8 2 13 -3 9 -13 -8 -84 92 -75 106 4
7 3 9 -4 5 -6 -3 -15 9 -23 31 -8 24 -8 38 -2 40 6 2 7 20 2 46 -4 23 -5 45
-3 49 8 13 40 -25 67 -77z m368 68 c13 -16 12 -17 -3 -4 -10 7 -18 15 -18 17
0 8 8 3 21 -13z m-65 -27 c41 -51 76 -143 69 -178 l-7 -29 -70 68 c-38 37 -76
81 -85 97 -13 26 -13 29 4 45 10 10 25 15 32 13 8 -3 11 0 7 7 -17 27 26 8 50
-23z m-2649 -53 c3 -21 6 -48 7 -60 0 -11 5 -19 10 -16 5 3 6 -7 4 -22 -3 -15
-2 -41 3 -58 15 -53 -5 -18 -23 41 -24 77 -35 181 -18 165 7 -6 15 -29 17 -50z
m478 -23 c4 0 1 8 -6 18 -13 15 -12 16 3 3 10 -7 15 -18 12 -23 -7 -10 34 -58
49 -58 6 0 0 9 -13 20 -13 11 -19 20 -13 20 16 0 54 -46 46 -55 -5 -4 -3 -5 4
-1 12 7 89 -87 120 -148 10 -20 17 -25 23 -16 5 8 13 -3 23 -31 8 -24 23 -62
32 -84 13 -30 14 -36 3 -27 -8 6 -21 30 -28 52 -10 29 -16 37 -22 28 -6 -8 -7
0 -3 22 3 19 3 31 -2 25 -14 -17 -59 -12 -59 7 0 14 3 15 16 5 13 -11 13 -10
1 5 -7 10 -17 15 -22 12 -5 -3 -27 24 -50 60 -23 36 -43 66 -44 66 -2 0 10
-26 26 -57 16 -32 29 -62 29 -66 0 -17 -63 30 -101 75 -39 47 -49 65 -27 52 6
-4 -3 19 -20 51 -32 59 -34 89 -3 61 10 -9 21 -16 26 -16z m1342 8 c-3 -8 -6
-5 -6 6 -1 11 2 17 5 13 3 -3 4 -12 1 -19z m-1642 -33 l-7 30 24 -23 c14 -12
27 -19 31 -16 3 4 14 -10 23 -30 24 -48 8 -66 -29 -32 -14 13 -29 21 -32 18
-3 -4 -3 2 1 12 5 12 4 17 -3 13 -10 -6 -33 14 -48 43 -4 8 5 2 20 -15 l26
-30 -6 30z m1802 3 c-3 -8 -6 -5 -6 6 -1 11 2 17 5 13 3 -3 4 -12 1 -19z
m-1337 -61 c0 -5 -13 1 -30 13 -39 27 -39 34 0 12 16 -9 30 -21 30 -25z m1785
7 c9 -15 12 -23 6 -20 -11 7 -35 46 -28 46 3 0 12 -12 22 -26z m-1640 -14 c10
-11 16 -20 13 -20 -3 0 -13 9 -23 20 -10 11 -16 20 -13 20 3 0 13 -9 23 -20z
m-46 -52 c-10 -7 -8 -7 9 -3 16 5 22 3 20 -7 -2 -7 4 -13 12 -13 8 0 14 6 12
13 -2 10 2 10 18 2 22 -12 27 -1 8 18 -9 9 -9 12 -1 12 7 0 15 -10 19 -22 12
-37 13 -48 2 -48 -6 0 -8 -6 -5 -14 4 -9 -11 -4 -36 12 -23 15 -50 32 -60 37
-10 6 -17 13 -15 17 2 4 -6 14 -17 23 -17 14 -16 14 14 -1 27 -12 31 -18 20
-26z m1348 10 c-3 -8 -6 -5 -6 6 -1 11 2 17 5 13 3 -3 4 -12 1 -19z m482 -41
c20 -18 23 -19 18 -4 -7 20 5 22 35 6 14 -7 18 -8 14 0 -5 7 2 7 23 0 30 -11
61 -66 76 -137 4 -18 10 -30 13 -28 8 4 8 1 18 -126 6 -88 6 -88 -17 -90 -66
-4 -116 12 -103 33 3 5 0 8 -7 7 -7 -2 -14 2 -14 7 -3 21 -17 45 -24 40 -10
-6 -34 63 -26 75 3 5 2 10 -2 10 -5 0 -9 17 -10 38 -3 59 -9 86 -32 131 -12
23 -19 46 -16 52 4 5 1 8 -6 7 -6 -2 -14 3 -16 10 -7 18 45 -3 76 -31z m-2536
-28 c-8 -8 -13 -7 -18 2 -6 8 -4 10 5 4 10 -6 12 -4 6 11 -6 15 -5 17 5 7 9
-10 10 -16 2 -24z m2074 -76 c-2 -21 -4 -6 -4 32 0 39 2 55 4 38 2 -18 2 -50
0 -70z m-1573 -64 l19 -33 -31 22 c-50 36 -131 134 -124 151 4 11 20 -1 61
-46 31 -33 65 -76 75 -94z m-572 68 c7 -14 5 -24 -8 -39 -17 -18 -19 -18 -31
-2 -18 25 -17 48 3 40 14 -5 15 0 10 31 -5 34 -4 35 5 13 6 -14 15 -33 21 -43z
m922 6 c13 -27 26 -59 30 -73 l7 -25 -16 25 c-10 16 -14 18 -11 6 6 -18 18
-69 31 -129 3 -15 9 -26 14 -23 4 3 8 0 8 -7 0 -7 3 -23 8 -37 8 -25 8 -25
-14 -6 -11 11 -21 24 -21 30 0 17 -56 76 -64 68 -4 -4 -7 -2 -6 3 5 22 -1 36
-12 29 -7 -5 -8 -3 -3 5 4 7 -1 22 -13 34 -20 22 -45 67 -61 110 l-9 24 49
-26 c34 -19 50 -34 54 -53 4 -15 13 -33 22 -40 14 -11 14 -9 -1 22 -9 19 -24
49 -33 65 l-16 30 21 -19 c12 -11 22 -14 22 -8 0 6 -4 14 -10 17 -5 3 -10 10
-10 16 0 19 10 7 34 -38z m-977 15 c-3 -8 -6 -5 -6 6 -1 11 2 17 5 13 3 -3 4
-12 1 -19z m-1903 -85 c-37 -66 -54 -89 -54 -77 0 12 69 124 77 124 3 0 -7
-21 -23 -47z m4120 -2 c-4 -23 -9 -40 -11 -37 -3 3 -2 23 2 46 4 23 9 39 11
37 3 -2 2 -23 -2 -46z m-2260 -37 c3 -8 2 -12 -4 -9 -6 3 -10 10 -10 16 0 14
7 11 14 -7z m966 -10 c0 -8 -19 -13 -24 -6 -3 5 1 9 9 9 8 0 15 -2 15 -3z
m-490 -97 c5 -12 9 -17 10 -12 0 6 9 -6 19 -25 11 -21 14 -40 9 -47 -8 -11 14
-83 26 -83 3 0 -2 16 -10 35 -21 51 -16 57 7 7 10 -24 16 -48 13 -54 -10 -15
5 -60 18 -52 8 5 9 1 5 -11 -4 -9 -3 -23 3 -29 13 -17 35 -149 27 -169 -3 -9
-11 -17 -16 -17 -6 0 -8 6 -5 13 2 7 -2 27 -11 43 -8 16 -15 37 -15 47 0 11
-4 15 -12 11 -6 -4 -8 -3 -5 3 4 6 -5 44 -19 85 -14 40 -38 114 -53 163 -15
50 -31 101 -35 113 -7 22 -6 23 14 12 11 -6 25 -21 30 -33z m114 -10 c6 6 10
-12 7 -29 0 -5 4 -8 9 -8 6 0 5 -8 -2 -20 -12 -18 -13 -18 -30 7 -9 15 -15 30
-12 35 3 4 0 18 -6 30 l-11 23 19 -22 c11 -12 22 -19 26 -16z m53 1 c-3 -8 -6
-5 -6 6 -1 11 2 17 5 13 3 -3 4 -12 1 -19z m2108 2 c3 -5 1 -10 -4 -10 -6 0
-11 5 -11 10 0 6 2 10 4 10 3 0 8 -4 11 -10z m-4598 -51 c-5 -17 -3 -18 10 -7
9 7 2 -15 -16 -52 -22 -44 -25 -57 -12 -40 30 37 26 3 -5 -37 -14 -18 -22 -33
-19 -33 3 0 -7 -12 -22 -26 -26 -24 -28 -25 -31 -7 -5 35 75 223 95 223 3 0 3
-9 0 -21z m2523 0 c0 -6 -4 -7 -10 -4 -5 3 -10 11 -10 16 0 6 5 7 10 4 6 -3
10 -11 10 -16z m339 -77 c18 -30 26 -52 19 -50 -6 2 -27 33 -46 69 -41 75 -19
59 27 -19z m-389 64 c0 -3 -4 -8 -10 -11 -5 -3 -10 -1 -10 4 0 6 5 11 10 11 6
0 10 -2 10 -4z m465 -37 c11 -12 14 -19 7 -15 -8 5 0 -11 17 -34 17 -24 31
-55 31 -69 0 -25 -1 -26 -13 -5 -6 12 -31 46 -53 75 -60 78 -50 118 11 48z
m-377 -14 c-3 -3 -9 2 -12 12 -6 14 -5 15 5 6 7 -7 10 -15 7 -18z m-2665 -49
c-9 -17 -17 -40 -17 -51 -1 -12 -7 -19 -16 -17 -8 2 -12 0 -8 -3 16 -16 -49
-102 -70 -94 -5 2 2 29 16 59 14 30 25 58 24 61 -1 8 37 44 47 44 3 0 7 5 7
10 1 6 2 13 3 16 0 3 7 6 15 6 13 0 12 -5 -1 -31z m2514 -38 c-3 -8 -6 -5 -6
6 -1 11 2 17 5 13 3 -3 4 -12 1 -19z m-1316 -143 c17 -36 34 -65 36 -65 3 0 3
26 0 59 l-4 59 41 -19 c23 -10 52 -28 65 -41 14 -13 21 -16 16 -8 -4 8 3 6 16
-6 39 -34 48 -37 42 -12 -4 19 -3 20 6 8 6 -8 11 -11 11 -6 0 5 11 -1 25 -14
l25 -23 0 26 0 27 36 -38 c32 -34 35 -35 29 -12 l-6 25 20 -24 c12 -13 21 -37
21 -53 0 -24 3 -28 13 -20 7 6 18 7 26 3 10 -6 10 -27 3 -97 -6 -49 -9 -91 -7
-92 2 -2 11 10 20 28 25 47 26 33 4 -45 -25 -91 -24 -98 6 -50 35 57 31 40
-15 -59 -22 -47 -40 -88 -40 -91 0 -15 44 -25 71 -16 34 12 33 13 12 -30 -26
-54 -53 -89 -69 -89 -38 0 -174 -90 -249 -165 -44 -44 -87 -80 -95 -81 -8 -1
-30 -5 -48 -8 -26 -5 -32 -4 -26 6 6 10 5 10 -7 1 -8 -6 -43 -11 -79 -11 -36
0 -131 -1 -213 -2 -81 0 -152 2 -159 6 -6 4 -8 3 -5 -2 3 -6 -39 -9 -109 -9
-64 1 -117 -3 -120 -7 -3 -4 -13 -4 -22 0 -9 5 -27 7 -39 7 -22 -2 -22 -2 -6
26 10 16 23 29 31 29 7 0 11 4 8 9 -12 19 7 41 42 47 20 4 43 13 50 21 14 13
30 17 67 14 13 -1 16 1 8 6 -9 6 -2 14 20 26 18 10 38 30 45 45 21 47 65 103
72 91 4 -6 16 9 28 34 25 54 46 72 36 31 -12 -48 13 -18 32 39 16 47 18 49 24
27 l7 -25 12 28 c6 16 11 36 11 45 0 15 2 15 10 2 7 -11 10 -5 10 25 1 37 2
39 15 21 13 -17 15 -18 15 -3 0 9 4 17 9 17 5 0 15 16 23 36 l15 36 22 -28 22
-28 -6 45 c-4 24 -8 50 -11 57 -5 18 7 15 34 -10 l24 -23 -21 43 c-13 24 -20
46 -17 49 2 3 12 -9 21 -26 21 -41 29 -39 22 4 -3 21 -2 33 4 30 5 -4 9 2 9
11 0 10 7 26 16 36 16 16 16 22 1 74 l-16 57 26 -24 26 -24 -8 35 c-12 53 -14
100 -5 100 5 0 23 -29 41 -65z m3010 -101 c-16 -33 -30 -56 -31 -52 0 11 53
118 58 114 2 -2 -10 -30 -27 -62z m-1550 13 c-10 -9 -11 -8 -5 6 3 10 9 15 12
12 3 -3 0 -11 -7 -18z m39 -73 c11 -31 19 -61 18 -66 -2 -5 -15 20 -29 56 -15
36 -23 66 -18 66 4 0 17 -25 29 -56z m-677 -24 c3 -11 1 -18 -4 -14 -5 3 -9
12 -9 20 0 20 7 17 13 -6z m2147 0 c-6 -11 -13 -20 -16 -20 -2 0 0 9 6 20 6
11 13 20 16 20 2 0 0 -9 -6 -20z m-2153 -39 c-5 -2 -13 3 -18 10 -15 24 -10
30 9 12 10 -10 14 -20 9 -22z m478 -1 c-3 -5 -14 -10 -23 -9 -14 0 -13 2 3 9
27 11 27 11 20 0z m243 -71 c-3 -33 -4 -33 -8 8 -3 23 -2 39 3 34 5 -5 7 -24
5 -42z m1376 26 c-9 -14 -19 -23 -22 -20 -5 4 26 45 35 45 2 0 -4 -11 -13 -25z
m233 3 c-3 -8 -6 -5 -6 6 -1 11 2 17 5 13 3 -3 4 -12 1 -19z m-1426 -7 c1 16
5 8 14 -21 12 -44 12 -45 20 -17 l8 29 17 -39 c10 -21 19 -32 19 -25 1 7 12 1
26 -15 19 -22 24 -24 25 -10 0 27 16 20 30 -12 6 -16 23 -38 36 -48 13 -10 24
-25 24 -35 0 -26 11 -48 22 -42 6 4 6 -1 -1 -12 -10 -20 -24 -55 -25 -66 -1
-3 -5 -10 -10 -15 -5 -5 -6 -2 -1 6 5 9 3 12 -6 9 -8 -3 -14 -10 -14 -17 0 -6
-7 -16 -15 -21 -13 -9 -13 -10 0 -10 8 0 -1 -10 -20 -22 -19 -12 -38 -21 -41
-21 -13 4 -99 -96 -133 -154 -59 -100 -63 -84 -7 23 44 82 48 94 24 69 -15
-16 -34 -42 -42 -57 -8 -16 -18 -28 -22 -28 -4 0 -17 -16 -28 -36 -12 -20 -25
-34 -28 -31 -3 4 -2 12 3 20 5 7 1 5 -8 -6 -10 -10 -22 -16 -28 -12 -5 3 -10
3 -10 -2 0 -4 -28 -8 -63 -7 -34 0 -73 -3 -86 -8 -38 -14 -37 -1 2 37 20 19
35 41 33 48 -1 6 -1 9 1 5 10 -18 24 -6 18 13 -5 16 -4 19 6 14 9 -6 10 -3 5
11 -6 15 -5 17 5 7 28 -27 41 -15 34 30 l-7 42 25 -23 25 -24 17 26 c11 16 14
33 10 48 l-8 23 24 -20 24 -20 -24 28 c-30 33 -25 40 16 25 26 -10 34 -9 47 4
14 14 14 18 1 28 -21 18 -18 30 6 30 16 0 19 3 12 13 -15 18 -26 70 -13 62 15
-9 13 1 -10 45 -27 53 -25 65 7 41 34 -27 39 -21 17 21 -13 26 -14 30 -2 21
12 -10 15 -10 15 0 0 6 3 23 7 37 4 14 4 20 -1 13 -5 -7 -8 4 -8 28 0 40 0 40
17 19 l18 -22 1 23z m1628 -50 c-6 -34 -14 -60 -16 -57 -2 2 1 32 8 65 6 34
14 60 16 57 2 -2 -1 -32 -8 -65z m-4556 -56 c-3 -9 -8 -14 -10 -11 -3 3 -2 9
2 15 9 16 15 13 8 -4z m4531 -59 c-3 -21 -9 -35 -11 -32 -3 3 -2 21 1 42 4 20
10 34 12 31 3 -3 2 -21 -2 -41z m-4724 -149 c0 -2 -10 -12 -22 -23 l-23 -19
19 23 c18 21 26 27 26 19z m-571 -10 c-2 -1 -13 -9 -24 -17 -19 -14 -19 -14
-6 3 7 9 18 17 24 17 6 0 8 -1 6 -3z m-25 -52 c-4 -8 -11 -15 -16 -15 -6 0 -5
6 2 15 7 8 14 15 16 15 2 0 1 -7 -2 -15z m42 3 c4 -7 4 -10 -1 -6 -4 4 -15 2
-24 -5 -14 -11 -14 -10 -2 6 16 20 18 21 27 5z m3849 -25 c-47 -32 -61 -48
-137 -162 -63 -94 -80 -104 -22 -14 65 101 115 164 147 184 48 29 57 23 12 -8z
m-3735 -13 c0 -5 -5 -10 -11 -10 -5 0 -7 5 -4 10 3 6 8 10 11 10 2 0 4 -4 4
-10z m4766 -38 c-3 -69 -16 -83 -32 -36 -16 47 -18 67 -4 59 6 -3 10 0 10 7 0
9 3 9 10 -2 8 -13 10 -12 10 3 0 9 2 17 4 17 2 0 3 -22 2 -48z m-4872 13 c-9
-14 -18 -25 -21 -25 -5 0 5 18 20 38 17 22 18 13 1 -13z m-24 1 c0 -2 -7 -7
-16 -10 -8 -3 -12 -2 -9 4 6 10 25 14 25 6z m4940 -56 c-6 -33 -33 -90 -44
-90 -3 0 13 57 29 108 12 37 23 25 15 -18z m35 -47 c-2 -7 0 -15 5 -18 13 -8
13 -25 0 -25 -18 0 -31 51 -23 89 l7 36 7 -35 c5 -19 6 -40 4 -47z m-4915 57
c-8 -5 -19 -10 -25 -10 -5 0 -3 5 5 10 8 5 20 10 25 10 6 0 3 -5 -5 -10z
m4365 -10 c-10 -11 -21 -18 -23 -15 -3 3 3 12 14 20 27 20 30 18 9 -5z m145
16 c0 -2 -18 -15 -40 -30 -36 -24 -44 -23 -38 2 2 10 78 38 78 28z m115 -21
c-26 -22 -27 -24 -8 -22 12 0 19 5 17 9 -3 5 12 16 32 24 35 15 39 15 50 0 10
-15 12 -15 18 -1 8 21 23 19 36 -5 9 -16 5 -24 -20 -47 -50 -46 -60 -54 -60
-47 0 3 -11 -1 -25 -10 -31 -21 -41 -20 -24 0 10 13 2 11 -31 -6 -25 -13 -47
-23 -50 -22 -3 0 -4 -5 -2 -12 1 -7 -6 -19 -15 -27 -15 -11 -16 -11 -6 0 6 7
9 20 6 27 -3 8 0 21 7 29 6 8 8 20 4 26 -4 7 -3 9 4 5 10 -6 82 30 82 41 0 3
-16 -4 -35 -16 -34 -20 -35 -20 -32 -1 4 23 55 80 71 80 6 -1 -2 -12 -19 -25z
m-4545 -25 c-5 -10 -7 -20 -2 -23 4 -2 2 -3 -4 -1 -6 1 -18 -3 -25 -9 -7 -7
-6 -3 4 9 9 11 17 28 17 38 0 9 5 14 10 11 7 -4 7 -12 0 -25z m394 -7 c-10
-10 -25 -18 -33 -18 -9 -1 -15 -7 -13 -14 1 -7 -2 -10 -9 -5 -9 5 -10 2 -5
-12 4 -10 4 -15 0 -12 -4 4 -20 -9 -35 -30 -43 -56 -51 -64 -56 -59 -15 16
118 173 137 162 5 -3 12 0 15 6 4 5 9 8 12 5 3 -3 -3 -13 -13 -23z m-439 8 c3
-5 2 -12 -3 -15 -5 -3 -9 1 -9 9 0 17 3 19 12 6z m2435 -6 c-16 -19 -7 -19 28
-1 31 16 97 20 68 4 -9 -5 -14 -13 -12 -17 3 -4 -1 -8 -9 -8 -11 0 -12 4 -4
13 8 9 5 11 -10 7 -12 -3 -19 -9 -16 -13 3 -5 0 -12 -6 -16 -8 -4 -9 -3 -5 4
11 18 -15 14 -36 -5 -18 -16 -18 -16 -12 2 5 13 4 16 -4 11 -7 -4 -12 -3 -12
3 0 5 8 15 18 20 24 14 26 13 12 -4z m1639 -37 c-40 -52 -55 -69 -44 -48 14
27 70 98 74 94 2 -1 -11 -22 -30 -46z m835 6 c5 -14 4 -15 -9 -4 -17 14 -19
20 -6 20 5 0 12 -7 15 -16z m-2459 -23 c-3 -6 -11 -11 -17 -11 -6 0 -6 6 2 15
14 17 26 13 15 -4z m200 -1 c-3 -5 4 -6 16 -3 23 6 39 -11 38 -42 0 -15 -3
-13 -14 10 -11 25 -21 21 -16 -8 1 -5 -3 -6 -9 -2 -5 3 -18 1 -29 -5 -16 -8
-22 -7 -31 9 -8 16 -6 23 10 34 11 7 17 17 13 21 -4 4 0 4 10 0 9 -3 15 -10
12 -14z m2282 1 c0 -11 -5 -18 -9 -15 -4 3 -5 11 -1 19 7 21 12 19 10 -4z
m-2877 -41 c-17 -22 -34 -40 -37 -40 -6 0 10 22 41 58 32 37 30 25 -4 -18z
m2120 20 c-6 -11 -13 -20 -16 -20 -2 0 0 9 6 20 6 11 13 20 16 20 2 0 0 -9 -6
-20z m-3663 -31 c-16 -21 -16 -21 -14 -1 0 11 5 18 11 15 6 -4 6 1 2 13 -5 14
-4 16 5 7 9 -9 8 -17 -4 -34z m1133 -243 c-7 -7 -13 -7 -20 0 -6 6 -3 10 10
10 13 0 16 -4 10 -10z m-74 -8 c4 -7 3 -9 -1 -5 -5 4 -15 -3 -22 -15 -8 -15
-12 -18 -13 -7 0 8 5 20 12 27 15 15 15 15 24 0z m-252 -32 c-3 -7 2 -16 10
-19 9 -4 16 -2 16 3 0 12 22 9 32 -4 9 -13 -24 -55 -42 -55 -10 0 -11 2 -2 6
21 8 13 20 -13 18 -14 -2 -23 1 -20 5 3 5 12 7 20 3 8 -3 15 -1 15 5 0 16 -26
22 -40 9 -7 -7 -5 0 4 14 9 14 13 29 9 34 -5 4 -3 5 4 1 7 -4 10 -13 7 -20z
m571 14 c3 -5 1 -10 -4 -10 -6 0 -11 5 -11 10 0 6 2 10 4 10 3 0 8 -4 11 -10z
m-691 -12 c-5 -8 -2 -9 10 -5 10 4 15 3 11 -3 -4 -6 4 -20 17 -31 l23 -21 -24
16 c-23 14 -26 14 -42 0 -10 -9 -16 -21 -15 -27 2 -7 1 -9 -1 -4 -3 4 -9 5
-14 1 -20 -12 -7 9 16 28 14 11 22 24 19 29 -3 6 -14 1 -23 -10 -10 -11 -21
-18 -25 -14 -3 3 -7 1 -7 -5 -3 -27 -4 -31 -13 -39 -5 -5 -6 -3 -2 5 5 8 0 12
-16 13 -17 1 -19 2 -5 6 21 5 74 53 61 54 -5 0 0 4 11 9 27 12 27 12 19 -2z
m88 5 c-6 -2 -9 -10 -6 -15 4 -7 2 -8 -5 -4 -13 9 -5 26 12 25 9 0 8 -2 -1 -6z
m126 -41 c6 -2 12 2 13 10 0 7 4 4 8 -7 5 -12 4 -25 -2 -33 -8 -11 -16 -5 -33
24 -13 21 -20 42 -16 48 3 6 9 0 12 -13 3 -14 11 -26 18 -29z m238 2 c-4 -9
-9 -15 -11 -12 -3 3 -3 13 1 22 4 9 9 15 11 12 3 -3 3 -13 -1 -22z m-381 6 c3
-6 -1 -7 -9 -4 -18 7 -21 14 -7 14 6 0 13 -4 16 -10z m-180 -20 c-10 -11 -23
-20 -29 -19 -6 0 -6 3 2 6 6 2 9 10 6 15 -4 6 -2 8 4 4 6 -3 13 -2 17 4 3 5 9
10 12 10 3 0 -2 -9 -12 -20z m125 -10 c0 -5 -5 -10 -11 -10 -5 0 -7 5 -4 10 3
6 8 10 11 10 2 0 4 -4 4 -10z m-180 -26 c0 -2 -9 0 -20 6 -11 6 -20 13 -20 16
0 2 9 0 20 -6 11 -6 20 -13 20 -16z m205 16 c3 -5 1 -10 -4 -10 -6 0 -11 5
-11 10 0 6 2 10 4 10 3 0 8 -4 11 -10z m-148 -25 c0 -8 -4 -12 -9 -9 -4 3 -8
9 -8 15 0 5 4 9 8 9 5 0 9 -7 9 -15z m116 0 c-3 -9 -8 -14 -10 -11 -3 3 -2 9
2 15 9 16 15 13 8 -4z"/>
<path d="M3197 3169 c7 -7 15 -10 18 -7 3 3 -2 9 -12 12 -14 6 -15 5 -6 -5z"/>
<path d="M3401 3106 c8 -6 99 -35 99 -31 0 7 -71 35 -88 35 -8 0 -13 -2 -11
-4z"/>
<path d="M2937 3189 c7 -7 15 -10 18 -7 3 3 -2 9 -12 12 -14 6 -15 5 -6 -5z"/>
<path d="M1610 3290 c-34 -7 -34 -7 -5 -8 17 0 44 4 60 8 27 7 27 8 5 8 -14
-1 -41 -4 -60 -8z"/>
<path d="M1645 3270 c-28 -7 -27 -8 13 -9 27 -1 41 3 37 9 -7 11 -7 11 -50 0z"/>
<path d="M1605 3240 c3 -5 18 -10 32 -10 32 0 28 5 -10 14 -19 4 -26 3 -22 -4z"/>
<path d="M1540 3200 c-8 -5 -10 -10 -5 -10 6 0 17 5 25 10 8 5 11 10 5 10 -5
0 -17 -5 -25 -10z"/>
<path d="M3978 2903 c14 -26 121 -133 133 -133 5 0 -6 15 -24 33 -18 17 -52
52 -76 77 -24 25 -39 35 -33 23z"/>
<path d="M3890 2904 c0 -1 8 -8 17 -15 9 -8 14 -9 10 -2 -4 6 -1 13 5 16 7 3
3 4 -9 4 -13 -1 -23 -2 -23 -3z"/>
<path d="M5020 2846 c0 -2 14 -14 30 -26 17 -12 30 -19 30 -16 0 2 -13 14 -30
26 -16 12 -30 19 -30 16z"/>
<path d="M4680 2810 c0 -9 6 -22 12 -28 10 -10 10 -14 0 -21 -9 -5 -4 -15 18
-36 16 -16 30 -25 30 -19 -1 17 -59 119 -60 104z"/>
<path d="M3184 2358 l-1 -83 9 64 c6 36 6 72 2 82 -6 13 -9 -9 -10 -63z"/>
<path d="M3340 2766 c0 -2 7 -9 15 -16 9 -7 15 -8 15 -2 0 5 -7 12 -15 16 -8
3 -15 4 -15 2z"/>
<path d="M3331 2743 c7 -12 15 -20 18 -17 3 2 -3 12 -13 22 -17 16 -18 16 -5
-5z"/>
<path d="M4415 2670 c9 -16 18 -30 21 -30 2 0 -2 14 -11 30 -9 17 -18 30 -21
30 -2 0 2 -13 11 -30z"/>
<path d="M5154 2681 c4 -6 16 -16 28 -22 15 -8 18 -8 14 0 -4 6 -16 16 -28 22
-15 8 -18 8 -14 0z"/>
<path d="M3714 2028 c-4 -7 -4 -10 1 -6 4 4 15 2 24 -5 14 -11 14 -10 2 6 -16
20 -18 21 -27 5z"/>
<path d="M2840 1908 c0 -4 5 -8 11 -8 5 0 7 -5 3 -12 -4 -7 -3 -8 4 -4 17 10
15 33 -3 33 -8 0 -15 -4 -15 -9z"/>
<path d="M3716 1920 c12 -24 84 -130 89 -130 7 0 -45 85 -70 115 -15 17 -23
23 -19 15z"/>
<path d="M779 1513 c-13 -16 -12 -17 4 -4 9 7 17 15 17 17 0 8 -8 3 -21 -13z"/>
<path d="M1505 140 c-3 -5 -1 -10 4 -10 6 0 11 5 11 10 0 6 -2 10 -4 10 -3 0
-8 -4 -11 -10z"/>
<path d="M2478 3843 c6 -2 18 -2 25 0 6 3 1 5 -13 5 -14 0 -19 -2 -12 -5z"/>
<path d="M4817 3835 c-11 -7 -27 -12 -38 -10 -10 2 -24 -4 -31 -14 -7 -10 -20
-20 -28 -24 -9 -3 -5 -6 11 -6 22 -1 109 50 109 64 0 7 -3 6 -23 -10z m-47
-25 c0 -5 -5 -10 -11 -10 -5 0 -7 5 -4 10 3 6 8 10 11 10 2 0 4 -4 4 -10z"/>
<path d="M2630 3825 c-14 -8 -20 -14 -14 -15 5 0 19 7 30 15 24 18 16 19 -16
0z"/>
<path d="M5825 3820 c3 -5 8 -10 11 -10 2 0 4 5 4 10 0 6 -5 10 -11 10 -5 0
-7 -4 -4 -10z"/>
<path d="M2879 3783 c-64 -47 -94 -54 -115 -25 -13 16 -13 16 -14 0 0 -21 39
-33 75 -24 14 4 40 20 58 36 35 32 33 40 -4 13z"/>
<path d="M2616 3749 c4 -8 0 -9 -15 -4 -12 4 -21 2 -21 -4 0 -13 39 -14 58 -2
11 7 10 10 -3 15 -23 9 -27 8 -19 -5z"/>
<path d="M2668 3753 c7 -3 16 -2 19 1 4 3 -2 6 -13 5 -11 0 -14 -3 -6 -6z"/>
<path d="M3478 3753 c7 -3 16 -2 19 1 4 3 -2 6 -13 5 -11 0 -14 -3 -6 -6z"/>
<path d="M5829 3733 c-13 -16 -12 -17 4 -4 16 13 21 21 13 21 -2 0 -10 -8 -17
-17z"/>
<path d="M2840 3710 c-9 -6 -10 -10 -3 -10 6 0 15 5 18 10 8 12 4 12 -15 0z"/>
<path d="M4728 3713 c6 -2 18 -2 25 0 6 3 1 5 -13 5 -14 0 -19 -2 -12 -5z"/>
<path d="M5848 3703 c7 -3 16 -2 19 1 4 3 -2 6 -13 5 -11 0 -14 -3 -6 -6z"/>
<path d="M1928 3673 c7 -3 16 -2 19 1 4 3 -2 6 -13 5 -11 0 -14 -3 -6 -6z"/>
<path d="M2752 3669 c10 -6 -84 -19 -167 -23 -32 -1 -45 7 -27 17 4 2 1 2 -6
0 -8 -1 -21 -3 -30 -3 -9 0 5 -13 31 -30 26 -16 58 -30 72 -30 13 0 25 -6 28
-12 5 -17 127 -16 190 1 69 20 51 24 -24 6 -81 -19 -91 -19 -55 0 15 8 33 12
40 8 6 -3 7 -2 3 2 -4 5 3 15 15 23 23 13 23 13 -5 7 -27 -5 -27 -5 -13 17 15
23 15 23 -24 23 -21 0 -34 -3 -28 -6z"/>
<path d="M3327 3606 c-7 -19 -3 -22 48 -30 29 -5 36 -4 25 3 -12 9 -10 11 10
12 23 1 23 2 -5 9 -16 5 -40 11 -51 15 -14 4 -23 2 -27 -9z"/>
<path d="M5907 3606 c-4 -10 -1 -13 8 -9 8 3 12 9 9 14 -7 12 -11 11 -17 -5z"/>
<path d="M2900 3590 c-49 -17 -50 -18 -15 -13 41 6 112 33 85 32 -8 -1 -40 -9
-70 -19z"/>
<path d="M3285 3602 c-6 -5 -38 -17 -73 -27 -35 -10 -65 -22 -68 -27 -3 -4
-11 -8 -17 -8 -7 0 -6 4 3 10 24 15 8 18 -80 12 l-85 -6 70 -9 c39 -4 81 -9
95 -10 14 -1 27 -5 30 -8 10 -12 53 -22 46 -10 -7 10 69 64 90 64 7 0 10 6 7
14 -6 15 -6 15 -18 5z"/>
<path d="M3596 3592 c-4 -7 -16 -12 -27 -12 -25 0 -25 -16 1 -23 11 -3 18 -1
14 4 -9 15 14 11 108 -21 50 -17 93 -28 96 -25 3 3 0 5 -7 5 -7 0 -9 5 -5 12
4 6 3 8 -4 4 -14 -9 -144 34 -158 53 -8 10 -13 11 -18 3z"/>
<path d="M5963 3563 c-3 -10 -8 -21 -10 -25 -10 -19 6 -5 21 17 9 14 12 25 6
25 -6 0 -13 -8 -17 -17z"/>
<path d="M6002 3567 c-17 -23 -23 -37 -15 -36 4 1 19 1 32 0 21 -1 22 -3 10
-18 -13 -16 -12 -17 4 -4 9 8 15 16 12 19 -3 3 0 10 5 17 7 8 3 15 -14 23 -18
8 -27 8 -34 -1z m38 -19 c0 -7 -5 -6 -13 1 -8 6 -18 7 -22 3 -5 -4 -5 -2 -1 5
8 14 36 6 36 -9z"/>
<path d="M3420 3566 c0 -2 7 -7 16 -10 8 -3 12 -2 9 4 -6 10 -25 14 -25 6z"/>
<path d="M4848 3563 c6 -2 18 -2 25 0 6 3 1 5 -13 5 -14 0 -19 -2 -12 -5z"/>
<path d="M1928 3543 c6 -2 18 -2 25 0 6 3 1 5 -13 5 -14 0 -19 -2 -12 -5z"/>
<path d="M4305 3530 c10 -11 20 -20 23 -20 3 0 -3 9 -13 20 -10 11 -20 20 -23
20 -3 0 3 -9 13 -20z"/>
<path d="M3806 3511 c-3 -5 6 -14 22 -19 15 -5 35 -13 45 -17 10 -4 17 -3 17
4 0 6 -8 11 -18 11 -10 0 -27 7 -39 15 -12 8 -24 11 -27 6z"/>
<path d="M5938 3513 c7 -3 16 -2 19 1 4 3 -2 6 -13 5 -11 0 -14 -3 -6 -6z"/>
<path d="M4340 3500 c0 -5 5 -10 11 -10 5 0 7 5 4 10 -3 6 -8 10 -11 10 -2 0
-4 -4 -4 -10z"/>
<path d="M1908 3483 c7 -3 16 -2 19 1 4 3 -2 6 -13 5 -11 0 -14 -3 -6 -6z"/>
<path d="M6005 3480 c-4 -6 -11 -7 -17 -4 -7 4 -8 2 -4 -5 6 -9 11 -9 22 0 14
11 18 19 10 19 -3 0 -8 -5 -11 -10z"/>
<path d="M1968 3473 c12 -2 30 -2 40 0 9 3 -1 5 -23 4 -22 0 -30 -2 -17 -4z"/>
<path d="M6060 3471 c0 -6 6 -11 13 -12 6 0 3 -4 -8 -9 -19 -8 -19 -9 3 -9 25
-1 29 11 7 29 -10 9 -15 9 -15 1z"/>
<path d="M6005 3441 c-3 -5 -2 -12 3 -15 5 -3 9 1 9 9 0 17 -3 19 -12 6z"/>
<path d="M175 3431 c3 -5 1 -13 -5 -16 -6 -4 -8 -16 -4 -27 4 -14 2 -18 -5
-14 -7 5 -9 1 -5 -9 6 -14 9 -13 22 6 12 18 13 23 1 30 -8 5 -11 9 -6 10 4 1
12 3 17 4 6 1 13 3 18 4 8 2 -19 21 -31 21 -5 0 -6 -4 -2 -9z"/>
<path d="M1953 3433 c9 -2 25 -2 35 0 9 3 1 5 -18 5 -19 0 -27 -2 -17 -5z"/>
<path d="M5295 3420 c-13 -5 -14 -9 -5 -9 8 0 24 4 35 9 13 5 14 9 5 9 -8 0
-24 -4 -35 -9z"/>
<path d="M6040 3420 c35 -24 54 -31 30 -11 -14 11 -29 21 -35 21 -5 0 -3 -5 5
-10z"/>
<path d="M1708 3403 c6 -2 18 -2 25 0 6 3 1 5 -13 5 -14 0 -19 -2 -12 -5z"/>
<path d="M1555 3390 l-30 -8 37 -1 c20 0 40 4 43 9 7 11 -6 11 -50 0z"/>
<path d="M1658 3393 c7 -3 16 -2 19 1 4 3 -2 6 -13 5 -11 0 -14 -3 -6 -6z"/>
<path d="M4490 3396 c0 -2 7 -7 16 -10 8 -3 12 -2 9 4 -6 10 -25 14 -25 6z"/>
<path d="M5078 3383 c7 -3 16 -2 19 1 4 3 -2 6 -13 5 -11 0 -14 -3 -6 -6z"/>
<path d="M6020 3386 c0 -2 7 -7 16 -10 8 -3 12 -2 9 4 -6 10 -25 14 -25 6z"/>
<path d="M6125 3380 c-4 -6 -14 -9 -24 -6 -12 5 -11 2 3 -9 12 -9 24 -11 29
-6 5 5 17 7 26 4 17 -7 16 -5 -11 15 -12 9 -18 10 -23 2z"/>
<path d="M6057 3355 c-4 -8 -1 -17 6 -21 7 -4 9 -4 5 1 -4 4 -3 14 3 22 7 8 8
13 1 13 -5 0 -12 -7 -15 -15z"/>
<path d="M183 3346 c5 -15 24 -18 24 -3 0 8 -6 14 -14 14 -7 0 -12 -5 -10 -11z"/>
<path d="M2867 3339 c7 -7 15 -10 18 -7 3 3 -2 9 -12 12 -14 6 -15 5 -6 -5z"/>
<path d="M6128 3330 c-14 -15 -14 -19 -2 -24 8 -3 13 0 11 7 -1 7 3 11 9 10 6
-1 11 5 11 13 0 18 -8 17 -29 -6z"/>
<path d="M59 3285 c-3 -2 -16 -6 -30 -8 -19 -3 -24 -10 -26 -35 -1 -32 5 -38
23 -24 5 4 1 -1 -9 -10 -12 -12 -17 -28 -15 -57 2 -23 3 -41 4 -41 0 0 15 13
34 30 18 16 36 27 39 24 5 -5 -12 -19 -34 -27 -5 -3 -7 -8 -3 -12 4 -4 19 0
34 9 24 16 25 19 9 36 -15 16 -15 18 0 24 23 9 27 8 19 -6 -5 -7 -3 -8 6 -3
10 6 10 11 -3 20 -10 7 -17 17 -17 22 0 6 -6 16 -14 23 -8 6 -12 18 -9 26 5
14 1 19 -8 9z m22 -84 c-6 -4 -18 -16 -27 -27 -14 -18 -15 -18 -4 4 6 12 8 26
5 31 -3 5 4 7 16 4 12 -4 16 -9 10 -12z"/>
<path d="M4470 3269 c0 -5 5 -7 10 -4 6 3 10 8 10 11 0 2 -4 4 -10 4 -5 0 -10
-5 -10 -11z"/>
<path d="M6147 3266 c-4 -10 -1 -13 8 -9 8 3 12 9 9 14 -7 12 -11 11 -17 -5z"/>
<path d="M6130 3225 c0 -4 8 -14 18 -21 9 -7 17 -18 17 -25 0 -7 7 -14 15 -16
9 -3 11 -1 5 4 -11 9 -18 33 -9 33 12 0 33 -28 26 -36 -4 -5 -3 -6 2 -1 6 4
10 15 11 25 1 13 -6 18 -24 17 -14 -1 -34 5 -43 13 -10 9 -18 12 -18 7z"/>
<path d="M5619 3151 c12 -12 28 -18 34 -14 5 3 7 2 4 -4 -7 -11 22 -39 62 -61
19 -11 25 -11 31 -2 5 8 19 11 36 7 25 -4 26 -3 12 7 -16 12 -15 14 8 26 21
12 29 12 46 1 11 -7 17 -8 14 -3 -3 6 0 13 6 15 7 3 0 6 -17 7 l-30 2 35 14
c32 13 25 14 -93 9 -80 -3 -137 -1 -150 6 -20 9 -20 9 2 -10z m148 -7 c-3 -3
-12 -4 -19 -1 -8 3 -5 6 6 6 11 1 17 -2 13 -5z m-77 -14 c0 -5 -5 -10 -11 -10
-5 0 -7 5 -4 10 3 6 8 10 11 10 2 0 4 -4 4 -10z"/>
<path d="M5993 3163 c9 -2 25 -2 35 0 9 3 1 5 -18 5 -19 0 -27 -2 -17 -5z"/>
<path d="M5930 3152 c0 -12 19 -26 26 -19 2 2 -2 10 -11 17 -9 8 -15 8 -15 2z"/>
<path d="M76 3124 c-19 -19 -30 -23 -35 -15 -11 18 -39 -19 -39 -51 1 -33 3
-34 30 -8 12 11 18 20 13 20 -4 0 0 9 10 20 10 11 23 20 29 20 6 0 3 -7 -6
-14 -21 -16 -23 -26 -5 -26 8 0 14 -7 14 -15 0 -8 -7 -15 -16 -15 -14 0 -14
-1 -1 -10 8 -5 15 -15 15 -21 0 -7 7 -14 15 -16 10 -3 11 -2 4 4 -6 4 -10 15
-9 23 6 33 10 45 20 53 6 5 3 7 -7 3 -20 -6 -34 9 -18 19 6 4 8 11 4 16 -3 6
2 17 12 24 11 8 14 15 9 15 -6 0 -23 -12 -39 -26z"/>
<path d="M5906 3122 c-2 -4 4 -8 14 -8 10 0 16 4 14 8 -3 4 -9 8 -14 8 -5 0
-11 -4 -14 -8z"/>
<path d="M477 3099 c-45 -23 -46 -27 -8 -21 16 2 31 -1 35 -6 4 -6 -2 -8 -16
-4 -17 4 -20 2 -15 -11 4 -12 2 -14 -11 -10 -15 6 -15 5 -3 -10 13 -17 15 -16
37 4 13 12 21 26 18 31 -3 5 2 15 11 22 31 22 -6 26 -48 5z"/>
<path d="M5430 3106 c0 -2 7 -7 16 -10 8 -3 12 -2 9 4 -6 10 -25 14 -25 6z"/>
<path d="M5576 3087 c3 -10 9 -15 12 -12 3 3 0 11 -7 18 -10 9 -11 8 -5 -6z"/>
<path d="M5818 3093 c7 -3 16 -2 19 1 4 3 -2 6 -13 5 -11 0 -14 -3 -6 -6z"/>
<path d="M5610 3050 c8 -5 20 -10 25 -10 6 0 3 5 -5 10 -8 5 -19 10 -25 10 -5
0 -3 -5 5 -10z"/>
<path d="M25 3030 c-11 -12 -20 -30 -22 -40 -2 -16 3 -20 26 -20 29 0 49 -24
30 -35 -5 -4 -12 1 -15 9 -7 18 -44 22 -44 4 0 -6 3 -8 6 -5 4 3 16 1 28 -5
11 -7 25 -12 30 -13 5 0 12 -7 15 -16 5 -14 8 -15 19 -3 11 12 10 14 -3 14
-10 0 -13 4 -8 13 11 18 13 38 2 31 -5 -3 -16 2 -25 11 -9 9 -22 14 -29 12 -6
-3 -12 1 -12 9 0 7 4 11 8 9 6 -5 21 36 15 42 -1 2 -11 -6 -21 -17z"/>
<path d="M53 3005 c0 -8 4 -15 9 -15 10 0 10 17 0 24 -5 3 -9 -1 -9 -9z"/>
<path d="M475 2990 c-3 -5 -15 -10 -25 -10 -10 0 -22 -4 -25 -10 -3 -6 1 -7 9
-4 9 3 16 1 16 -6 0 -15 17 -4 30 21 11 19 6 27 -5 9z"/>
<path d="M0 2919 c0 -5 6 -7 13 -3 8 5 8 2 -2 -9 -11 -15 -11 -17 2 -17 8 0
18 6 20 13 4 9 6 9 6 -1 1 -7 6 -10 11 -7 14 9 13 -8 -2 -23 -14 -14 -32 -16
-24 -4 3 5 -1 9 -9 9 -8 0 -15 -4 -15 -9 0 -4 5 -8 11 -8 8 0 8 -5 -1 -15 -9
-11 -9 -15 -1 -15 9 0 9 -5 1 -20 -6 -11 -7 -20 -3 -19 20 3 27 -2 13 -12 -10
-7 -11 -9 -2 -7 8 2 13 8 12 13 -2 14 33 24 48 12 10 -8 10 -13 0 -25 -9 -10
-9 -13 -1 -9 6 4 14 1 17 -5 2 -7 4 -3 2 10 -1 12 -7 27 -13 33 -6 6 -9 19 -6
28 4 14 3 14 -6 1 -7 -10 -11 -11 -11 -2 0 6 -5 12 -11 12 -6 0 -8 -7 -5 -16
3 -8 2 -13 -3 -9 -5 3 -12 -1 -15 -7 -2 -7 -4 -2 -3 12 2 30 16 41 40 34 9 -3
17 0 17 6 0 6 -5 8 -11 4 -7 -4 -9 0 -5 14 6 16 1 24 -23 36 -35 19 -41 19
-41 5z"/>
<path d="M96 2875 c-9 -26 -7 -32 5 -12 6 10 9 21 6 23 -2 3 -7 -2 -11 -11z"/>
<path d="M128 2873 c7 -3 16 -2 19 1 4 3 -2 6 -13 5 -11 0 -14 -3 -6 -6z"/>
<path d="M115 2850 c-3 -6 1 -7 9 -4 18 7 21 14 7 14 -6 0 -13 -4 -16 -10z"/>
<path d="M40 2763 c-17 -22 -23 -25 -30 -13 -6 8 -10 11 -10 5 0 -18 21 -41
26 -28 3 6 14 21 25 34 10 12 19 24 19 26 0 9 -11 0 -30 -24z"/>
<path d="M5762 2760 c15 -19 31 -34 37 -33 6 2 8 -4 5 -12 -4 -10 4 -18 23
-26 15 -6 47 -20 71 -30 31 -14 48 -17 60 -9 14 8 13 9 -8 10 -14 0 -20 4 -15
8 6 4 11 17 12 30 2 18 -3 24 -27 28 -16 4 -28 10 -25 13 2 4 -15 7 -39 7 -23
1 -48 4 -54 8 -7 4 -12 4 -12 0 0 -4 -12 3 -27 17 l-27 24 26 -35z"/>
<path d="M5630 2756 c0 -2 7 -7 16 -10 8 -3 12 -2 9 4 -6 10 -25 14 -25 6z"/>
<path d="M46 2717 c3 -10 9 -15 12 -12 3 3 0 11 -7 18 -10 9 -11 8 -5 -6z"/>
<path d="M16 2678 c0 -18 -4 -40 -9 -48 -5 -8 2 -2 17 13 14 15 26 33 26 39 0
7 -7 3 -15 -8 -14 -18 -14 -17 -5 9 7 20 6 27 -3 27 -7 0 -12 -13 -11 -32z"/>
<path d="M68 2639 c-2 -5 -12 -11 -23 -13 -26 -4 -21 -21 6 -21 15 0 23 7 25
23 4 23 -2 30 -8 11z"/>
<path d="M0 2596 c0 -2 7 -7 16 -10 8 -3 12 -2 9 4 -6 10 -25 14 -25 6z"/>
<path d="M105 2590 c-3 -5 -1 -10 4 -10 6 0 11 5 11 10 0 6 -2 10 -4 10 -3 0
-8 -4 -11 -10z"/>
<path d="M17 2556 c-24 -18 -22 -21 21 -23 26 -2 33 0 22 6 -8 5 -18 7 -24 4
-5 -4 -7 1 -3 10 8 20 7 20 -16 3z"/>
<path d="M20 2500 c0 -5 5 -10 11 -10 5 0 7 5 4 10 -3 6 -8 10 -11 10 -2 0 -4
-4 -4 -10z"/>
<path d="M18 2467 c8 -9 11 -20 8 -25 -3 -5 1 -9 9 -9 16 0 4 31 -18 43 -8 6
-8 3 1 -9z"/>
<path d="M5965 2350 c-3 -5 -1 -10 4 -10 6 0 11 5 11 10 0 6 -2 10 -4 10 -3 0
-8 -4 -11 -10z"/>
<path d="M13 2333 c0 -8 6 -9 19 -2 10 5 18 11 18 12 0 2 -8 3 -18 3 -10 0
-19 -6 -19 -13z"/>
<path d="M15 2270 c6 -30 16 -40 12 -12 -2 12 -6 24 -10 28 -3 4 -4 -4 -2 -16z"/>
<path d="M5810 2235 c13 -14 26 -25 28 -25 3 0 -5 11 -18 25 -13 14 -26 25
-28 25 -3 0 5 -11 18 -25z"/>
<path d="M45 2211 c-3 -5 0 -13 6 -17 7 -4 9 -3 5 4 -3 5 0 13 6 15 9 4 10 6
1 6 -6 1 -14 -3 -18 -8z"/>
<path d="M821 2050 c0 -8 4 -22 9 -30 12 -18 12 -2 0 25 -6 13 -9 15 -9 5z"/>
<path d="M895 1990 c-10 -11 -16 -22 -14 -24 2 -2 12 7 22 20 22 29 17 32 -8
4z"/>
<path d="M5 1950 c-3 -6 1 -7 9 -4 18 7 21 14 7 14 -6 0 -13 -4 -16 -10z"/>
<path d="M66 1938 c3 -5 10 -6 15 -3 13 9 11 12 -6 12 -8 0 -12 -4 -9 -9z"/>
<path d="M10 1890 c-9 -6 -10 -10 -3 -10 6 0 15 5 18 10 8 12 4 12 -15 0z"/>
<path d="M17 1786 c-16 -12 -15 -13 10 -13 16 0 22 2 15 4 -6 3 -10 9 -6 14 7
12 2 11 -19 -5z"/>
<path d="M15 1751 c-3 -5 -2 -12 3 -15 5 -3 9 1 9 9 0 17 -3 19 -12 6z"/>
<path d="M14 1571 c4 -5 0 -12 -6 -14 -8 -4 -7 -6 4 -6 9 -1 19 -7 22 -13 3
-7 3 -2 0 11 -5 17 -3 21 6 16 9 -5 11 -4 6 3 -4 7 -14 12 -22 12 -8 0 -13 -4
-10 -9z"/>
<path d="M10 1520 c0 -5 5 -10 11 -10 5 0 7 5 4 10 -3 6 -8 10 -11 10 -2 0 -4
-4 -4 -10z"/>
<path d="M599 1493 c-13 -16 -12 -17 4 -4 9 7 17 15 17 17 0 8 -8 3 -21 -13z"/>
<path d="M3 1483 c0 -9 4 -10 14 -2 7 6 13 12 13 14 0 1 -6 2 -13 2 -8 0 -14
-6 -14 -14z"/>
<path d="M23 1464 c-13 -14 -23 -30 -23 -34 0 -11 40 -34 47 -27 2 3 -5 8 -16
12 -27 8 -26 14 4 48 14 15 22 27 18 27 -4 0 -18 -12 -30 -26z"/>
<path d="M39 1373 c-12 -16 -12 -17 1 -7 8 6 22 14 30 17 13 5 12 6 -1 6 -9 1
-23 -7 -30 -16z"/>
<path d="M63 1355 c0 -8 4 -12 9 -9 5 3 6 10 3 15 -9 13 -12 11 -12 -6z"/>
<path d="M627 1303 c-4 -3 -7 -11 -7 -17 0 -6 5 -5 12 2 6 6 9 14 7 17 -3 3
-9 2 -12 -2z"/>
<path d="M8 1273 c7 -3 16 -2 19 1 4 3 -2 6 -13 5 -11 0 -14 -3 -6 -6z"/>
<path d="M44 1212 c-19 -16 -19 -19 -6 -32 14 -13 15 -12 9 3 -3 9 -2 17 2 17
5 0 11 7 15 15 7 19 6 18 -20 -3z"/>
<path d="M5 1162 c0 -16 7 -27 16 -27 7 0 18 -4 22 -10 5 -6 6 -2 3 9 -5 14
-2 17 9 12 10 -3 13 -2 10 5 -4 6 -14 8 -22 5 -20 -8 -39 4 -23 14 9 5 8 9 -3
13 -10 4 -13 -2 -12 -21z"/>
<path d="M0 1109 c0 -5 5 -7 10 -4 5 3 10 8 10 11 0 2 -4 4 -10 4 -5 0 -10 -5
-10 -11z"/>
<path d="M15 1090 c-17 -19 -19 -30 -6 -30 5 0 13 9 16 20 4 11 10 18 15 15 5
-3 11 -2 14 3 10 16 -24 9 -39 -8z"/>
<path d="M20 1058 c-17 -26 -21 -100 -6 -110 6 -4 6 -11 0 -20 -13 -16 -17
-78 -7 -79 5 0 18 -2 31 -3 23 -3 23 -2 -4 19 -24 19 -25 22 -10 28 10 4 22 5
26 2 11 -7 23 31 15 44 -3 6 -12 8 -20 4 -11 -4 -13 -1 -9 11 3 9 10 14 15 11
4 -3 13 4 19 15 6 11 16 17 22 14 7 -5 8 -2 3 6 -6 10 -13 8 -27 -10 l-19 -23
-6 21 c-5 19 -8 20 -22 10 -10 -8 -10 -5 3 10 19 22 32 30 21 13 -3 -5 -2 -12
3 -15 4 -2 9 6 10 19 1 18 -2 23 -13 19 -8 -4 -15 -1 -15 4 0 16 41 26 50 12
5 -8 10 -8 14 -2 6 11 -15 22 -42 22 -10 0 -24 -10 -32 -22z m10 -22 c0 -3 -4
-8 -10 -11 -5 -3 -10 -1 -10 4 0 6 5 11 10 11 6 0 10 -2 10 -4z m10 -60 c0 -2
-7 -7 -16 -10 -8 -3 -12 -2 -9 4 6 10 25 14 25 6z m12 -58 c-7 -7 -12 -8 -12
-2 0 14 12 26 19 19 2 -3 -1 -11 -7 -17z"/>
<path d="M166 778 c3 -5 10 -6 15 -3 13 9 11 12 -6 12 -8 0 -12 -4 -9 -9z"/>
<path d="M205 780 c-3 -5 -1 -10 4 -10 6 0 11 5 11 10 0 6 -2 10 -4 10 -3 0
-8 -4 -11 -10z"/>
<path d="M120 716 c0 -2 7 -7 16 -10 8 -3 12 -2 9 4 -6 10 -25 14 -25 6z"/>
<path d="M220 700 c0 -5 5 -10 11 -10 5 0 7 5 4 10 -3 6 -8 10 -11 10 -2 0 -4
-4 -4 -10z"/>
<path d="M239 668 c7 -9 10 -27 7 -40 l-6 -23 12 23 c10 19 8 26 -7 40 -18 16
-18 16 -6 0z"/>
<path d="M248 600 c-21 -20 -14 -30 19 -30 16 0 22 -4 17 -12 -4 -7 -3 -8 5
-4 18 11 3 26 -27 26 -25 0 -25 1 -6 14 10 8 17 16 14 19 -3 2 -13 -3 -22 -13z"/>
<path d="M290 600 c-9 -6 -10 -10 -3 -10 6 0 15 5 18 10 8 12 4 12 -15 0z"/>
<path d="M6196 597 c3 -10 9 -15 12 -12 3 3 0 11 -7 18 -10 9 -11 8 -5 -6z"/>
<path d="M326 473 c-6 -14 -5 -15 5 -6 7 7 10 15 7 18 -3 3 -9 -2 -12 -12z"/>
<path d="M370 459 c0 -5 5 -7 10 -4 6 3 10 8 10 11 0 2 -4 4 -10 4 -5 0 -10
-5 -10 -11z"/>
<path d="M5584 381 c4 -5 1 -11 -6 -13 -9 -3 -9 -6 0 -12 7 -4 12 -2 12 4 0 6
5 8 13 4 8 -5 8 -2 -2 9 -14 18 -26 23 -17 8z"/>
<path d="M2810 220 c-8 -5 -12 -12 -9 -15 4 -3 12 1 19 10 14 17 11 19 -10 5z"/>
<path d="M2495 211 c-3 -6 3 -9 14 -8 11 0 17 5 15 9 -7 11 -22 10 -29 -1z"/>
<path d="M2077 189 c7 -7 15 -10 18 -7 3 3 -2 9 -12 12 -14 6 -15 5 -6 -5z"/>
<path d="M1766 163 c-6 -14 -5 -15 5 -6 7 7 10 15 7 18 -3 3 -9 -2 -12 -12z"/>
<path d="M2196 163 c-6 -14 -5 -15 5 -6 7 7 10 15 7 18 -3 3 -9 -2 -12 -12z"/>
<path d="M1897 140 c-8 -11 -17 -17 -20 -13 -4 3 -7 2 -7 -4 0 -17 26 -23 40
-10 10 9 11 8 6 -8 -3 -11 -1 -27 5 -35 8 -11 9 -9 4 9 -7 21 -5 23 16 18 l24
-6 -25 19 c-13 10 -29 16 -34 13 -5 -3 -6 0 -4 8 3 8 11 13 17 11 7 -1 10 2 6
8 -9 14 -12 13 -28 -10z"/>
<path d="M2021 138 l-14 -23 24 20 c13 11 26 21 28 22 2 2 -2 3 -10 3 -8 0
-20 -10 -28 -22z"/>
<path d="M2130 136 c0 -2 7 -9 15 -16 9 -7 15 -8 15 -2 0 5 -7 12 -15 16 -8 3
-15 4 -15 2z"/>
<path d="M2219 138 c0 -2 -2 -13 -5 -26 -3 -19 -2 -21 10 -10 9 8 10 15 4 19
-6 4 -5 9 3 12 10 4 10 6 2 6 -7 1 -13 0 -14 -1z"/>
<path d="M2375 130 c-3 -6 1 -7 9 -4 18 7 21 14 7 14 -6 0 -13 -4 -16 -10z"/>
<path d="M2060 100 c-6 -11 -8 -20 -6 -20 3 0 10 9 16 20 6 11 8 20 6 20 -3 0
-10 -9 -16 -20z"/>
<path d="M2129 107 c17 -21 35 -22 51 -2 8 9 8 15 2 15 -6 0 -12 -6 -15 -12
-3 -10 -10 -10 -28 1 -22 13 -23 13 -10 -2z"/>
<path d="M1783 95 c0 -8 4 -12 9 -9 5 3 6 10 3 15 -9 13 -12 11 -12 -6z"/>
<path d="M1605 90 c3 -5 2 -10 -3 -10 -5 0 -8 -12 -6 -26 2 -26 14 -47 14 -26
0 6 11 19 24 27 20 13 29 14 47 5 19 -11 21 -10 16 4 -7 18 4 21 19 6 7 -7 18
-7 35 0 24 10 24 10 -3 5 -15 -3 -30 0 -33 5 -7 11 -42 9 -63 -3 -7 -5 -19 -2
-28 7 -17 18 -28 21 -19 6z"/>
<path d="M1803 76 c-13 -15 -18 -28 -13 -37 5 -7 6 -17 3 -23 -4 -5 -1 -6 6
-2 7 5 10 15 6 23 -3 9 2 26 10 39 20 31 14 31 -12 0z"/>
<path d="M1540 75 c0 -8 4 -15 10 -15 5 0 7 7 4 15 -4 8 -8 15 -10 15 -2 0 -4
-7 -4 -15z"/>
<path d="M1830 70 c-13 -8 -13 -10 2 -10 9 0 20 5 23 10 8 13 -5 13 -25 0z"/>
<path d="M2170 70 c0 -5 5 -10 11 -10 5 0 7 5 4 10 -3 6 -8 10 -11 10 -2 0 -4
-4 -4 -10z"/>
<path d="M1898 30 c2 -16 8 -27 13 -24 13 8 11 30 -4 43 -11 8 -13 5 -9 -19z"/>
<path d="M55 30 c-8 -13 -1 -24 14 -19 6 3 7 10 2 18 -6 10 -10 10 -16 1z"/>
<path d="M377 33 c-12 -12 -7 -33 8 -33 17 0 19 9 7 28 -5 7 -11 9 -15 5z"/>
<path d="M477 26 c-4 -10 0 -12 14 -9 10 3 16 9 13 14 -8 13 -21 11 -27 -5z"/>
<path d="M580 21 c0 -12 6 -21 16 -21 9 0 14 7 12 17 -5 25 -28 28 -28 4z"/>
<path d="M695 30 c-3 -5 3 -10 15 -10 12 0 18 5 15 10 -3 6 -10 10 -15 10 -5
0 -12 -4 -15 -10z"/>
<path d="M814 32 c4 -7 2 -12 -3 -12 -6 0 -11 -4 -11 -10 0 -5 7 -10 15 -10
18 0 20 26 3 36 -7 4 -8 3 -4 -4z"/>
<path d="M917 33 c-4 -3 -7 -12 -7 -20 0 -11 4 -11 20 -1 11 7 20 16 20 20 0
10 -24 10 -33 1z"/>
<path d="M970 29 c0 -5 5 -7 10 -4 6 3 10 8 10 11 0 2 -4 4 -10 4 -5 0 -10 -5
-10 -11z"/>
<path d="M1483 25 c0 -8 4 -12 9 -9 4 3 8 9 8 15 0 5 -4 9 -8 9 -5 0 -9 -7 -9
-15z"/>
<path d="M210 15 c0 -8 5 -15 10 -15 6 0 10 7 10 15 0 8 -4 15 -10 15 -5 0
-10 -7 -10 -15z"/>
<path d="M266 15 c8 -19 24 -19 24 0 0 8 -7 15 -15 15 -9 0 -12 -6 -9 -15z"/>
<path d="M1190 15 c0 -8 5 -15 10 -15 6 0 10 7 10 15 0 8 -4 15 -10 15 -5 0
-10 -7 -10 -15z"/>
<path d="M1246 23 c5 -5 12 -12 16 -18 4 -6 8 -2 8 8 0 9 -7 17 -17 17 -9 0
-12 -3 -7 -7z"/>
<path d="M1540 15 c0 -8 7 -15 15 -15 8 0 15 7 15 15 0 8 -7 15 -15 15 -8 0
-15 -7 -15 -15z"/>
<path d="M2753 15 c0 -8 4 -12 9 -9 5 3 6 10 3 15 -9 13 -12 11 -12 -6z"/>
<path d="M2715 10 c3 -5 8 -10 11 -10 2 0 4 5 4 10 0 6 -5 10 -11 10 -5 0 -7
-4 -4 -10z"/>
</g>
</svg>
