<?xml version="1.0" standalone="no"?>
<!DOCTYPE svg PUBLIC "-//W3C//DTD SVG 20010904//EN"
 "http://www.w3.org/TR/2001/REC-SVG-20010904/DTD/svg10.dtd">
<svg version="1.0" xmlns="http://www.w3.org/2000/svg"
 width="270.000000pt" height="270.000000pt" viewBox="0 0 270.000000 270.000000"
 preserveAspectRatio="xMidYMid meet">

<g transform="translate(0.000000,270.000000) scale(0.100000,-0.100000)"
fill="#000000" stroke="none">
<path d="M0 2653 c1 -47 2 -49 68 -98 36 -27 121 -89 188 -136 101 -71 119
-87 105 -96 -12 -8 -29 -1 -75 31 -32 22 -68 48 -80 56 -18 12 -63 45 -189
138 -17 13 -18 6 -16 -131 2 -137 3 -146 23 -156 l21 -10 -22 -7 c-14 -4 -23
-14 -23 -27 0 -20 1 -20 13 -3 22 29 180 36 163 7 -6 -9 13 -29 27 -29 5 0 12
-4 15 -8 4 -4 2 -4 -5 -1 -12 7 -11 -43 2 -74 3 -10 2 -20 -4 -24 -7 -4 -11 4
-11 18 0 20 -11 30 -50 51 -27 14 -53 26 -57 26 -5 -1 9 -10 30 -21 37 -19 38
-21 22 -39 -23 -25 -11 -42 20 -30 22 8 26 6 31 -16 10 -39 -3 -107 -23 -122
-11 -8 -32 -12 -57 -9 -26 4 -35 2 -28 -5 5 -5 28 -12 51 -15 26 -4 41 -11 41
-20 0 -7 7 -16 16 -20 9 -3 13 -12 10 -22 -4 -11 -1 -10 9 4 16 21 15 40 -3
40 -5 0 -13 3 -17 7 -9 8 70 21 92 14 10 -3 29 3 43 14 l25 20 -29 -10 c-41
-15 -42 -7 -2 21 19 13 42 36 51 51 9 15 29 35 45 43 37 19 41 19 33 -2 -5
-14 -3 -13 13 3 23 21 11 37 -20 28 -12 -4 -16 -2 -12 5 5 7 1 8 -9 4 -12 -4
-13 -8 -4 -13 8 -6 2 -13 -19 -24 -16 -8 -32 -21 -35 -28 -4 -8 -6 -7 -6 4 -1
9 3 20 9 23 5 3 15 15 20 25 8 16 8 18 -5 14 -8 -3 -12 -11 -8 -18 4 -8 3 -8
-6 0 -22 21 -3 40 36 36 30 -4 35 -2 30 11 -3 9 -2 19 3 22 11 7 61 -16 55
-26 -3 -4 3 -5 12 -3 10 2 26 -2 36 -10 17 -13 16 -18 -29 -78 -120 -161 -203
-416 -204 -623 0 -115 39 -309 84 -416 6 -13 -5 -21 -49 -39 -31 -12 -58 -20
-62 -17 -6 7 39 27 59 27 6 0 9 3 5 6 -3 3 -35 -4 -71 -16 -36 -12 -72 -20
-79 -17 -8 3 -20 0 -27 -6 -8 -8 -14 -8 -16 -2 -13 32 -31 59 -44 65 -8 4 -27
13 -42 21 -16 7 -28 19 -28 26 0 9 -5 11 -12 7 -7 -4 -4 2 6 14 11 12 16 25
13 29 -4 3 -7 1 -7 -5 0 -7 -7 -12 -15 -12 -8 0 -15 -6 -15 -14 0 -8 -3 -22
-6 -30 -4 -11 -2 -15 7 -11 8 3 20 1 28 -4 12 -8 12 -12 2 -25 -8 -9 -20 -16
-27 -16 -11 0 -14 -18 -14 -75 0 -41 3 -75 7 -75 3 0 48 23 99 50 68 37 104
50 133 50 33 0 41 -4 41 -18 0 -12 -29 -32 -92 -65 -135 -70 -172 -91 -180
-102 -15 -20 3 -16 59 15 65 35 50 20 -21 -22 l-47 -28 2 -85 c1 -59 5 -83 13
-78 6 4 45 29 86 57 l75 50 -39 -45 c-22 -24 -62 -64 -88 -87 l-48 -44 0 -185
c0 -144 3 -183 12 -177 10 6 11 4 1 -7 -7 -7 -13 -35 -13 -61 l0 -48 37 0 c20
0 46 8 57 17 20 17 20 17 7 1 -13 -17 -7 -18 95 -18 l109 0 45 77 c25 42 71
111 102 155 60 80 78 116 32 63 -24 -29 -25 -29 -19 -5 5 20 4 22 -4 9 -6 -9
-24 -22 -41 -29 -24 -10 -28 -15 -19 -26 14 -17 33 -19 23 -2 -4 6 -3 8 3 5 6
-4 14 0 17 9 4 9 9 14 12 11 7 -6 -33 -62 -44 -62 -4 0 -6 -4 -4 -8 1 -5 -3
-5 -9 -1 -8 4 -9 3 -5 -4 11 -19 -3 -34 -18 -20 -10 10 -9 15 7 29 13 10 16
18 10 22 -6 4 -16 0 -23 -8 -7 -8 -17 -15 -22 -15 -5 0 6 20 24 45 18 24 39
42 45 40 7 -2 12 0 10 5 -1 5 7 16 18 25 l20 17 -20 -8 c-11 -3 -28 -6 -37 -6
-9 0 -19 -6 -22 -13 -3 -8 -19 -21 -36 -30 -31 -16 -31 -16 -20 5 10 19 10 20
-9 8 -11 -6 -18 -15 -15 -19 2 -4 -1 -11 -7 -15 -8 -4 -9 -3 -5 4 11 18 -9 14
-24 -3 -7 -9 -15 -14 -17 -11 -3 2 31 41 75 85 89 90 97 104 76 121 -8 7 -14
19 -14 28 0 8 -3 13 -6 9 -4 -3 -2 -19 4 -36 9 -24 7 -32 -8 -46 -19 -17 -61
-17 -67 0 -1 6 8 24 22 40 19 23 24 25 20 10 -3 -11 2 -5 10 14 20 41 36 59
52 54 7 -3 9 3 6 15 -6 24 16 40 28 21 5 -8 9 -9 9 -3 0 5 -5 15 -12 22 -9 9
-8 12 6 12 9 0 14 5 11 11 -7 10 34 79 46 79 3 0 13 -8 22 -18 16 -17 15 -20
-3 -40 -12 -12 -16 -22 -11 -22 5 0 16 9 24 21 8 11 18 16 21 11 3 -5 -2 -16
-12 -24 -35 -30 -44 -31 -64 -7 -18 23 -19 23 -8 2 8 -18 7 -30 -5 -53 -21
-40 -13 -62 28 -81 l33 -15 -4 30 c-4 26 -2 28 17 23 11 -3 24 -1 27 4 8 13
24 1 24 -19 0 -15 -2 -15 -11 -2 -9 13 -10 12 -5 -2 6 -21 -4 -23 -24 -5 -8 6
-6 2 4 -10 l18 -22 19 22 c10 12 18 17 19 11 0 -19 -36 -45 -56 -38 -17 5 -18
5 -1 -6 9 -6 17 -21 17 -33 0 -13 5 -28 12 -35 17 -17 -1 -15 -36 3 -29 15
-30 15 -58 -16 -31 -33 -31 -47 -1 -31 17 9 63 0 63 -13 0 -4 -4 -3 -10 0 -9
6 -14 -8 -11 -28 0 -4 -3 -6 -8 -5 -5 2 -54 -60 -109 -137 l-99 -140 39 -3
c22 -2 45 1 52 7 9 7 17 7 26 -2 12 -10 12 -9 1 5 -7 10 -16 16 -19 15 -4 -1
-8 1 -9 6 -6 16 -2 19 12 7 13 -10 19 -9 35 5 11 10 19 23 18 29 -2 6 7 25 20
43 12 17 18 34 13 37 -5 4 -5 23 1 48 11 51 55 103 74 87 9 -7 21 2 46 33 61
76 118 155 118 163 0 5 -31 -33 -70 -85 -85 -113 -78 -107 -86 -85 -4 9 -3 20
2 24 13 9 125 161 119 161 -2 0 -28 -29 -56 -65 -50 -64 -69 -73 -69 -33 0 27
39 80 53 72 7 -3 -3 8 -22 25 -28 25 -37 28 -49 18 -13 -10 -14 -8 -7 13 7 24
7 25 -9 5 -16 -19 -17 -19 -10 15 3 19 11 40 17 45 7 7 8 4 4 -8 -4 -11 -3
-16 4 -12 5 4 7 16 3 28 -4 16 10 7 47 -30 47 -46 51 -54 39 -70 -13 -17 -13
-17 5 -1 18 17 16 20 -63 102 -45 46 -82 87 -82 91 0 4 10 19 23 34 l22 28 83
-84 c46 -46 116 -106 154 -133 39 -28 67 -50 62 -50 -21 0 -125 80 -213 164
-59 56 -83 75 -63 49 41 -52 118 -122 199 -180 35 -25 63 -47 63 -50 0 -2 -16
-25 -36 -49 -20 -25 -34 -47 -31 -50 3 -3 45 47 93 110 49 63 90 114 92 112 1
-2 -10 -31 -27 -65 -16 -33 -27 -61 -25 -61 2 0 -3 -8 -11 -17 -9 -10 -35 -47
-58 -83 -23 -36 -51 -67 -62 -69 -16 -3 -13 3 13 33 39 44 39 48 7 36 -14 -5
-25 -7 -25 -3 0 17 -46 -39 -77 -95 -25 -44 -40 -62 -50 -58 -8 3 -17 6 -19 6
-13 0 4 28 72 125 47 67 72 111 67 116 -6 6 -15 3 -24 -8 -13 -16 -12 -17 4
-4 9 7 17 9 17 3 0 -13 -25 -33 -32 -26 -3 3 -16 -10 -29 -28 -15 -21 -17 -28
-6 -19 9 7 17 10 17 6 0 -12 -42 -66 -48 -61 -2 3 1 13 9 23 8 9 9 14 3 10 -6
-3 -28 -31 -49 -62 -30 -43 -47 -58 -77 -67 -31 -9 -36 -13 -23 -20 8 -5 12
-14 9 -20 -4 -7 -2 -8 4 -4 6 4 9 13 5 21 -3 10 1 15 12 15 10 0 33 17 51 37
36 39 46 35 15 -6 -18 -24 -18 -25 2 -41 20 -17 20 -17 -29 -94 -45 -72 -70
-97 -101 -102 -9 -2 -8 5 2 20 8 13 12 26 8 31 -5 4 -3 5 4 1 7 -4 9 -14 6
-23 -9 -23 14 -7 29 20 10 20 10 21 -5 8 -16 -12 -21 -9 -18 12 2 16 -9 5 -34
-30 -14 -21 -25 -41 -25 -44 0 -4 65 -8 144 -8 l144 -2 15 38 c8 21 30 72 49
113 19 41 40 90 47 107 14 35 18 38 38 25 12 -7 -17 -99 -71 -224 -18 -42 -20
-58 -7 -58 5 0 11 13 14 28 4 19 12 28 25 28 17 0 18 -4 11 -24 -12 -32 -12
-32 16 -32 18 0 28 7 35 26 12 30 13 50 3 40 -8 -8 -9 -13 -12 -43 -1 -16 -3
-16 -11 -3 -8 12 -10 12 -10 1 0 -8 -2 -12 -5 -9 -8 7 50 227 63 240 6 6 22 8
37 4 26 -7 27 -10 22 -49 -4 -29 -3 -36 3 -22 5 11 9 32 9 46 1 21 -5 28 -34
36 -43 14 -47 10 -75 -87 -13 -41 -27 -81 -33 -87 -12 -16 -27 -17 -27 -2 0 5
5 7 12 3 6 -4 8 -3 4 4 -3 5 7 47 24 92 34 93 35 100 16 100 -27 0 -28 21 -6
81 12 32 24 59 26 59 2 0 27 -10 56 -21 77 -31 170 -57 233 -64 30 -4 57 -10
59 -14 10 -16 -16 -100 -32 -104 -13 -4 -13 -5 -2 -6 12 -1 15 -20 14 -113
l-1 -113 7 110 c4 61 10 121 13 135 4 14 20 85 38 158 25 108 34 131 44 122 8
-6 16 -26 18 -43 4 -31 4 -31 5 5 1 20 6 40 12 43 5 3 10 3 10 0 0 -4 18 -85
40 -180 29 -125 40 -198 41 -262 l2 -88 8 70 c4 39 5 82 3 97 -5 23 -1 28 23
34 46 10 51 15 11 10 -41 -5 -63 10 -26 17 22 4 22 4 2 6 -17 1 -24 11 -33 45
-6 25 -11 49 -11 54 0 4 35 14 77 20 43 7 123 28 178 47 55 19 103 31 106 27
4 -4 16 -32 27 -64 l21 -56 -20 -14 c-20 -13 -20 -14 10 -100 17 -47 31 -94
31 -103 0 -35 -20 -1 -46 78 -39 119 -38 118 -77 105 -17 -6 -36 -15 -42 -21
-7 -7 -3 -7 10 -2 11 4 31 8 44 9 23 1 27 -7 51 -84 38 -119 45 -161 27 -154
-8 3 -19 15 -25 27 -9 20 -10 19 -9 -11 2 -30 4 -32 34 -30 26 2 31 6 30 26
-3 36 20 38 28 3 8 -39 22 -40 21 -2 -1 16 -4 27 -7 25 -6 -3 -64 139 -83 202
-11 38 22 38 38 1 7 -18 32 -74 55 -125 23 -52 39 -98 36 -103 -4 -5 -1 -9 5
-9 6 0 8 -5 5 -10 -4 -7 44 -10 149 -9 86 0 156 3 156 6 0 2 -6 11 -12 18 -31
34 -36 43 -31 49 4 3 2 6 -4 6 -6 0 -16 13 -23 30 -7 16 -19 35 -27 42 -8 6
-5 -4 7 -25 21 -36 21 -72 0 -65 -14 4 -100 121 -100 135 0 6 9 15 20 18 11 4
18 11 14 16 -4 6 -14 3 -25 -7 -22 -20 -18 -24 -59 46 -41 68 -60 91 -71 85
-4 -3 -10 -1 -14 5 -4 6 -11 8 -16 5 -5 -4 -9 -1 -9 6 0 7 -3 10 -6 6 -3 -3 6
-22 21 -42 41 -53 24 -53 -23 0 -35 40 -142 229 -142 251 0 4 41 -45 92 -109
50 -65 93 -115 96 -113 2 3 -11 24 -30 48 -19 24 -38 48 -41 55 -4 7 19 30 58
58 78 55 178 146 207 189 12 17 -21 -9 -73 -59 -91 -88 -204 -173 -214 -163
-3 2 28 27 68 54 39 27 108 85 152 130 l80 80 23 -27 c12 -15 22 -31 22 -35 0
-5 -37 -46 -82 -91 -78 -78 -81 -83 -65 -101 13 -14 14 -21 5 -30 -8 -8 -5
-19 14 -44 39 -52 59 -98 49 -116 -8 -15 -21 -1 -119 137 -18 25 -32 41 -32
37 0 -4 32 -52 71 -106 55 -76 75 -97 90 -93 10 3 16 9 13 14 -3 5 -2 9 3 9
10 -1 53 -67 53 -82 0 -6 -11 -8 -26 -4 -25 7 -25 6 -10 -9 13 -14 19 -15 31
-5 8 7 15 11 16 9 1 -2 3 -20 5 -39 3 -19 6 -46 8 -60 1 -14 4 -31 4 -38 1 -7
7 -10 12 -7 6 3 13 -1 16 -9 3 -9 10 -16 16 -16 5 0 6 6 2 13 -4 7 -3 9 2 4 5
-5 10 -12 10 -15 10 -47 17 -52 65 -52 27 0 49 2 49 5 0 16 -104 144 -113 138
-6 -3 -7 -1 -3 6 4 6 -14 41 -44 82 -57 78 -68 99 -51 99 6 0 39 -38 73 -85
53 -72 64 -83 77 -72 14 11 14 10 2 -5 -12 -16 -7 -27 34 -93 l46 -75 103 0
c68 0 107 4 115 13 11 9 13 9 7 0 -4 -7 -2 -13 3 -13 7 0 11 28 11 73 0 59 -4
77 -18 90 -10 10 -22 14 -27 10 -4 -5 -5 -3 -2 3 3 6 -7 24 -23 39 -17 16 -30
24 -30 18 0 -15 -27 -10 -43 7 -10 10 -9 11 3 5 10 -6 8 -1 -4 13 -10 12 -22
20 -25 17 -10 -6 -23 6 -61 54 -23 30 -28 41 -14 33 10 -5 28 -19 38 -31 22
-24 43 -17 24 7 -12 15 -11 16 4 3 10 -7 15 -17 13 -22 -3 -4 4 -13 15 -19 11
-6 20 -8 20 -4 0 4 9 -1 20 -11 10 -9 18 -22 17 -29 -1 -6 4 -10 11 -8 8 1 11
-2 8 -7 -3 -5 1 -14 9 -21 8 -7 15 -9 15 -5 0 4 7 2 15 -5 8 -7 13 -16 10 -20
-3 -4 2 -13 10 -20 13 -11 15 10 15 177 l0 190 -54 52 c-30 28 -53 51 -50 51
3 0 25 -13 49 -30 24 -16 46 -30 50 -30 3 0 4 46 3 102 l-3 102 -107 55 c-74
39 -108 61 -108 74 0 31 74 22 146 -18 34 -19 65 -35 68 -35 3 0 6 12 5 28 0
24 -1 25 -9 7 -8 -18 -9 -17 -9 7 -1 15 -5 29 -10 32 -4 3 -6 -6 -3 -20 4 -25
3 -25 -19 -14 -30 16 -39 24 -19 18 18 -6 41 36 33 60 -5 14 -3 15 8 5 19 -18
29 -16 29 7 0 40 -55 21 -75 -26 -13 -31 -45 -48 -45 -24 0 5 -7 7 -15 4 -9
-4 -42 4 -76 16 -33 13 -62 20 -65 17 -3 -3 8 -8 25 -12 32 -7 52 -25 28 -25
-8 0 -38 10 -66 22 -40 16 -50 25 -45 37 42 103 68 213 80 329 l7 73 17 -38
c10 -21 27 -49 39 -63 37 -43 72 -85 82 -98 6 -7 14 -10 20 -7 5 4 9 -2 9 -12
0 -15 2 -16 10 -3 8 12 10 11 10 -8 0 -23 -15 -25 -71 -7 -14 5 -19 3 -15 -3
4 -6 28 -14 54 -18 26 -4 57 -11 70 -15 20 -8 22 -6 22 24 0 28 -5 35 -34 45
-51 19 -110 66 -156 123 -39 49 -53 87 -27 74 6 -4 4 0 -5 7 -9 8 -20 27 -24
44 -7 28 -7 29 13 11 11 -9 22 -14 25 -11 10 10 20 -35 13 -57 -5 -15 -4 -19
4 -15 6 4 11 4 10 -1 -4 -21 5 -35 53 -85 28 -29 48 -47 44 -40 -8 13 5 16 20
4 5 -5 20 -13 34 -19 l26 -11 2 64 3 64 -30 -6 c-24 -5 -32 -1 -48 22 -10 15
-22 42 -28 58 -7 23 -17 32 -37 34 -23 3 -28 9 -33 46 -8 52 17 109 65 150 18
15 28 31 24 37 -4 7 -1 10 7 7 8 -3 24 -1 36 3 14 5 23 4 27 -4 2 -7 5 -5 5 5
2 29 -68 16 -97 -18 -13 -16 -21 -22 -16 -14 4 9 -1 7 -15 -5 -13 -11 -25 -18
-27 -15 -2 3 -14 -10 -28 -29 -22 -29 -23 -35 -10 -48 8 -8 11 -20 7 -26 -4
-6 -6 -28 -4 -48 3 -44 -12 -57 -32 -29 -15 22 -12 54 6 78 5 7 7 15 3 19 -3
3 -6 0 -6 -8 0 -11 -2 -11 -10 1 -7 11 -10 6 -11 -20 0 -23 -6 -8 -15 44 -30
163 -108 351 -195 465 -22 29 -39 54 -37 56 9 7 102 45 112 45 6 0 20 -9 29
-21 24 -28 33 -17 12 14 -16 24 -15 26 5 37 11 6 24 8 29 6 5 -3 11 1 15 9 14
38 26 10 26 -60 0 -61 3 -75 16 -75 8 0 35 -9 59 -20 31 -14 43 -25 39 -35 -4
-8 -13 -15 -21 -15 -8 0 -21 -7 -30 -15 -8 -8 -19 -12 -25 -9 -7 4 -8 2 -4 -4
4 -6 1 -21 -6 -34 -7 -13 -14 -24 -15 -26 0 -2 -16 4 -35 14 -29 15 -31 15
-20 1 8 -9 22 -19 32 -22 17 -5 17 -9 4 -40 -8 -19 -14 -37 -14 -40 0 -3 18
-12 40 -21 44 -18 48 -25 25 -44 -8 -7 -15 -22 -15 -34 0 -17 4 -14 17 12 24
50 94 87 165 87 l58 0 -1 85 c-1 66 -3 77 -9 51 -5 -19 -7 -42 -5 -52 4 -21
-19 -44 -35 -34 -5 3 -10 4 -10 0 0 -3 12 -11 28 -17 23 -9 24 -12 8 -16 -10
-2 -25 2 -32 10 -13 12 -11 23 11 74 15 32 30 67 36 76 15 28 8 326 -8 332
-18 7 -16 53 2 60 11 4 15 21 15 61 0 30 -3 55 -7 55 -3 0 -20 -10 -37 -23
-52 -39 -190 -133 -213 -145 -12 -7 -29 -9 -38 -6 -13 6 -12 9 7 22 13 8 83
58 156 110 l133 95 -3 71 -3 71 -97 2 c-54 0 -97 -2 -97 -5 3 -22 -3 -30 -20
-27 -11 2 -29 -7 -42 -23 -13 -15 -17 -21 -8 -14 9 6 20 8 24 4 5 -4 5 -2 1 5
-7 13 10 28 18 15 3 -5 -8 -22 -24 -37 -17 -16 -30 -34 -30 -41 0 -7 -27 -44
-60 -82 -56 -64 -63 -69 -84 -59 -22 11 -23 13 -8 35 13 20 13 25 2 32 -10 6
1 27 46 85 32 42 65 86 73 98 30 46 -16 -8 -114 -133 -154 -195 -200 -256
-186 -244 6 6 23 9 37 6 24 -4 24 -5 8 -29 -9 -14 -12 -23 -6 -19 5 3 12 -1
15 -8 3 -8 16 -20 29 -27 l23 -12 -20 24 c-11 13 -23 26 -26 29 -4 3 24 38 61
78 44 46 71 68 76 61 4 -6 0 -15 -8 -20 -17 -9 -108 -97 -108 -104 0 -2 6 -2
14 1 8 3 20 -4 28 -15 14 -19 16 -18 67 29 35 32 50 53 45 62 -4 7 -3 9 1 5
21 -19 8 -41 -61 -103 -41 -37 -72 -69 -69 -72 3 -3 24 12 48 34 75 70 97 88
103 81 10 -10 -30 -56 -49 -57 -10 0 -16 -4 -13 -8 3 -5 -19 -33 -49 -62 l-54
-53 -73 69 c-120 114 -247 189 -408 242 -72 24 -223 52 -277 52 -31 0 -35 2
-30 23 3 12 9 39 12 59 4 20 16 44 26 54 10 9 19 30 19 46 l0 28 -91 0 c-75 0
-90 -3 -86 -14 3 -8 9 -42 13 -74 6 -58 5 -60 -17 -65 -14 -2 -5 -5 20 -6 40
-1 43 1 27 12 -16 12 -17 21 -10 78 6 44 9 55 12 34 2 -16 10 -34 17 -40 11
-8 35 -94 35 -124 0 -5 -34 -11 -76 -15 -231 -21 -465 -127 -644 -293 l-69
-64 -58 55 c-41 39 -55 58 -47 65 7 8 22 1 52 -25 64 -55 50 -34 -28 42 -38
37 -70 72 -70 79 0 6 25 -13 55 -43 l56 -53 19 23 c18 22 20 22 36 6 17 -17
17 -18 -1 -38 -23 -26 -15 -26 15 0 12 11 27 17 31 14 15 -9 10 8 -7 28 -16
16 -15 18 7 27 13 5 29 6 34 3 10 -6 3 4 -56 78 -19 25 -80 101 -134 170 -120
153 -115 146 -115 135 0 -6 32 -49 71 -98 57 -70 69 -90 60 -101 -10 -11 -4
-22 28 -55 22 -23 44 -41 48 -41 4 0 -8 15 -26 34 -18 19 -32 39 -29 46 3 11
128 -134 128 -150 0 -5 -8 -10 -17 -12 -18 -3 -113 94 -113 115 0 5 -9 7 -19
4 -14 -3 -34 10 -72 50 -47 49 -61 78 -27 57 33 -21 37 -9 7 21 -32 31 -63 39
-38 9 8 -10 8 -14 0 -14 -6 0 -17 11 -23 25 -6 14 -15 25 -20 25 -4 0 -8 5 -8
11 0 5 6 7 13 4 6 -3 2 2 -10 11 -13 9 -23 21 -23 26 0 6 8 4 18 -3 9 -7 6 -1
-7 14 -25 28 -43 38 -21 12 9 -11 9 -15 1 -15 -6 0 -14 7 -17 15 -5 12 -26 15
-108 15 l-101 -1 115 -111 c63 -61 93 -92 65 -70 -27 22 -81 72 -120 111 -53
54 -76 71 -97 71 -27 0 -28 -2 -28 -47z m1297 -10 c-3 -10 -5 -2 -5 17 0 19 2
27 5 18 2 -10 2 -26 0 -35z m1303 -48 c-52 -52 -99 -95 -104 -95 -10 0 183
188 194 190 2 0 -38 -43 -90 -95z m-1210 -45 c0 -11 -4 -20 -10 -20 -5 0 -10
9 -10 20 0 11 5 20 10 20 6 0 10 -9 10 -20z m829 -116 c-24 -24 -39 -44 -33
-44 5 0 18 11 28 25 10 14 23 25 27 25 19 0 7 -24 -36 -75 -34 -39 -51 -52
-65 -48 -11 3 -20 10 -20 15 0 5 5 6 12 2 7 -4 8 -3 4 4 -9 15 102 154 116
146 5 -4 -9 -26 -33 -50z m-874 36 c-22 -5 -76 -14 -120 -20 -205 -31 -413
-134 -567 -283 -32 -30 -58 -52 -58 -48 0 14 124 127 185 168 166 112 399 191
560 191 l40 0 -40 -8z m248 -16 c100 -21 236 -75 327 -130 85 -51 240 -179
248 -204 3 -8 -28 15 -68 53 -171 158 -398 265 -604 284 -39 3 -80 10 -91 15
-28 12 104 0 188 -18z m-74 -60 c51 -23 131 -87 131 -105 0 -6 -30 -5 -37 1
-2 2 -7 3 -12 4 -13 2 -26 16 -26 29 0 20 -78 55 -135 61 l-55 5 58 -18 c32
-11 67 -27 77 -36 10 -9 23 -14 29 -10 6 3 9 0 6 -7 -7 -19 41 -69 59 -62 9 3
16 9 16 13 0 4 7 8 16 8 17 0 38 -36 49 -86 5 -25 10 -30 16 -20 6 9 7 1 4
-21 -4 -27 -3 -30 4 -15 8 16 10 11 10 -25 1 -59 -8 -90 -25 -90 -8 0 -14 6
-14 13 0 8 -4 7 -11 -3 -8 -11 -9 -6 -5 23 4 32 2 37 -15 37 -11 0 -19 -7 -19
-17 0 -12 -3 -14 -8 -6 -4 7 -23 19 -42 28 l-35 16 38 -4 c37 -3 39 -2 35 25
-3 15 -1 28 4 28 4 0 8 -13 8 -30 0 -24 4 -30 21 -30 20 0 21 4 16 45 -4 25
-15 61 -25 81 -16 31 -20 33 -31 20 -9 -11 -10 -20 -2 -35 6 -11 11 -26 11
-33 -1 -7 -7 1 -14 18 -16 37 -31 48 -48 38 -7 -5 -29 -7 -50 -5 -22 1 -38 -2
-38 -8 0 -6 6 -8 14 -5 7 3 16 -2 19 -10 4 -9 2 -16 -2 -16 -5 0 -4 -11 2 -24
8 -16 14 -20 19 -13 4 6 2 15 -5 19 -12 7 5 26 48 49 14 8 12 3 -8 -18 l-27
-29 24 -14 c14 -7 28 -20 31 -29 4 -9 -4 -6 -20 9 -21 20 -28 22 -35 11 -4 -8
-6 -21 -3 -30 3 -12 0 -11 -11 3 -9 11 -16 23 -16 28 0 4 -6 5 -14 2 -8 -3
-12 -13 -9 -22 4 -13 3 -14 -5 -3 -11 15 -56 6 -47 -10 3 -5 -1 -6 -9 -3 -8 3
-17 12 -20 21 -5 11 -14 14 -36 9 -17 -3 -30 -2 -30 2 0 4 -7 16 -16 27 -13
17 -16 18 -24 5 -14 -23 -12 -27 15 -34 14 -4 25 -11 25 -16 0 -13 -6 -13 -30
3 -17 10 -22 9 -30 -3 -8 -13 -10 -13 -10 2 0 25 -21 33 -27 10 -8 -33 -33
-36 -33 -5 l0 26 -25 -23 c-24 -22 -24 -25 -8 -31 15 -6 13 -8 -10 -14 -15 -4
-32 -15 -37 -24 -9 -15 -9 -14 -10 2 0 10 -8 17 -19 17 -14 0 -18 -5 -14 -20
3 -11 2 -28 -1 -37 -6 -15 -8 -15 -16 -3 -10 15 -10 14 -14 -22 -1 -7 -11 -13
-23 -13 -12 0 -26 -4 -30 -9 -4 -4 -3 -7 2 -6 6 1 17 2 25 1 13 -1 13 -2 0
-11 -9 -5 -19 -5 -27 1 -15 13 -36 2 -27 -13 4 -6 2 -8 -4 -4 -15 9 -49 -39
-68 -98 -15 -46 -15 -55 -1 -88 13 -30 13 -39 3 -48 -10 -8 -16 -3 -26 21 -24
57 -10 122 41 187 29 37 92 83 106 78 7 -3 13 -2 14 2 0 4 1 41 2 82 8 249
253 406 476 304z m-889 -128 c0 -14 -145 127 -146 142 0 7 32 -20 73 -60 40
-40 73 -77 73 -82z m1705 134 c-3 -5 -14 -10 -23 -9 -14 0 -13 2 3 9 27 11 27
11 20 0z m-1870 -9 c3 -5 2 -12 -3 -15 -5 -3 -9 1 -9 9 0 17 3 19 12 6z m2189
-47 c3 -8 2 -12 -4 -9 -6 4 -7 -7 -3 -27 l6 -33 -26 24 c-27 24 -27 41 -1 41
8 0 14 5 14 10 0 15 7 12 14 -6z m-2619 -25 c-4 -5 -12 -9 -18 -8 -9 0 -8 2 1
6 6 2 9 10 6 15 -4 7 -2 8 5 4 6 -4 9 -12 6 -17z m2579 -24 c18 -28 14 -30
-44 -18 l-33 6 24 18 c31 24 34 24 53 -6z m-2155 -9 c15 -16 19 -26 11 -31
-13 -8 -50 22 -50 42 0 20 14 16 39 -11z m-362 -1 c6 -2 13 1 15 6 5 15 68
-10 68 -27 0 -17 17 -18 23 -1 3 7 6 4 6 -6 1 -10 5 -15 11 -12 5 3 7 0 4 -9
-5 -12 -12 -11 -51 6 -29 13 -58 18 -84 15 -22 -2 -39 0 -39 6 0 5 -8 16 -17
23 -16 12 -14 13 17 8 19 -3 40 -7 47 -9z m347 -43 c35 -37 18 -56 -31 -36
-39 17 -48 31 -33 49 18 22 33 18 64 -13z m1366 18 c0 -5 -4 -10 -10 -10 -5 0
-10 5 -10 10 0 6 5 10 10 10 6 0 10 -4 10 -10z m694 -14 c-6 -15 -34 -23 -34
-10 0 8 34 34 38 30 1 -2 0 -11 -4 -20z m-594 2 c-1 -7 -15 -29 -32 -48 -26
-29 -29 -30 -14 -7 10 16 16 30 14 33 -2 2 -21 -1 -42 -7 -21 -6 -40 -8 -43
-6 -2 3 21 11 51 18 31 7 56 16 56 21 0 4 2 8 5 8 3 0 5 -6 5 -12z m-1023 -23
c0 -11 -4 -12 -14 -4 -7 6 -13 13 -13 15 0 2 6 4 13 4 8 0 14 -7 14 -15z m40
-1 c-3 -3 -12 -4 -19 -1 -8 3 -5 6 6 6 11 1 17 -2 13 -5z m1083 -4 c0 -5 -5
-10 -11 -10 -5 0 -7 5 -4 10 3 6 8 10 11 10 2 0 4 -4 4 -10z m-1597 -72 c-23
-26 -39 -22 -18 5 10 12 2 5 -18 -15 -42 -42 -51 -26 -15 24 l21 30 -23 -12
c-18 -10 -21 -9 -15 1 6 9 3 10 -10 5 -14 -5 -16 -4 -7 7 7 8 8 17 4 22 -4 4
16 -5 45 -21 49 -27 51 -30 36 -46z m554 66 c-3 -3 -12 -4 -19 -1 -8 3 -5 6 6
6 11 1 17 -2 13 -5z m573 -4 c0 -5 -5 -10 -11 -10 -5 0 -7 5 -4 10 3 6 8 10
11 10 2 0 4 -4 4 -10z m-1264 -39 c6 -8 15 -11 21 -8 5 3 10 1 10 -6 1 -7 4
-37 8 -68 6 -43 4 -63 -9 -88 -9 -17 -21 -29 -27 -26 -5 4 -8 1 -7 -7 2 -7 -8
-14 -22 -15 -22 -2 -23 -2 -5 6 11 5 15 10 8 10 -8 1 -5 13 9 37 27 45 21 128
-13 176 -20 29 -21 31 -4 18 11 -8 25 -21 31 -29z m-37 -41 c0 -10 -3 -8 -9 5
-12 27 -12 43 0 25 5 -8 9 -22 9 -30z m504 -19 c-17 -11 -36 -28 -42 -38 -6
-10 -11 -13 -11 -6 0 14 57 63 73 63 7 0 -2 -9 -20 -19z m108 -10 c36 -36 36
-54 4 -93 -14 -16 -25 -36 -25 -44 0 -15 -32 -25 -67 -22 -17 2 -20 5 -11 16
9 10 8 12 -1 10 -14 -3 -20 80 -7 101 4 6 5 15 2 20 -7 11 17 21 52 22 24 0
25 1 7 9 -18 8 -18 9 -2 9 10 1 32 -12 48 -28z m553 12 c17 -10 17 -10 -7 -10
-15 0 -31 5 -37 12 -12 15 16 14 44 -2z m-860 -75 c-198 -269 -259 -647 -154
-956 31 -94 32 -98 11 -61 -11 19 -29 72 -40 116 -64 251 -40 500 69 731 47
98 134 232 152 232 4 0 -13 -28 -38 -62z m1705 -23 c16 -22 45 -74 66 -115
138 -273 157 -581 53 -857 -11 -30 -22 -52 -24 -50 -3 2 4 27 15 55 11 29 30
98 42 154 18 87 20 125 16 243 -8 216 -59 380 -173 552 -35 53 -64 99 -64 102
0 7 31 -30 69 -84z m-163 42 c10 4 12 0 8 -11 -3 -9 0 -24 7 -33 12 -14 11
-15 -9 -9 -17 6 -22 3 -22 -11 -1 -17 -1 -17 -15 1 -12 16 -17 17 -32 5 -15
-11 -16 -11 -5 1 17 19 15 40 -5 63 -18 20 -18 20 10 2 28 -18 28 -18 35 6 6
23 7 24 10 2 2 -14 8 -20 18 -16z m-826 13 c18 -12 2 -12 -25 0 -13 6 -15 9
-5 9 8 0 22 -4 30 -9z m1407 -32 c-3 -8 -6 -5 -6 6 -1 11 2 17 5 13 3 -3 4
-12 1 -19z m-1980 -20 c-3 -7 -5 -2 -5 12 0 14 2 19 5 13 2 -7 2 -19 0 -25z
m1233 -42 c0 -4 -13 9 -30 27 -16 19 -30 38 -30 41 0 4 14 -9 30 -27 17 -19
30 -38 30 -41z m-307 27 c26 -13 47 -26 47 -28 0 -3 -19 5 -42 17 -33 17 -60
22 -115 23 -77 0 -83 3 -31 15 44 10 83 2 141 -27z m-416 21 c-3 -3 -12 -4
-19 -1 -8 3 -5 6 6 6 11 1 17 -2 13 -5z m626 -73 c38 -36 77 -98 77 -123 0 -7
-9 7 -20 31 -11 24 -23 41 -26 38 -3 -3 0 -16 7 -29 7 -12 13 -48 14 -78 1
-30 0 -49 -2 -42 -3 6 -9 9 -15 6 -7 -4 -7 2 -3 17 11 33 9 75 -5 96 -10 16
-10 15 -5 -4 10 -36 -3 -27 -26 18 -11 23 -16 38 -10 34 6 -3 11 -2 11 4 0 13
-56 52 -71 49 -7 -2 -13 9 -14 24 -2 26 -1 26 24 10 14 -8 43 -32 64 -51z
m377 59 c0 -5 -5 -10 -11 -10 -5 0 -7 5 -4 10 3 6 8 10 11 10 2 0 4 -4 4 -10z
m-1015 -16 c-16 -8 -22 -12 -12 -9 9 2 17 2 17 0 0 -9 -35 -47 -51 -56 -13 -7
-18 -3 -22 17 -4 21 2 30 27 45 17 10 40 19 51 19 16 -1 14 -4 -10 -16z m-470
-24 l20 -25 -22 19 c-13 11 -23 24 -23 29 0 6 1 8 3 6 1 -2 11 -15 22 -29z
m859 9 c24 -11 52 -30 63 -42 18 -21 18 -21 -1 -7 -14 11 -20 12 -23 3 -2 -7
-12 -9 -21 -6 -9 3 -3 -7 13 -21 l30 -27 -28 17 c-16 10 -52 25 -80 35 -32 11
-43 18 -29 18 26 1 27 31 2 43 -11 5 -9 7 8 7 12 1 42 -8 66 -20z m353 -56
c-3 -10 -5 -4 -5 12 0 17 2 24 5 18 2 -7 2 -21 0 -30z m-1257 -2 c-15 -29 -12
-63 7 -91 l17 -25 -22 19 c-25 21 -30 84 -10 104 17 17 20 15 8 -7z m319 0
c-7 -10 -21 -24 -33 -31 -15 -9 -12 -3 8 19 34 35 41 39 25 12z m206 8 c-5 -7
5 -8 32 -4 l38 7 -30 -17 c-16 -9 -41 -27 -55 -39 -32 -30 -70 -50 -70 -37 0
6 8 14 18 20 13 8 14 12 5 22 -10 10 -15 9 -28 -1 -8 -7 -15 -10 -15 -6 0 10
82 66 97 66 8 0 11 -5 8 -11z m988 -20 c26 -17 47 -32 47 -34 0 -2 -15 -1 -34
2 -27 4 -39 0 -67 -25 -27 -24 -33 -37 -32 -66 1 -41 14 -61 58 -88 22 -13 25
-18 12 -18 -10 0 -16 -4 -12 -9 3 -5 -5 -13 -17 -17 -13 -4 -26 -11 -29 -16
-3 -4 -22 -11 -42 -13 -32 -4 -38 -2 -52 24 -19 37 -62 72 -81 64 -8 -3 -14 0
-14 7 0 6 -5 8 -11 4 -8 -5 -10 10 -7 53 7 104 71 162 179 163 46 0 64 -5 102
-31z m-647 -4 c27 -13 69 -46 94 -72 34 -36 36 -40 10 -18 -70 61 -79 67 -137
91 -32 13 -49 24 -37 24 11 0 42 -11 70 -25z m-791 -5 c3 -5 -1 -10 -9 -10 -9
0 -16 5 -16 10 0 6 4 10 9 10 6 0 13 -4 16 -10z m-145 -20 c0 -5 -7 -7 -15 -4
-8 4 -12 10 -9 15 6 11 24 2 24 -11z m956 -21 c49 -33 72 -61 28 -33 -26 17
-27 17 -15 1 12 -15 11 -16 -19 -6 -19 7 -27 14 -20 19 10 6 -17 31 -60 53 -8
4 -2 5 14 2 16 -4 48 -19 72 -36z m-361 1 c-4 -7 3 -8 22 -4 l28 7 -20 -22
c-10 -12 -42 -33 -70 -46 l-50 -24 40 34 c22 19 41 39 41 45 2 17 4 20 10 20
3 0 2 -5 -1 -10z m59 -29 c-21 -16 -64 -54 -94 -86 -52 -54 -129 -116 -103
-84 7 9 10 19 6 23 -4 4 1 4 11 0 12 -5 17 -4 13 3 -10 17 165 173 195 173 6
0 -7 -13 -28 -29z m-649 -11 c-3 -5 -10 -10 -16 -10 -5 0 -9 5 -9 10 0 6 7 10
16 10 8 0 12 -4 9 -10z m921 -3 c12 -7 48 -37 80 -67 64 -60 58 -57 -22 8 -48
40 -72 53 -59 32 4 -6 -1 -7 -12 -3 -19 7 -18 5 11 -17 16 -12 18 -12 12 -1
-6 9 -5 12 5 9 8 -3 13 -11 11 -17 -1 -7 2 -10 8 -6 5 3 10 1 10 -4 0 -6 -6
-11 -14 -11 -19 0 -67 40 -61 50 3 5 1 11 -5 15 -11 7 -4 25 8 25 4 -1 16 -6
28 -13z m-991 -7 c3 -5 -1 -10 -9 -10 -9 0 -16 5 -16 10 0 6 4 10 9 10 6 0 13
-4 16 -10z m175 -46 c0 -2 -20 6 -45 18 -25 12 -45 25 -45 29 0 4 20 -4 45
-18 25 -13 45 -27 45 -29z m470 -32 c-37 -37 -76 -74 -86 -81 -11 -8 18 23 62
67 45 45 84 82 87 82 3 0 -26 -31 -63 -68z m152 29 c-8 -83 54 -143 146 -139
42 1 57 -3 74 -19 l20 -21 -39 -7 c-60 -10 -99 -38 -107 -75 -11 -59 -8 -66
19 -40 21 19 25 21 25 7 0 -22 16 -22 29 0 7 13 12 14 23 6 9 -8 19 -9 28 -3
8 6 20 10 25 10 6 0 3 -5 -5 -10 -9 -6 -10 -10 -3 -10 7 0 17 8 22 18 10 16
10 16 11 -1 0 -11 -12 -22 -31 -29 -27 -9 -29 -12 -14 -20 22 -13 73 -2 98 19
18 17 20 17 33 -2 17 -23 17 -24 -1 -141 -18 -112 -44 -169 -112 -244 -72 -80
-124 -110 -193 -110 -44 0 -65 6 -101 28 -91 58 -199 211 -186 263 3 10 1 17
-4 13 -5 -3 -9 2 -9 11 0 9 5 13 10 10 6 -3 10 -1 10 4 0 6 -5 11 -12 11 -6 0
-9 3 -5 6 3 3 -1 28 -10 56 -16 54 -11 98 11 98 7 0 27 -7 44 -16 18 -8 42
-14 54 -12 27 4 36 28 10 28 -11 0 -25 7 -32 15 -8 9 -9 15 -2 15 6 0 14 -5
17 -10 4 -7 13 -6 27 1 15 8 19 8 14 0 -4 -6 -2 -11 4 -11 6 0 13 7 17 16 5
13 9 12 26 -7 18 -20 21 -20 27 -5 5 15 8 14 29 -6 l24 -22 -7 45 c-8 52 -31
75 -93 91 l-44 11 31 30 c18 17 36 51 46 83 12 42 46 104 57 104 2 0 1 -17 -1
-39z m91 -85 c18 -13 43 -27 57 -30 17 -5 12 0 -15 16 -38 22 -85 79 -85 102
0 6 14 -7 32 -28 17 -21 49 -51 71 -67 l39 -28 -26 -7 c-44 -11 -93 4 -120 37
-21 24 -26 41 -25 82 l0 52 20 -53 c13 -32 33 -61 52 -76z m67 48 c50 -36 66
-53 33 -35 -24 13 -97 71 -89 71 3 0 28 -16 56 -36z m86 -26 c9 -14 -74 32
-88 49 -6 7 10 1 36 -13 25 -14 49 -30 52 -36z m-765 33 c29 18 29 8 -1 -25
-17 -18 -38 -42 -46 -52 -14 -18 -14 -18 -7 1 3 11 12 29 19 39 11 16 11 22
-4 33 -15 13 -15 13 4 4 12 -6 26 -6 35 0z m1068 -17 c12 -15 20 -36 20 -48
-2 -21 -2 -21 -6 1 -2 12 -16 33 -30 47 -14 14 -21 26 -15 26 6 0 20 -12 31
-26z m-1053 -25 c-19 -23 -37 -51 -39 -63 -4 -20 -4 -20 -6 1 0 14 14 40 35
63 48 53 56 52 10 -1z m1497 -2 c-3 -5 -9 -3 -14 4 -4 7 -5 17 -2 22 3 5 9 3
14 -4 4 -7 5 -17 2 -22z m-1453 -7 c-10 -18 -14 -20 -22 -9 -7 10 -8 4 -5 -19
2 -20 0 -29 -6 -23 -11 11 -5 58 6 51 5 -3 13 3 19 13 14 26 22 13 8 -13z
m1121 -13 c10 -17 6 -16 -19 8 -37 35 -39 40 -12 25 11 -6 25 -20 31 -33z
m-496 15 c-3 -3 -11 0 -18 7 -9 10 -8 11 6 5 10 -3 15 -9 12 -12z m-768 2 c-3
-3 -12 -4 -19 -1 -8 3 -5 6 6 6 11 1 17 -2 13 -5z m479 -38 c-15 -24 -76 -73
-241 -196 -41 -30 -82 -64 -91 -75 -15 -19 -15 -19 -2 5 8 14 34 39 57 55 101
73 240 186 262 213 28 35 39 33 15 -2z m763 -5 c-2 -6 -10 2 -17 17 -11 25
-11 25 4 10 9 -9 15 -21 13 -27z m-789 15 c0 -2 -8 -10 -17 -17 -16 -13 -17
-12 -4 4 13 16 21 21 21 13z m436 -27 c3 -6 -5 -3 -20 6 -14 10 -26 19 -26 22
0 7 39 -17 46 -28z m916 -28 c-13 -21 -22 -28 -25 -19 -6 18 25 70 36 59 5 -5
0 -23 -11 -40z m-1977 -91 c17 -14 17 -14 1 20 l-18 35 33 -40 c18 -22 49 -55
69 -74 19 -19 34 -38 33 -42 -1 -4 7 -5 18 -2 18 5 15 9 -18 30 -21 14 -30 22
-20 19 21 -7 87 18 87 33 0 5 19 23 42 40 37 27 41 36 16 32 -4 0 -2 13 4 30
8 23 13 27 19 17 5 -7 9 -17 9 -23 0 -5 -5 -3 -10 5 -8 13 -10 13 -10 -2 0
-23 19 -33 26 -14 3 9 10 14 15 11 4 -3 6 -12 2 -21 -3 -8 -7 -13 -10 -10 -2
2 -27 -17 -54 -43 -28 -25 -64 -51 -82 -57 l-32 -12 45 -11 c69 -18 70 -19 70
-42 0 -16 -4 -20 -17 -14 -10 4 -29 9 -43 11 -25 4 -25 4 3 -11 23 -13 26 -20
21 -43 -9 -37 -15 -46 -23 -33 -4 6 -27 14 -52 17 -24 4 -51 10 -60 15 -9 4
-19 5 -23 2 -3 -3 -6 -1 -6 5 0 5 6 13 13 16 6 3 2 3 -10 0 -13 -3 -33 -2 -45
2 -21 6 -21 7 -2 22 19 14 19 15 -1 7 -39 -15 -63 -17 -82 -6 -15 9 -10 11 27
12 l45 1 -45 10 c-25 5 -51 16 -59 24 -13 11 -9 12 23 3 40 -11 75 -6 41 6
-42 14 -87 36 -83 40 2 2 26 -2 53 -10 26 -8 50 -13 52 -12 2 2 -24 18 -57 36
-74 40 -79 58 -7 27 28 -13 63 -27 77 -31 24 -7 24 -7 8 11 -17 20 -58 116
-58 137 0 7 13 -15 28 -48 16 -33 37 -67 47 -75z m1391 98 c-5 -31 -5 -32 9
-14 13 17 15 17 15 4 0 -9 -9 -19 -19 -23 -23 -7 -32 -36 -19 -59 10 -18 3
-36 -15 -36 -7 0 -6 4 3 10 12 7 12 12 2 22 -9 9 -12 9 -12 -1 0 -7 -5 -9 -10
-6 -6 4 -4 12 5 22 9 9 14 21 11 28 -2 7 2 21 9 32 8 10 15 26 15 36 0 9 3 17
6 17 4 0 4 -15 0 -32z m-806 17 c0 -2 -10 -9 -22 -15 -22 -11 -22 -10 -4 4 21
17 26 19 26 11z m80 2 c0 -2 -15 -16 -32 -33 l-33 -29 29 33 c28 30 36 37 36
29z m1050 -44 c-7 -21 -21 -53 -32 -71 l-20 -32 53 20 c28 12 61 26 71 31 11
6 22 9 24 6 7 -7 -19 -25 -82 -57 -65 -33 -62 -38 12 -15 60 18 59 18 44 0 -7
-8 -27 -17 -46 -21 -19 -3 -34 -10 -34 -15 0 -11 7 -11 48 0 18 6 32 6 32 1 0
-5 -19 -14 -42 -20 -64 -17 -66 -18 -23 -20 33 0 37 -3 22 -11 -10 -6 -28 -9
-40 -7 -12 2 -31 -5 -41 -14 -10 -10 -23 -15 -29 -11 -5 3 -13 0 -17 -6 -4 -7
-20 -14 -36 -17 -16 -2 -40 -6 -54 -8 -14 -3 -33 -5 -42 -5 -11 -1 -18 -9 -18
-20 0 -24 -19 -76 -25 -69 -3 2 -1 18 4 34 4 16 5 38 0 49 -6 16 -8 13 -8 -14
-1 -44 -45 -137 -71 -151 -12 -6 -18 -15 -16 -19 3 -5 -4 -17 -17 -27 -20 -18
-21 -18 -7 0 8 10 15 24 16 30 1 7 18 34 38 60 34 45 42 74 39 153 -1 7 3 10
8 7 5 -3 9 -1 9 5 0 5 9 13 20 16 32 10 23 25 -9 15 -23 -6 -33 -4 -46 10 -15
16 -14 18 9 24 14 3 24 12 21 19 -14 46 -15 68 -3 62 7 -4 5 0 -4 8 -10 8 -18
20 -18 28 1 8 15 -3 33 -24 18 -21 46 -42 62 -46 23 -7 25 -9 9 -10 -12 -1
-33 8 -48 20 -27 21 -38 11 -11 -11 8 -7 15 -18 15 -24 0 -6 -5 -4 -10 4 -8
13 -10 12 -10 -3 0 -13 5 -17 18 -13 9 3 31 8 47 11 25 5 27 4 13 -5 -22 -14
-23 -30 -3 -30 13 0 18 14 17 40 0 3 11 14 26 24 14 11 22 14 18 8 -4 -7 -4
-12 1 -12 4 0 23 23 42 50 34 50 59 64 27 14 -10 -14 -15 -28 -12 -31 7 -7 65
85 73 115 3 13 8 21 10 18 3 -3 -1 -22 -7 -43z m-619 20 c13 -16 12 -17 -3 -4
-10 7 -18 15 -18 17 0 8 8 3 21 -13z m349 3 c0 -8 -4 -18 -10 -21 -5 -3 -10 3
-10 14 0 12 5 21 10 21 6 0 10 -6 10 -14z m-1219 -29 c-10 -9 -11 -8 -5 6 3
10 9 15 12 12 3 -3 0 -11 -7 -18z m-37 -24 c-3 -21 -11 -42 -16 -48 -7 -7 -8
-3 -5 10 4 11 9 32 13 48 9 40 16 33 8 -10z m1290 -43 c4 -20 3 -30 -3 -25 -4
6 -11 30 -14 55 -7 49 6 28 17 -30z m79 63 c-13 -2 -33 -2 -45 0 -13 2 -3 4
22 4 25 0 35 -2 23 -4z m-126 -25 c-3 -8 -6 -5 -6 6 -1 11 2 17 5 13 3 -3 4
-12 1 -19z m-883 -29 c-16 -17 -64 -60 -107 -97 -42 -36 -86 -79 -98 -96 -12
-19 -18 -23 -15 -11 l6 20 -16 -20 c-11 -14 -14 -33 -11 -64 3 -27 2 -38 -4
-30 -16 25 -9 82 14 117 12 18 65 64 117 102 52 37 104 77 114 89 11 11 21 21
24 21 3 0 -7 -14 -24 -31z m955 -28 c1 -35 -5 -22 -12 24 -5 28 -4 34 3 20 5
-11 9 -31 9 -44z m-1230 9 c-21 -27 -22 -33 -10 -53 13 -20 13 -21 -3 -8 -16
13 -17 12 -10 -14 5 -20 4 -26 -5 -21 -24 15 -10 77 27 119 25 28 26 11 1 -23z
m-127 -12 c-6 -6 -7 0 -4 19 5 21 7 23 10 9 2 -10 0 -22 -6 -28z m-63 -23 c0
-5 -6 -1 -14 9 -8 11 -15 24 -15 30 0 5 7 1 15 -10 8 -10 14 -23 14 -29z m146
2 c-14 -34 -45 -52 -45 -26 0 5 5 7 10 4 6 -3 10 0 10 7 0 16 30 61 36 55 2
-2 -3 -20 -11 -40z m1175 4 c0 -26 -32 -59 -39 -40 -2 8 -9 17 -15 21 -6 5 -2
8 10 8 12 0 24 7 28 15 8 21 16 19 16 -4z m-19 -102 c16 -31 8 -28 -36 15 -39
38 -39 38 -7 22 17 -9 36 -26 43 -37z m-1135 -19 c-41 -46 -45 -77 -16 -125
25 -40 94 -90 111 -79 8 5 9 3 4 -5 -4 -7 -16 -11 -26 -8 -28 8 -23 -2 7 -14
15 -5 24 -12 21 -15 -9 -9 -60 22 -94 58 -38 39 -53 76 -53 128 0 31 6 44 35
69 49 43 54 39 11 -9z m1035 -2 c15 -28 5 -21 -21 15 -15 20 -17 27 -6 18 9
-8 22 -23 27 -33z m-1049 -60 c-8 -8 -9 -4 -5 13 4 13 8 18 11 10 2 -7 -1 -18
-6 -23z m40 -8 c-3 -19 4 -45 21 -74 21 -37 22 -43 7 -33 -10 6 -23 22 -29 34
-16 35 -13 103 4 103 1 0 0 -13 -3 -30z m-124 -40 c0 -9 -3 -7 -8 5 -5 11 -8
29 -8 40 0 16 2 15 8 -5 4 -14 8 -32 8 -40z m1348 19 c-6 -41 -45 -126 -46
-101 0 22 -24 8 -49 -30 -13 -20 -36 -42 -50 -48 -22 -10 -21 -7 10 22 20 18
44 48 53 66 10 19 20 31 24 27 4 -3 12 9 19 27 l13 33 -5 -35 c-3 -25 -2 -31
5 -20 5 8 12 34 16 58 3 23 9 42 11 42 3 0 3 -18 -1 -41z m574 15 c0 -2 -9 0
-20 6 -11 6 -20 13 -20 16 0 2 9 0 20 -6 11 -6 20 -13 20 -16z m-1966 -22 c16
-12 25 -22 20 -22 -5 0 -23 13 -39 28 -34 30 -25 27 19 -6z m-180 -7 c73 -35
104 -65 68 -65 -24 0 -173 99 -150 100 4 0 41 -16 82 -35z m1885 31 c-2 -2
-15 -9 -29 -15 -24 -11 -24 -11 -6 3 16 13 49 24 35 12z m-1642 -38 c-3 -7 -5
-2 -5 12 0 14 2 19 5 13 2 -7 2 -19 0 -25z m1203 -48 c-17 -32 -19 -21 -6 35
10 45 11 46 14 18 2 -18 -2 -42 -8 -53z m-1163 13 c8 -12 13 -28 10 -35 -3 -7
-12 2 -20 22 -9 19 -16 29 -17 22 0 -7 6 -25 14 -40 7 -15 16 -38 20 -52 3
-14 -5 -1 -18 28 -19 39 -24 61 -19 85 5 24 8 27 11 12 2 -10 11 -29 19 -42z
m1543 42 c0 -2 -10 -9 -22 -15 -22 -11 -22 -10 -4 4 21 17 26 19 26 11z
m-1654 -40 c-11 -8 -25 -15 -30 -15 -6 1 0 7 14 15 32 19 40 18 16 0z m1604
10 c0 -2 -10 -9 -22 -15 -22 -11 -22 -10 -4 4 21 17 26 19 26 11z m-1229 -56
c-13 -10 -28 -19 -35 -19 -6 1 1 8 17 16 15 8 27 20 27 26 0 6 3 8 8 4 4 -4
-4 -16 -17 -27z m839 -10 c-12 -40 -58 -85 -73 -70 -8 8 -8 14 1 23 9 9 12 9
12 -1 0 -22 31 9 47 47 17 41 24 42 13 1z m393 -16 l-6 -38 29 25 28 25 -18
-29 c-19 -29 -18 -30 3 -48 22 -17 22 -17 -24 -13 l-47 5 5 -33 6 -32 -15 34
c-14 31 -18 33 -52 28 l-37 -6 28 15 c15 8 27 18 27 21 0 4 -12 20 -27 37
l-28 29 38 -22 c43 -26 62 -23 79 14 15 34 18 32 11 -12z m-1385 -64 c2 -4
-10 -3 -27 4 -25 9 -43 8 -92 -5 -77 -21 -65 -7 15 18 33 10 54 20 48 22 -7 2
-17 13 -24 25 -7 15 4 9 33 -17 24 -22 45 -43 47 -47z m90 57 c12 -4 22 -12
22 -17 0 -14 -11 -11 -34 9 -21 17 -21 17 -3 -5 16 -18 16 -24 5 -42 -16 -26
-17 -26 -48 -1 l-25 20 28 -10 c38 -14 42 -13 26 6 -18 21 -22 53 -6 50 6 -1
22 -6 35 -10z m857 -5 c-3 -6 -10 -9 -15 -6 -5 3 -11 1 -15 -5 -8 -12 -25 -13
-25 -1 0 9 52 31 59 25 1 -1 0 -8 -4 -13z m175 11 c0 -5 -6 -16 -13 -27 -11
-14 -16 -15 -22 -5 -5 8 -4 11 3 6 6 -3 13 3 17 14 6 20 15 27 15 12z m-960
-56 c0 -2 -8 -10 -17 -17 -16 -13 -17 -12 -4 4 13 16 21 21 21 13z m792 -28
c-7 -7 -12 -8 -12 -2 0 14 12 26 19 19 2 -3 -1 -11 -7 -17z m96 -10 c-6 -18
-13 -27 -15 -21 -4 11 13 53 22 53 2 0 -1 -15 -7 -32z m-1100 -20 c12 -21 19
-38 17 -38 -7 0 -45 63 -45 74 0 12 1 10 28 -36z m92 17 c14 -19 14 -19 -2 -6
-10 7 -18 18 -18 24 0 6 1 8 3 6 1 -2 9 -13 17 -24z m1026 -13 c-9 -17 -20
-33 -25 -36 -5 -4 0 12 12 33 25 46 36 48 13 3z m-1047 -60 c-16 -6 -37 16
-48 51 l-11 32 35 -40 c19 -22 30 -42 24 -43z m122 60 c-5 -9 -19 -26 -30 -36
-32 -29 -26 -63 19 -108 26 -27 40 -49 40 -67 0 -20 2 -23 10 -11 5 8 10 10
10 4 0 -16 -39 -64 -53 -64 -6 0 -1 7 11 16 21 14 33 42 13 30 -5 -4 -7 2 -5
11 3 11 -12 41 -36 72 -22 29 -40 46 -40 38 0 -9 11 -29 25 -45 31 -37 32 -68
3 -83 -22 -12 -22 -11 -5 8 22 26 22 33 -8 74 -23 30 -25 40 -19 89 3 30 10
62 15 70 6 10 7 5 4 -15 l-6 -30 28 32 c32 37 38 41 24 15z m1124 -56 c28 -19
109 -70 180 -115 123 -77 272 -201 241 -201 -8 0 -38 23 -67 51 -29 29 -45 40
-36 25 12 -18 14 -26 5 -26 -7 0 3 -8 21 -18 37 -20 73 -75 64 -98 -5 -15 -41
-29 -50 -20 -4 3 2 6 11 6 10 0 16 6 13 13 -2 6 -10 11 -17 9 -15 -3 -58 42
-71 76 -7 18 -6 28 3 34 9 5 7 8 -7 8 -11 0 -54 25 -95 56 -41 31 -68 49 -60
39 8 -9 42 -37 76 -61 56 -40 85 -77 71 -90 -11 -12 -108 41 -131 70 -13 18
-58 69 -100 115 -45 49 -73 87 -70 96 4 8 -14 33 -43 61 -26 25 -34 37 -18 25
17 -12 53 -37 80 -55z m-384 37 c13 -16 12 -17 -3 -4 -17 13 -22 21 -14 21 2
0 10 -8 17 -17z m-1321 -34 c-58 -54 -126 -109 -132 -109 -15 0 -14 41 0 51
15 10 15 10 0 5 -10 -3 -18 -2 -18 2 1 5 169 87 190 91 3 1 -15 -18 -40 -40z
m197 -21 c-34 -34 -51 -53 -37 -42 14 10 28 23 32 29 4 5 10 7 13 3 3 -3 -22
-36 -57 -74 -35 -38 -81 -91 -102 -117 -40 -49 -99 -87 -135 -87 -26 0 -18 26
18 58 l26 24 -30 -15 c-16 -8 -43 -17 -60 -21 l-29 -7 19 23 c11 13 -3 2 -32
-25 -29 -26 -60 -47 -70 -47 -18 0 92 105 111 105 18 1 37 16 31 25 -3 4 10
18 29 29 37 24 51 27 40 9 -4 -7 -3 -8 5 -4 6 4 9 11 6 16 -3 4 28 26 67 48
40 23 102 61 138 85 36 25 68 45 72 46 3 0 -22 -27 -55 -61z m1220 40 c-3 -8
-6 -5 -6 6 -1 11 2 17 5 13 3 -3 4 -12 1 -19z m27 -13 c-8 -20 -39 -28 -80
-21 -52 10 -48 21 8 17 28 -2 55 2 61 8 15 15 17 14 11 -4z m-1787 -8 c-6 -17
19 -51 32 -42 6 3 11 2 11 -3 0 -4 -17 -16 -37 -25 -21 -10 -31 -12 -21 -4 10
8 13 19 9 27 -4 8 -7 21 -5 28 1 6 2 17 3 22 0 6 4 10 7 10 3 0 4 -6 1 -13z
m1679 -49 l29 -33 -32 29 c-31 28 -38 36 -30 36 2 0 16 -15 33 -32z m534 2
c-6 -12 -9 -24 -7 -27 3 -2 10 5 17 16 10 21 12 21 34 4 13 -10 22 -21 19 -25
-2 -5 3 -8 12 -8 13 0 14 -4 4 -21 -8 -15 -8 -19 0 -15 12 8 71 -23 71 -37 0
-11 26 -37 32 -32 3 3 5 -1 5 -9 0 -8 -15 -2 -42 18 -22 18 -71 49 -107 70
l-66 39 17 28 c18 32 28 31 11 -1z m-1841 -25 c0 -5 -6 -1 -14 9 -8 11 -15 24
-15 30 0 5 7 1 15 -10 8 -10 14 -23 14 -29z m413 1 c-30 -34 -49 -91 -40 -117
5 -15 67 71 85 116 9 23 12 25 12 9 1 -11 -19 -49 -44 -84 -25 -35 -46 -75
-46 -89 -1 -15 -6 -4 -11 24 -12 61 3 118 40 157 37 40 40 25 4 -16z m950 32
c-15 -15 -16 -31 0 -22 7 5 8 3 3 -5 -5 -9 -10 -10 -18 -2 -10 10 6 41 21 41
3 0 1 -5 -6 -12z m-1382 -42 c0 -6 -14 -20 -31 -30 -26 -15 -33 -16 -40 -5
-12 19 -11 32 1 24 6 -3 10 -1 10 6 0 20 33 39 47 27 7 -6 13 -16 13 -22z
m1117 -11 c8 -8 18 -13 23 -10 4 3 6 -4 3 -15 -3 -11 0 -20 6 -20 6 0 8 -7 4
-17 -5 -12 -3 -14 7 -8 10 6 12 4 7 -9 -4 -9 -3 -15 1 -12 5 3 21 -8 36 -25
15 -16 48 -41 73 -56 50 -29 51 -28 -41 -73 -33 -16 -62 -34 -65 -39 -9 -14
-181 -92 -190 -86 -4 2 -14 29 -21 60 -23 96 -33 98 -59 11 -12 -42 -25 -76
-28 -76 -16 0 -173 80 -173 88 0 6 -13 15 -29 20 -15 5 -52 23 -81 40 l-52 30
45 27 c51 29 117 97 117 120 0 16 43 48 69 52 9 1 35 -18 59 -42 72 -75 128
-72 214 10 27 25 51 45 54 45 3 0 12 -7 21 -15z m361 -61 c29 -13 58 -24 65
-24 19 0 77 -39 77 -52 0 -21 -33 -48 -60 -48 -14 0 -32 -6 -39 -12 -11 -11
-13 -10 -9 2 3 8 26 21 51 28 49 14 56 22 35 40 -20 16 -120 52 -129 46 -5 -3
-26 5 -49 16 -41 21 -53 34 -22 24 12 -4 10 0 -7 13 l-23 20 -40 -36 c-26 -23
-38 -41 -35 -53 3 -10 1 -16 -4 -12 -20 12 -7 44 33 78 l43 35 30 -20 c16 -11
54 -31 83 -45z m-1698 32 c0 -2 -7 -7 -16 -10 -8 -3 -12 -2 -9 4 6 10 25 14
25 6z m130 -14 c0 -8 -53 -42 -66 -42 -5 0 7 11 26 25 40 28 40 28 40 17z
m-170 -7 c0 -2 -13 -11 -30 -20 -38 -19 -40 -11 -2 9 31 17 32 18 32 11z m730
-93 c-32 -32 -40 -46 -41 -78 -2 -32 -3 -34 -6 -10 -6 40 14 82 51 106 17 11
32 20 34 20 2 0 -15 -17 -38 -38z m959 -56 c-3 -3 -11 5 -18 17 -13 21 -12 21
5 5 10 -10 16 -20 13 -22z m-1554 -3 c-9 -38 -47 -82 -70 -83 -17 0 -18 -2 -5
-11 12 -8 10 -9 -10 -7 -21 3 -24 7 -22 33 5 36 17 52 57 77 43 26 59 24 50
-9z m1959 -33 c11 -19 15 -31 9 -27 -19 12 -22 -17 -4 -38 15 -19 15 -19 -2
-6 -10 8 -30 15 -44 16 -14 0 -31 9 -39 20 -19 26 -8 32 18 9 l22 -19 -17 24
c-15 23 -15 26 0 43 21 24 33 19 57 -22z m-1454 -10 c0 -5 -5 -10 -11 -10 -5
0 -7 5 -4 10 3 6 8 10 11 10 2 0 4 -4 4 -10z m-506 -25 c-4 -8 -13 -15 -22
-15 -13 0 -12 3 4 15 24 18 25 18 18 0z m61 -14 c-3 -6 -16 -16 -28 -22 -20
-11 -20 -9 3 13 25 24 38 29 25 9z m1820 -5 c9 -14 19 -47 22 -74 4 -44 2 -52
-16 -62 -22 -11 -41 -6 -41 10 0 5 7 7 15 4 22 -9 39 42 22 66 -13 18 -15 18
-51 -12 -35 -28 -39 -30 -54 -14 -15 15 -13 19 28 61 24 25 48 45 52 45 4 0
15 -11 23 -24z m205 -12 c0 -2 -9 0 -20 6 -11 6 -20 13 -20 16 0 2 9 0 20 -6
11 -6 20 -13 20 -16z m-2000 2 c0 -2 -8 -10 -17 -17 -16 -13 -17 -12 -4 4 13
16 21 21 21 13z m2050 -32 c0 -2 -9 0 -20 6 -11 6 -20 13 -20 16 0 2 9 0 20
-6 11 -6 20 -13 20 -16z m-900 -11 c-14 -9 -27 -20 -30 -23 -3 -3 -22 -17 -44
-29 -31 -20 -40 -21 -47 -10 -6 11 8 22 59 46 75 35 99 41 62 16z m756 -1 c-9
-8 15 -33 25 -26 5 3 6 -3 2 -12 -5 -13 -2 -16 9 -12 17 7 18 -13 3 -46 -6
-14 -2 -24 16 -40 13 -12 53 -54 88 -94 34 -39 66 -70 70 -67 4 2 41 -31 82
-73 l74 -77 -72 70 c-40 38 -73 66 -73 61 0 -5 -9 -1 -20 9 -11 10 -20 13 -20
7 0 -6 -9 -9 -20 -7 -11 2 -18 0 -15 -5 3 -5 14 -7 24 -5 11 2 27 -5 36 -16
10 -10 23 -16 29 -12 6 3 8 2 3 -2 -8 -10 32 -57 43 -50 4 2 24 -15 46 -38 21
-23 27 -31 12 -18 -16 14 -28 21 -28 16 0 -5 12 -23 28 -39 18 -20 19 -24 5
-12 -25 21 -31 13 -10 -13 6 -9 -10 7 -36 36 -27 29 -52 51 -56 48 -4 -2 -23
12 -42 32 -19 21 -26 31 -16 24 9 -7 17 -9 17 -3 0 16 -28 35 -44 29 -14 -6
-40 36 -28 47 14 15 9 37 -11 47 -18 9 -20 9 -9 -2 29 -31 9 -30 -23 1 -20 19
-47 35 -62 36 -44 4 -83 22 -83 39 0 20 -26 30 -43 17 -6 -5 -23 -13 -37 -17
-24 -7 -24 -7 -7 12 9 11 17 27 17 36 0 9 14 23 30 32 17 9 30 20 30 25 0 5 6
7 14 4 21 -8 47 35 35 57 -8 15 -6 17 6 13 9 -4 13 -9 11 -12z m-1041 -24 c25
-12 45 -28 45 -35 0 -7 -3 -13 -6 -13 -12 0 -94 55 -94 63 0 11 5 9 55 -15z
m928 -18 c-3 -12 -12 -18 -24 -17 -27 4 -32 13 -19 34 10 16 10 15 6 -7 -5
-24 -5 -24 6 2 8 20 15 25 24 17 6 -5 10 -18 7 -29z m458 13 c13 -16 12 -17
-3 -4 -10 7 -18 15 -18 17 0 8 8 3 21 -13z m-2375 -58 c-48 -57 -56 -58 -16
-1 16 25 30 50 30 57 0 10 3 10 12 1 8 -8 2 -22 -26 -57z m2199 3 c4 -7 -5 0
-19 15 -15 16 -23 33 -20 38 5 9 11 1 39 -53z m-307 -37 c-4 -38 -20 -34 -52
11 -28 40 -29 41 -10 55 17 13 21 11 42 -14 13 -16 21 -39 20 -52z m-368 28
c-48 -31 -311 -97 -342 -87 -7 3 10 8 37 12 77 11 231 53 273 75 36 19 61 19
32 0z m-782 -19 c45 -16 123 -39 174 -50 76 -16 82 -19 35 -14 -73 7 -179 36
-249 68 -73 33 -58 32 40 -4z m1420 -10 c15 -1 15 -2 -1 -11 -21 -12 -71 -3
-62 10 3 5 -1 12 -7 15 -7 3 -1 3 15 1 16 -2 27 1 28 8 1 7 3 4 6 -5 2 -10 12
-18 21 -18z m-1716 -12 c-7 -7 -12 -8 -12 -2 0 14 12 26 19 19 2 -3 -1 -11 -7
-17z m-422 -13 c0 -2 -10 -10 -22 -16 -21 -11 -22 -11 -9 4 13 16 31 23 31 12z
m8 -29 c-10 -7 -15 -15 -13 -18 3 -3 -14 -23 -37 -44 -24 -21 -43 -42 -43 -46
0 -10 -15 -12 -23 -2 -4 4 0 3 8 -1 12 -7 12 -5 -1 11 -18 21 -22 54 -5 48 6
-2 34 11 61 30 47 33 90 51 53 22z m250 -16 c7 -11 11 -20 9 -20 -2 0 -12 9
-22 20 -10 11 -14 20 -9 20 5 0 15 -9 22 -20z m1652 10 c0 -5 -10 -15 -22 -21
-23 -12 -23 -12 -4 10 21 23 26 26 26 11z m-1970 -4 c0 -2 -8 -10 -17 -17 -16
-13 -17 -12 -4 4 13 16 21 21 21 13z m2020 -22 c0 5 7 3 15 -4 8 -7 12 -17 8
-22 -3 -6 0 -8 8 -6 8 3 13 10 12 15 -4 23 41 4 75 -32 20 -22 25 -29 11 -17
-18 16 -29 20 -34 12 -5 -8 -10 -8 -21 1 -7 6 -11 15 -8 20 8 13 -10 11 -24
-3 -8 -8 -5 -18 13 -40 14 -16 25 -34 25 -39 0 -6 5 -7 10 -4 6 4 7 11 4 17
-4 6 -2 8 4 5 10 -7 11 -32 1 -42 -6 -5 -119 140 -119 152 0 5 5 1 10 -7 5 -8
10 -11 10 -6z m-1608 -26 c-7 -7 -12 -8 -12 -2 0 14 12 26 19 19 2 -3 -1 -11
-7 -17z m-466 -52 c1 -8 -10 -25 -25 -38 l-26 -23 24 28 c14 15 19 28 13 28
-7 1 -16 3 -22 4 -5 1 -13 3 -17 4 -4 0 2 7 13 15 20 15 36 8 40 -18z m604 28
c0 -8 -19 -13 -24 -6 -3 5 1 9 9 9 8 0 15 -2 15 -3z m1190 -4 c0 -5 -5 -10
-11 -10 -5 0 -7 5 -4 10 3 6 8 10 11 10 2 0 4 -4 4 -10z m-1640 -31 c0 -6 -6
-9 -14 -6 -19 8 -42 -18 -25 -29 8 -5 10 -3 4 7 -5 8 -4 10 0 6 12 -11 15 -38
4 -31 -6 3 -17 0 -26 -8 -14 -11 -16 -11 -8 2 8 13 7 13 -8 1 -9 -7 -17 -10
-17 -6 0 4 -7 2 -15 -5 -9 -7 -14 -19 -11 -26 3 -7 -2 -18 -10 -24 -8 -7 -14
-9 -14 -4 0 4 -11 -3 -25 -16 -30 -28 -33 -22 -5 10 29 33 25 48 -5 20 -14
-13 -25 -20 -25 -15 0 5 -17 -7 -37 -25 -31 -28 -29 -26 6 12 24 26 47 45 51
43 4 -2 28 18 55 45 27 27 51 47 55 45 3 -2 12 0 20 6 21 12 50 11 50 -2z
m-186 -9 c-3 -3 -10 -6 -15 -6 -5 -1 -13 -2 -19 -3 -5 0 -10 -6 -10 -12 0 -5
5 -7 10 -4 22 13 8 -3 -47 -55 -32 -30 -48 -43 -35 -29 12 14 20 29 17 32 -3
4 -2 5 2 2 10 -7 53 36 47 47 -9 14 15 37 36 35 11 -1 17 -4 14 -7z m56 -25
c-13 -14 -26 -23 -29 -20 -2 3 -18 -7 -35 -22 -19 -17 -16 -11 8 14 22 23 43
40 47 37 4 -2 10 0 14 6 3 5 9 10 12 10 4 0 -4 -11 -17 -25z m251 -54 c-26
-26 -27 -19 -3 21 11 20 18 25 20 14 2 -8 -6 -24 -17 -35z m1830 7 c12 -22 5
-23 -15 -2 -9 8 -16 23 -16 32 0 18 6 12 31 -30z m-2015 -45 c-2 -3 -6 -3 -9
-1 -3 2 -15 -6 -28 -17 l-24 -20 18 21 c9 11 24 21 32 21 8 0 13 -2 11 -4z
m-130 -45 c4 -7 3 -10 -1 -5 -5 4 -17 0 -27 -10 -10 -9 -18 -12 -18 -8 0 4
-10 0 -22 -11 -21 -17 -21 -17 1 8 13 15 27 25 32 23 4 -3 10 -1 14 5 8 13 12
13 21 -2z m308 3 c3 -5 -2 -15 -12 -22 -15 -12 -16 -12 -5 2 7 9 10 19 6 22
-3 4 -4 7 0 7 3 0 8 -4 11 -9z m1796 -39 c0 -6 -8 -13 -17 -16 -10 -4 -14 -4
-10 0 4 4 -1 13 -11 21 -16 12 -16 13 1 7 14 -5 16 -2 10 12 -6 18 -6 18 10 2
9 -9 17 -21 17 -26z"/>
<path d="M1260 2368 c-32 -11 -72 -36 -96 -59 -22 -22 -43 -37 -47 -34 -4 3
-4 2 -1 -2 3 -5 9 -8 12 -8 4 0 12 -4 18 -8 7 -4 23 8 39 28 35 47 64 65 138
86 53 15 57 18 27 17 -19 0 -60 -9 -90 -20z"/>
<path d="M1320 2361 c-38 -12 -90 -40 -90 -50 0 -4 9 -16 20 -26 26 -24 25
-35 -2 -27 -13 3 -17 7 -10 10 10 3 9 8 -3 22 -16 18 -18 18 -40 -8 l-23 -27
46 -12 47 -12 -42 2 c-45 3 -52 -3 -30 -21 20 -17 94 -1 82 18 -3 4 -1 19 4
32 6 12 10 18 10 11 1 -7 8 -10 18 -6 11 4 14 3 9 -5 -4 -7 -14 -12 -23 -12
-13 0 -13 -3 -3 -15 10 -13 8 -19 -14 -36 -14 -11 -24 -25 -21 -30 11 -17 24
-9 40 21 12 23 22 30 45 30 20 0 30 5 30 15 0 11 -5 12 -26 5 -37 -15 -48 -12
-29 6 9 9 14 23 11 31 -3 8 -2 12 3 8 5 -3 12 8 16 25 4 16 11 32 16 35 13 9
11 25 -3 24 -7 0 -24 -4 -38 -8z"/>
<path d="M1400 2362 c0 -5 7 -29 16 -55 14 -41 18 -45 34 -37 13 7 21 7 25 0
3 -6 18 -8 33 -5 l27 5 -25 -11 c-33 -15 -13 -21 34 -12 l39 8 -28 33 c-28 34
-79 64 -127 76 -16 3 -28 3 -28 -2z m122 -74 c-7 -7 -12 -8 -12 -2 0 6 3 14 7
17 3 4 9 5 12 2 2 -3 -1 -11 -7 -17z"/>
<path d="M1144 2318 l-19 -23 23 19 c21 18 27 26 19 26 -2 0 -12 -10 -23 -22z"/>
<path d="M1388 2300 c2 -22 9 -40 15 -40 6 0 2 -6 -9 -14 -18 -14 -18 -15 9
-25 16 -6 35 -11 43 -11 8 0 13 -4 9 -9 -3 -5 -1 -12 5 -16 5 -3 10 -11 10
-18 0 -6 -6 -2 -14 8 -13 18 -14 18 -25 -4 -17 -31 -10 -35 31 -18 23 10 34
21 34 35 0 12 -2 19 -4 17 -3 -2 -14 1 -26 7 -11 7 -24 11 -28 10 -4 -1 -14
22 -24 51 -21 67 -30 77 -26 27z"/>
<path d="M1590 2336 c0 -2 8 -10 18 -17 15 -13 16 -12 3 4 -13 16 -21 21 -21
13z"/>
<path d="M1353 2293 c-13 -43 -13 -45 6 -34 7 5 11 22 9 40 l-3 33 -12 -39z"/>
<path d="M1093 2248 c-3 -7 -1 -8 5 -4 15 9 15 10 -3 -39 -19 -53 -19 -105 -1
-105 15 0 29 73 15 78 -4 2 4 14 18 28 13 13 22 28 19 33 -9 14 -45 20 -53 9z"/>
<path d="M1445 2240 c3 -5 10 -10 16 -10 5 0 9 5 9 10 0 6 -7 10 -16 10 -8 0
-12 -4 -9 -10z"/>
<path d="M1141 2203 c-13 -32 -22 -93 -14 -93 3 0 21 14 40 30 18 17 39 30 45
30 7 0 -1 14 -17 30 -35 37 -40 37 -54 3z"/>
<path d="M1325 2200 c-6 -9 1 -14 17 -11 4 0 5 -6 2 -14 -4 -9 0 -15 8 -15 21
0 27 8 21 31 -6 20 -37 26 -48 9z"/>
<path d="M1386 2188 c9 -33 12 -33 34 -13 22 20 12 35 -23 35 -14 0 -17 -5
-11 -22z"/>
<path d="M1230 2186 c7 -7 14 -6 21 1 9 9 7 12 -9 10 -14 -1 -18 -5 -12 -11z"/>
<path d="M1227 2163 c-4 -3 -7 -13 -7 -22 1 -13 3 -13 11 2 11 19 8 33 -4 20z"/>
<path d="M1693 2105 c0 -27 2 -38 4 -22 2 15 2 37 0 50 -2 12 -4 0 -4 -28z"/>
<path d="M1052 2110 c0 -14 2 -19 5 -12 2 6 2 18 0 25 -3 6 -5 1 -5 -13z"/>
<path d="M1743 1985 c0 -8 4 -12 9 -9 5 3 25 -6 44 -21 25 -19 33 -32 29 -45
-7 -23 11 -36 19 -13 7 18 -33 67 -75 88 -22 12 -26 12 -26 0z"/>
<path d="M1495 1810 c3 -5 11 -10 16 -10 6 0 7 5 4 10 -3 6 -11 10 -16 10 -6
0 -7 -4 -4 -10z"/>
<path d="M1292 1275 c2 -10 22 -32 45 -48 l42 -28 41 26 c28 18 40 32 39 48
-1 17 -2 18 -6 4 -3 -13 -8 -15 -17 -8 -19 16 -106 17 -116 2 -6 -10 -10 -9
-19 5 -11 18 -12 18 -9 -1z"/>
<path d="M1293 1155 c-28 -15 -38 -25 -28 -28 7 -3 24 -24 37 -46 40 -69 123
-69 159 0 11 22 26 42 34 46 26 9 -56 46 -110 48 -36 2 -62 -4 -92 -20z"/>
<path d="M2115 1450 c-3 -5 -1 -10 4 -10 6 0 11 5 11 10 0 6 -2 10 -4 10 -3 0
-8 -4 -11 -10z"/>
<path d="M2198 1383 c7 -3 16 -2 19 1 4 3 -2 6 -13 5 -11 0 -14 -3 -6 -6z"/>
<path d="M930 1106 c0 -2 8 -10 18 -17 15 -13 16 -12 3 4 -13 16 -21 21 -21
13z"/>
<path d="M2135 920 c3 -5 8 -10 11 -10 2 0 4 5 4 10 0 6 -5 10 -11 10 -5 0 -7
-4 -4 -10z"/>
<path d="M2220 855 c13 -14 26 -25 28 -25 3 0 -5 11 -18 25 -13 14 -26 25 -28
25 -3 0 5 -11 18 -25z"/>
<path d="M388 954 c-38 -20 -36 -28 2 -9 17 9 30 18 30 20 0 7 -1 6 -32 -11z"/>
<path d="M489 819 c-41 -34 -78 -66 -84 -72 -16 -18 25 13 90 67 80 66 80 66
73 66 -3 0 -39 -28 -79 -61z"/>
<path d="M1291 594 c0 -11 3 -14 6 -6 3 7 2 16 -1 19 -3 4 -6 -2 -5 -13z"/>
<path d="M1456 595 c-9 -26 -7 -32 5 -12 6 10 9 21 6 23 -2 3 -7 -2 -11 -11z"/>
<path d="M1861 826 c2 -2 15 -9 29 -15 24 -11 24 -11 6 3 -16 13 -49 24 -35
12z"/>
<path d="M2186 577 c3 -10 9 -15 12 -12 3 3 0 11 -7 18 -10 9 -11 8 -5 -6z"/>
<path d="M2463 255 c0 -8 9 -15 20 -15 16 0 17 3 7 15 -7 8 -16 15 -20 15 -3
0 -7 -7 -7 -15z"/>
<path d="M2518 189 c24 -28 29 -44 10 -33 -7 4 -4 -2 6 -14 11 -12 22 -20 24
-17 3 3 24 -12 46 -32 22 -21 34 -30 27 -21 -7 9 -10 21 -7 26 3 6 -1 15 -9
22 -8 7 -15 9 -15 4 0 -4 -24 14 -52 41 -29 28 -43 38 -30 24z"/>
<path d="M2344 293 c2 -10 6 -17 10 -16 15 3 16 11 2 22 -12 10 -14 9 -12 -6z"/>
<path d="M234 187 l-39 -42 38 35 c21 19 40 34 43 33 5 -4 7 7 2 13 -3 2 -22
-15 -44 -39z"/>
<path d="M406 2689 c14 -24 226 -289 230 -289 9 0 2 10 -40 61 -31 37 -41 56
-33 61 8 5 6 8 -6 8 -10 0 -42 34 -78 83 -34 45 -66 84 -71 86 -7 2 -8 -2 -2
-10z"/>
<path d="M475 2689 c-17 -6 -17 -8 -2 -8 9 -1 17 -9 17 -18 0 -12 3 -14 11 -6
18 18 -2 42 -26 32z"/>
<path d="M555 2690 c-3 -5 -2 -10 4 -10 5 0 13 5 16 10 3 6 2 10 -4 10 -5 0
-13 -4 -16 -10z"/>
<path d="M693 2690 c2 -8 10 -14 16 -13 6 2 23 -16 37 -40 14 -23 36 -52 48
-63 11 -12 33 -42 49 -68 25 -43 47 -54 47 -23 0 8 -3 7 -9 -2 -7 -11 -16 -1
-35 37 -35 69 -33 80 9 43 20 -17 39 -31 44 -31 4 0 16 -18 26 -40 10 -22 20
-39 22 -36 2 2 -18 58 -44 125 l-48 121 -72 0 c-52 0 -73 -4 -73 -12 0 -9 -4
-8 -11 2 -9 13 -10 13 -6 0z m108 -97 c13 -16 12 -17 -3 -4 -10 7 -18 15 -18
17 0 8 8 3 21 -13z"/>
<path d="M870 2695 c0 -13 93 -235 97 -231 2 2 -12 51 -31 108 -31 89 -33 100
-14 78 l21 -25 -6 35 -6 35 19 -40 c21 -44 26 -36 9 14 -10 28 -15 31 -50 31
-21 0 -39 -2 -39 -5z"/>
<path d="M966 2678 c21 -69 20 -68 70 -61 53 7 55 -10 3 -21 -18 -3 -30 -8
-28 -11 3 -2 22 0 43 6 35 10 38 13 32 40 -5 28 -5 29 37 28 23 0 36 -3 28 -6
-9 -4 -10 -7 -2 -13 7 -3 14 -22 17 -41 l6 -35 -57 -13 c-31 -7 -54 -15 -52
-18 3 -2 22 0 44 6 45 13 73 14 73 3 0 -4 -27 -14 -61 -21 -34 -7 -59 -14 -57
-17 3 -2 31 2 64 9 67 16 68 18 45 130 -9 43 -17 57 -29 56 -11 0 -12 -2 -4
-6 24 -10 11 -23 -23 -23 -24 0 -35 5 -35 15 0 21 -18 19 -23 -2 -4 -17 -5
-17 -6 0 -1 13 -10 17 -47 17 -42 0 -45 -1 -38 -22z m45 -45 c-12 -20 -14 -14
-5 12 4 9 9 14 11 11 3 -2 0 -13 -6 -23z m56 5 c-3 -8 -6 -5 -6 6 -1 11 2 17
5 13 3 -3 4 -12 1 -19z"/>
<path d="M1100 2689 c0 -5 5 -7 10 -4 6 3 10 8 10 11 0 2 -4 4 -10 4 -5 0 -10
-5 -10 -11z"/>
<path d="M1191 2609 c11 -51 22 -95 26 -98 3 -3 3 5 0 19 -3 14 -11 54 -18 90
-6 36 -15 69 -19 73 -4 5 1 -33 11 -84z"/>
<path d="M1206 2670 c3 -19 8 -52 11 -72 7 -44 16 -47 39 -13 15 23 15 27 0
50 -9 14 -21 25 -27 25 -5 0 -14 10 -20 23 -8 18 -8 16 -3 -13z m31 -82 c-3
-8 -6 -5 -6 6 -1 11 2 17 5 13 3 -3 4 -12 1 -19z"/>
<path d="M1466 2685 c-3 -9 -5 -31 -5 -48 1 -27 3 -24 9 13 8 48 6 61 -4 35z"/>
<path d="M1487 2683 c-3 -10 -8 -44 -12 -75 -5 -41 -11 -58 -23 -61 -9 -3 3
-5 28 -4 25 0 35 2 23 4 -26 5 -26 7 -13 87 9 57 7 87 -3 49z"/>
<path d="M1564 2684 c-3 -11 -15 -24 -27 -29 -28 -13 -37 -72 -12 -81 11 -4
14 -13 9 -28 -4 -11 -3 -18 1 -14 10 9 45 161 39 167 -3 3 -7 -4 -10 -15z"/>
<path d="M1575 2615 c-10 -47 -16 -88 -13 -90 2 -2 12 34 22 81 10 47 16 88
13 90 -2 2 -12 -34 -22 -81z"/>
<path d="M1616 2688 c-2 -7 -12 -44 -21 -82 -17 -72 -12 -92 21 -83 16 4 15 5
-3 6 -13 0 -23 6 -23 11 0 6 10 11 23 11 18 1 19 2 4 6 -15 4 -18 11 -13 31 4
15 7 33 8 40 1 6 5 12 10 12 5 0 6 5 3 10 -4 6 7 10 25 10 l32 0 -5 -47 c-2
-27 -2 -40 0 -30 3 12 11 16 24 12 53 -15 60 -13 24 5 l-40 20 47 -4 c46 -3
47 -3 62 35 9 22 16 42 16 44 0 3 -27 5 -60 5 -47 0 -60 -3 -60 -15 0 -10 -11
-15 -35 -15 -26 0 -33 3 -29 15 4 8 3 15 0 15 -4 0 -8 -6 -10 -12z m96 -40
c-7 -7 -12 -8 -12 -2 0 14 12 26 19 19 2 -3 -1 -11 -7 -17z m59 -9 c-5 -13
-10 -19 -10 -12 -1 15 10 45 15 40 3 -2 0 -15 -5 -28z m-21 6 c0 -8 -7 -15
-16 -15 -14 0 -14 3 -4 15 7 8 14 15 16 15 2 0 4 -7 4 -15z"/>
<path d="M1816 2684 c-13 -33 -5 -49 10 -21 8 15 17 27 20 27 2 0 0 -9 -6 -21
-7 -11 -9 -23 -7 -26 3 -3 13 9 22 26 15 31 15 31 -9 31 -13 0 -27 -7 -30 -16z"/>
<path d="M1869 2673 c-29 -75 -70 -206 -66 -210 3 -2 24 44 47 104 23 59 44
114 47 121 3 6 0 12 -6 12 -6 0 -16 -12 -22 -27z"/>
<path d="M1867 2579 c-26 -67 -46 -123 -44 -125 2 -3 12 14 22 36 10 22 22 40
26 40 4 0 22 12 39 26 17 15 33 24 36 21 10 -9 -40 -98 -53 -93 -7 3 -10 -1
-6 -9 7 -20 20 -10 43 35 11 21 25 44 33 51 7 8 28 35 46 61 19 26 37 45 42
43 4 -3 11 0 15 6 5 8 3 9 -6 4 -10 -6 -12 -4 -7 8 6 15 -3 17 -66 17 l-72 0
-48 -121z"/>
<path d="M2310 2639 c-37 -51 -45 -58 -51 -42 -6 14 -8 12 -8 -10 -1 -28 -67
-125 -86 -126 -6 -1 -16 4 -23 11 -8 8 -6 19 10 42 l22 31 -22 -19 c-18 -15
-24 -16 -37 -6 -8 7 -15 20 -15 29 0 9 -4 23 -9 30 -6 10 -8 0 -4 -27 3 -23 3
-42 -1 -42 -17 0 -55 33 -49 43 4 6 1 7 -6 2 -9 -5 -5 -15 14 -35 25 -26 26
-29 8 -39 -17 -10 -16 -10 5 -11 22 0 22 -1 7 -32 l-16 -33 20 24 c15 16 22
19 25 10 13 -40 14 -42 15 -17 1 31 12 41 35 32 14 -5 13 -10 -5 -35 -75 -106
101 105 224 269 5 7 6 12 0 12 -4 0 -28 -27 -53 -61z"/>
<path d="M2267 2683 c-10 -9 -9 -23 2 -23 5 0 11 7 15 15 5 15 -5 20 -17 8z"/>
<path d="M525 2669 c-4 -6 -5 -12 -2 -15 2 -3 7 2 10 11 7 17 1 20 -8 4z"/>
<path d="M2168 2655 c15 -29 -12 -58 -42 -44 -21 10 -21 10 -1 -6 18 -14 21
-13 44 10 25 24 25 25 7 42 -18 17 -18 17 -8 -2z"/>
<path d="M636 2635 c-9 -13 -16 -30 -16 -37 0 -7 8 2 17 20 13 28 18 30 32 20
14 -12 14 -11 2 5 -17 21 -16 22 -35 -8z"/>
<path d="M556 2638 c3 -5 9 -7 12 -4 3 3 12 0 21 -6 13 -10 14 -10 4 2 -15 16
-46 23 -37 8z"/>
<path d="M526 2624 c-10 -26 22 -54 58 -53 27 2 28 2 6 6 -28 6 -52 22 -46 32
3 4 1 13 -3 20 -6 10 -10 9 -15 -5z"/>
<path d="M681 2600 c0 -15 -6 -31 -12 -37 -8 -8 -6 -19 5 -39 8 -16 15 -25 16
-21 0 5 -5 17 -11 28 -7 15 -7 24 1 34 6 8 10 24 7 37 -4 22 -4 22 -6 -2z"/>
<path d="M1312 2600 c0 -14 2 -19 5 -12 2 6 2 18 0 25 -3 6 -5 1 -5 -13z"/>
<path d="M985 2580 c-3 -5 -1 -10 4 -10 6 0 11 5 11 10 0 6 -2 10 -4 10 -3 0
-8 -4 -11 -10z"/>
<path d="M1770 2580 c0 -5 5 -10 10 -10 6 0 10 5 10 10 0 6 -4 10 -10 10 -5 0
-10 -4 -10 -10z"/>
<path d="M2221 2567 c-13 -21 -12 -21 5 -5 10 10 16 20 13 22 -3 3 -11 -5 -18
-17z"/>
<path d="M2370 2575 c-6 -7 -13 -21 -14 -29 -1 -8 -11 -25 -21 -38 -11 -13 0
-5 23 17 24 22 38 41 32 43 -5 2 -8 8 -4 13 8 14 -2 10 -16 -6z m1 -28 c-10
-9 -11 -8 -5 6 3 10 9 15 12 12 3 -3 0 -11 -7 -18z"/>
<path d="M1660 2540 c34 -11 60 -11 35 0 -11 5 -29 8 -40 8 -16 0 -15 -2 5 -8z"/>
<path d="M600 2526 c0 -2 8 -10 18 -17 15 -13 16 -12 3 4 -13 16 -21 21 -21
13z"/>
<path d="M710 2519 c-12 -8 -10 -9 7 -4 18 5 24 1 29 -20 9 -35 -9 -53 -33
-34 -11 8 -9 3 5 -12 12 -14 22 -33 22 -42 0 -10 -10 -22 -22 -27 -16 -6 -18
-9 -7 -9 25 -1 42 25 35 53 -4 16 -1 26 9 30 12 4 13 11 5 32 -17 44 -4 38 24
-11 15 -25 29 -45 32 -45 6 0 -32 67 -47 84 -13 14 -42 17 -59 5z"/>
<path d="M995 2515 c-39 -17 -21 -18 25 0 19 7 28 14 20 14 -8 0 -28 -6 -45
-14z"/>
<path d="M2003 2518 c-21 -27 -64 -100 -56 -95 10 6 75 107 69 107 -2 0 -8 -6
-13 -12z"/>
<path d="M1648 2513 c7 -3 16 -2 19 1 4 3 -2 6 -13 5 -11 0 -14 -3 -6 -6z"/>
<path d="M1729 2489 c30 -10 56 -17 58 -15 5 5 -86 36 -101 35 -6 0 13 -9 43
-20z"/>
<path d="M450 2494 c1 -12 39 -61 40 -51 0 5 -9 20 -20 34 -11 14 -20 22 -20
17z"/>
<path d="M621 2474 c0 -11 3 -14 6 -6 3 7 2 16 -1 19 -3 4 -6 -2 -5 -13z"/>
<path d="M674 2460 c3 -18 12 -37 19 -42 18 -11 21 11 4 30 -9 9 -16 21 -15
25 0 5 -4 12 -8 15 -4 4 -4 -9 0 -28z"/>
<path d="M2296 2461 c-14 -15 -15 -21 -4 -27 7 -4 10 -3 5 1 -4 5 0 17 10 27
9 10 14 18 11 18 -3 0 -13 -9 -22 -19z"/>
<path d="M868 2424 c-27 -13 -48 -27 -48 -29 0 -5 99 42 109 51 13 11 -20 0
-61 -22z"/>
<path d="M1841 2447 c17 -14 98 -54 94 -46 -7 10 -79 49 -91 49 -4 0 -5 -1 -3
-3z"/>
<path d="M2030 2391 c0 -6 4 -13 10 -16 6 -3 7 1 4 9 -7 18 -14 21 -14 7z"/>
<path d="M737 2345 c-20 -14 -37 -28 -37 -31 0 -2 18 8 40 22 35 23 47 34 37
34 -1 0 -19 -11 -40 -25z"/>
<path d="M111 2197 c2 -2 18 -11 34 -21 l30 -17 -24 20 c-13 12 -28 21 -34 21
-6 0 -8 -1 -6 -3z"/>
<path d="M5 2179 c-11 -16 -1 -19 13 -3 7 8 8 14 3 14 -5 0 -13 -5 -16 -11z"/>
<path d="M53 2129 c-12 -27 -20 -49 -18 -49 8 0 46 81 43 90 -2 4 -13 -14 -25
-41z"/>
<path d="M3 2103 c0 -18 1 -32 2 -30 12 14 25 48 17 43 -6 -3 -12 0 -14 6 -3
7 -5 -2 -5 -19z"/>
<path d="M75 2099 c-11 -4 -16 -8 -11 -8 5 -1 2 -9 -5 -18 -12 -15 -12 -16 4
-10 10 4 25 7 33 7 15 0 20 26 7 33 -5 3 -17 1 -28 -4z"/>
<path d="M2278 2082 c-7 -9 -8 -14 -4 -10 5 4 16 2 24 -5 13 -9 14 -9 8 1 -12
20 23 14 57 -10 24 -16 28 -18 18 -5 -31 39 -84 53 -103 29z"/>
<path d="M2398 2050 c3 -38 8 -49 24 -53 18 -5 19 -4 4 12 -9 10 -16 32 -16
49 0 17 -3 33 -7 35 -5 3 -6 -17 -5 -43z"/>
<path d="M12 2057 c-5 -6 -10 -42 -11 -79 l-2 -67 43 -11 c24 -7 62 -23 85
-36 56 -33 68 -30 17 4 -64 42 -114 90 -114 108 0 10 5 14 15 10 17 -6 21 9 5
19 -5 3 -10 17 -10 30 0 28 -14 40 -28 22z m15 -17 c-1 -12 -5 -16 -10 -11 -5
5 -6 14 -3 20 11 16 15 13 13 -9z m-10 -62 c-3 -7 -5 -2 -5 12 0 14 2 19 5 13
2 -7 2 -19 0 -25z"/>
<path d="M140 2040 c-13 -8 -13 -10 2 -10 9 0 20 5 23 10 8 13 -5 13 -25 0z"/>
<path d="M2462 2034 c10 -10 20 -16 22 -13 3 3 -5 11 -17 18 -21 13 -21 12 -5
-5z"/>
<path d="M134 2004 c-18 -14 -18 -15 6 -8 31 8 50 24 29 24 -8 0 -24 -7 -35
-16z"/>
<path d="M395 1979 c-4 -6 -5 -12 -2 -15 2 -3 7 2 10 11 7 17 1 20 -8 4z"/>
<path d="M315 1915 c-16 -51 -14 -50 -43 -22 -16 15 -32 27 -38 27 -5 0 -1 -5
8 -10 17 -11 48 -64 48 -85 0 -13 -82 -55 -110 -55 -10 0 -33 12 -52 27 -19
16 -27 19 -18 9 14 -18 13 -19 -5 -12 -39 16 -51 17 -78 7 l-27 -11 0 -197 c0
-143 4 -213 15 -253 19 -69 19 -75 0 -60 -8 7 -15 8 -15 2 0 -5 7 -16 17 -23
29 -24 60 -120 33 -104 -6 4 -5 -5 2 -20 6 -14 14 -22 17 -17 3 5 44 18 90 28
47 10 80 19 74 21 -7 3 -27 0 -45 -5 l-34 -9 -23 106 c-28 127 -42 167 -35 96
4 -39 3 -47 -6 -35 -9 12 -11 7 -8 -22 2 -21 1 -38 -3 -38 -8 0 -18 87 -21
180 l-1 75 -7 -55 -7 -55 -1 73 c-2 79 3 81 43 17 11 -16 45 -64 76 -105 32
-41 62 -88 68 -103 14 -37 -1 -27 -41 26 -17 23 -27 33 -23 22 4 -11 12 -45
17 -75 11 -66 23 -83 15 -21 -4 29 -2 40 4 30 5 -7 9 -23 9 -34 0 -15 3 -17 9
-7 4 8 12 14 17 15 13 3 11 108 -3 126 -17 22 -16 31 5 32 10 0 12 3 4 6 -6 2
-9 10 -5 16 16 26 12 39 -10 33 -12 -3 -35 -6 -52 -7 l-30 0 40 -19 c35 -16
37 -19 15 -20 -23 -1 -23 -2 -5 -10 11 -5 14 -9 7 -9 -8 -1 -10 -6 -6 -13 19
-34 -50 42 -77 83 -40 63 -49 97 -54 204 -3 82 -2 88 11 70 8 -11 20 -19 27
-18 11 2 107 -183 107 -207 0 -13 -17 -13 -25 0 -3 5 -12 7 -19 4 -14 -5 -66
49 -66 68 0 6 -3 8 -6 5 -10 -10 37 -73 67 -91 62 -37 90 -11 96 88 1 33 8 63
14 67 6 4 8 16 4 28 -4 14 -1 31 9 46 19 29 21 55 4 55 -7 0 2 14 20 31 24 22
32 36 29 51 -4 13 3 28 20 44 l26 24 -32 0 c-19 0 -33 -6 -36 -15z m-165 -169
c0 -6 -7 -2 -15 8 -8 11 -15 25 -15 30 0 6 7 2 15 -8 8 -11 15 -25 15 -30z
m-73 -518 c-3 -8 -6 -5 -6 6 -1 11 2 17 5 13 3 -3 4 -12 1 -19z m62 -70 c1 -5
-3 -8 -9 -8 -5 0 -10 12 -9 28 0 24 1 25 9 7 5 -11 9 -23 9 -27z"/>
<path d="M10 1860 c-10 -7 4 -10 46 -10 59 0 63 -2 88 -35 27 -34 28 -35 57
-20 16 9 29 18 29 21 0 2 -12 -2 -27 -10 -27 -14 -29 -13 -58 19 -23 25 -40
34 -75 39 -25 3 -52 1 -60 -4z"/>
<path d="M2631 1784 c0 -11 3 -14 6 -6 3 7 2 16 -1 19 -3 4 -6 -2 -5 -13z"/>
<path d="M2666 1775 c-3 -8 -11 -15 -19 -15 -7 0 -30 -9 -51 -20 -22 -10 -44
-17 -50 -13 -6 3 -8 3 -4 -2 4 -4 -8 -25 -27 -47 -19 -21 -35 -43 -35 -49 0
-5 -4 -7 -10 -4 -5 3 -10 20 -10 37 0 17 -3 29 -6 25 -3 -3 -3 -29 1 -57 l7
-52 20 34 c44 73 100 118 179 142 30 9 35 13 24 23 -10 10 -14 9 -19 -2z"/>
<path d="M2679 1647 c-14 -11 -15 -14 -2 -26 12 -11 12 -15 2 -22 -8 -4 -20
-3 -29 4 -12 9 -13 9 -3 -3 7 -7 22 -15 33 -17 17 -2 20 3 20 37 0 22 -1 40
-2 40 -2 0 -10 -6 -19 -13z"/>
<path d="M2565 1510 c3 -5 8 -10 11 -10 2 0 4 5 4 10 0 6 -5 10 -11 10 -5 0
-7 -4 -4 -10z"/>
<path d="M2679 1514 c6 -3 7 -12 4 -20 -3 -7 -9 -11 -14 -8 -5 3 -9 1 -9 -5 0
-15 14 -21 29 -12 16 10 11 43 -7 47 -7 1 -8 0 -3 -2z"/>
<path d="M136 1335 c3 -22 10 -66 14 -99 10 -69 15 -77 23 -38 4 18 -3 57 -18
103 -17 51 -23 62 -19 34z"/>
<path d="M2516 1215 c-4 -19 -12 -35 -19 -36 -7 0 -3 -4 8 -9 30 -13 35 -12
35 8 0 15 -2 15 -11 2 -7 -11 -8 -3 -4 28 8 51 0 57 -9 7z"/>
<path d="M2542 1220 c0 -14 2 -19 5 -12 2 6 2 18 0 25 -3 6 -5 1 -5 -13z"/>
<path d="M2647 1219 c7 -7 15 -10 18 -7 3 3 -2 9 -12 12 -14 6 -15 5 -6 -5z"/>
<path d="M241 1204 c0 -11 3 -14 6 -6 3 7 2 16 -1 19 -3 4 -6 -2 -5 -13z"/>
<path d="M2562 1200 c0 -14 2 -19 5 -12 2 6 2 18 0 25 -3 6 -5 1 -5 -13z"/>
<path d="M221 1194 c0 -11 3 -14 6 -6 3 7 2 16 -1 19 -3 4 -6 -2 -5 -13z"/>
<path d="M190 1136 c-47 -12 -96 -28 -108 -35 -23 -12 -23 -13 -5 -26 11 -7
35 -17 54 -22 19 -5 34 -13 35 -19 0 -5 10 -26 23 -46 l22 -37 57 21 c31 11
62 25 67 30 6 6 4 7 -6 3 -10 -4 -20 2 -27 17 -11 21 -11 21 -6 -7 4 -23 3
-26 -5 -15 -9 13 -11 13 -11 -1 0 -15 -27 -29 -57 -29 -7 0 -17 9 -24 21 -10
19 -8 20 10 14 16 -5 20 -3 15 9 -4 9 -1 23 6 31 7 9 10 18 6 22 -3 3 -6 1 -6
-5 0 -13 -27 -12 -47 1 -8 5 -13 3 -13 -3 0 -6 -4 -8 -10 -5 -5 3 -10 13 -10
21 0 8 5 12 10 9 6 -3 10 -2 10 3 0 18 40 21 51 4 9 -15 10 -15 5 2 -5 13 -2
17 9 12 8 -3 15 -2 15 3 0 12 34 10 42 -3 5 -6 8 -1 8 12 0 18 -4 22 -18 18
-24 -8 -132 -36 -137 -36 -3 0 -5 -9 -5 -21 0 -12 -5 -19 -12 -16 -7 2 -13 12
-13 22 0 15 17 23 84 41 46 13 86 26 89 29 8 8 -5 5 -98 -19z"/>
<path d="M2470 1155 c0 -2 19 -9 43 -15 143 -37 148 -39 136 -61 -6 -11 -16
-18 -24 -15 -7 2 -16 2 -19 -2 -4 -3 -15 -7 -26 -9 -14 -2 -18 2 -14 15 5 16
5 16 -6 0 -6 -10 -18 -18 -25 -18 -8 0 -15 -5 -15 -11 0 -5 4 -8 9 -4 5 3 12
1 15 -4 4 -5 2 -12 -4 -16 -5 -3 -10 -11 -10 -17 0 -7 6 -6 15 2 12 10 15 9
15 -4 0 -22 -21 -29 -53 -17 l-26 10 20 60 c18 52 24 60 42 57 12 -3 28 -5 35
-5 6 -1 12 -9 12 -18 0 -14 2 -15 9 -4 5 7 14 10 20 7 6 -4 11 -3 11 1 0 7
-113 43 -134 43 -3 0 -6 -8 -6 -17 0 -15 2 -16 10 -3 16 24 12 -2 -10 -65 -11
-32 -19 -59 -18 -61 6 -5 81 -34 83 -32 1 2 14 24 29 51 21 34 34 47 51 47 12
0 33 8 46 19 l23 18 -23 13 c-21 11 -186 60 -203 60 -5 0 -8 -2 -8 -5z m210
-69 c0 -3 -4 -8 -10 -11 -5 -3 -10 -1 -10 4 0 6 5 11 10 11 6 0 10 -2 10 -4z"/>
<path d="M2463 1134 c3 -3 -4 -35 -17 -70 -19 -53 -21 -64 -9 -68 22 -9 30 -7
14 3 -13 8 -7 39 27 129 2 6 -2 12 -9 12 -7 0 -10 -3 -6 -6z"/>
<path d="M11 1104 c0 -11 3 -14 6 -6 3 7 2 16 -1 19 -3 4 -6 -2 -5 -13z"/>
<path d="M310 1055 c0 -5 5 -17 10 -25 5 -8 10 -10 10 -5 0 6 -5 17 -10 25 -5
8 -10 11 -10 5z"/>
<path d="M679 493 c-13 -16 -12 -17 4 -4 16 13 21 21 13 21 -2 0 -10 -8 -17
-17z"/>
<path d="M2007 443 c5 -12 3 -14 -8 -8 -8 5 -11 5 -6 -1 5 -5 12 -9 15 -9 4 0
13 -4 21 -9 8 -5 7 1 -4 18 -20 30 -27 34 -18 9z"/>
<path d="M2054 345 c27 -38 56 -77 64 -85 14 -13 15 -13 3 3 -8 9 -11 20 -9
23 3 3 16 -9 28 -25 12 -17 26 -31 33 -31 6 0 4 6 -5 13 -9 6 -39 45 -68 85
-29 40 -55 71 -58 68 -3 -3 -12 0 -21 7 -8 6 6 -19 33 -58z m25 -1 c18 -25 31
-47 29 -50 -5 -4 -68 80 -68 90 0 12 8 5 39 -40z"/>
<path d="M1381 343 c0 -17 -5 -35 -11 -38 -5 -3 -10 -12 -10 -18 0 -7 5 -4 11
7 10 16 14 11 35 -40 13 -33 28 -60 34 -62 17 -6 10 -26 -24 -64 l-33 -37 -29
39 c-16 22 -33 40 -37 40 -4 0 4 20 19 45 14 25 24 49 20 52 -3 4 -6 2 -6 -3
0 -5 -10 -20 -21 -34 l-20 -25 6 65 c4 36 4 63 2 60 -12 -11 -37 -190 -37
-257 l0 -73 100 0 100 0 -1 88 c-1 90 -25 224 -28 153 -1 -28 -3 -31 -15 -21
-15 11 -41 82 -49 130 -4 21 -4 20 -6 -7z"/>
<path d="M2576 280 c5 -8 9 -18 9 -22 0 -3 3 -9 7 -13 3 -4 5 0 4 9 -1 9 -8
22 -16 29 -10 10 -11 9 -4 -3z"/>
<path d="M1718 273 c7 -3 16 -2 19 1 4 3 -2 6 -13 5 -11 0 -14 -3 -6 -6z"/>
<path d="M1648 253 c7 -3 16 -2 19 1 4 3 -2 6 -13 5 -11 0 -14 -3 -6 -6z"/>
<path d="M380 246 c0 -2 8 -10 18 -17 15 -13 16 -12 3 4 -13 16 -21 21 -21 13z"/>
<path d="M1041 213 c-21 -77 -42 -194 -38 -206 2 -6 10 16 17 50 7 35 19 64
27 67 8 3 11 1 8 -4 -3 -5 1 -7 9 -4 12 5 13 0 6 -28 -18 -72 -20 -88 -11 -88
5 0 13 25 16 55 9 68 20 64 16 -5 l-2 -50 35 0 c20 0 36 5 36 11 0 5 -4 7 -10
4 -5 -3 -10 -2 -10 4 0 6 -7 8 -15 5 -12 -5 -15 1 -14 27 1 19 3 26 6 17 3
-12 14 -18 34 -18 26 0 29 -3 23 -25 -3 -14 -2 -25 4 -25 13 0 25 47 15 63 -4
7 1 6 11 -2 16 -13 16 -12 5 12 -7 15 -16 24 -20 21 -5 -3 -9 -3 -9 1 0 3 10
10 23 16 19 8 17 9 -11 4 -30 -4 -32 -3 -18 11 20 19 20 25 1 18 -14 -6 -31
-41 -27 -56 4 -15 -11 -8 -45 22 -18 16 -41 30 -50 30 -13 0 -14 7 -9 42 4 22
9 44 11 49 3 4 29 1 58 -7 28 -7 59 -13 67 -13 13 1 -28 14 -102 32 -25 7 -28
4 -37 -30z"/>
<path d="M1148 243 c7 -3 16 -2 19 1 4 3 -2 6 -13 5 -11 0 -14 -3 -6 -6z"/>
<path d="M1598 243 c6 -2 18 -2 25 0 6 3 1 5 -13 5 -14 0 -19 -2 -12 -5z"/>
<path d="M1635 230 c-33 -10 -53 -19 -44 -19 9 -1 38 6 65 14 27 8 50 15 51
15 4 0 23 -76 23 -92 0 -12 -8 -18 -21 -18 -12 0 -34 -11 -51 -25 -36 -30 -52
-32 -45 -5 3 11 1 20 -5 20 -6 0 -7 8 -3 18 5 14 4 15 -6 5 -18 -18 -32 -16
-25 3 3 9 2 12 -5 9 -5 -4 -7 -14 -4 -24 3 -9 -2 -26 -10 -37 -20 -26 -19 -39
2 -23 17 13 17 13 0 -13 -20 -32 -22 -44 -4 -31 26 21 47 22 57 4 10 -20 -2
-23 -27 -8 -9 6 -11 3 -7 -7 4 -10 21 -14 60 -14 l55 1 -5 46 c-5 44 -5 45 9
21 l14 -25 -2 32 c-1 17 -5 29 -9 26 -5 -2 -8 1 -8 6 0 6 11 11 24 11 21 0 25
-7 35 -60 7 -33 16 -60 21 -60 5 0 7 6 5 13 -2 6 -16 63 -30 125 -16 66 -32
112 -38 111 -7 -1 -39 -9 -72 -19z m8 -167 c-4 -11 -3 -14 5 -9 8 5 11 -1 10
-18 -2 -20 -5 -23 -20 -15 -10 6 -17 13 -15 17 2 4 7 15 10 25 4 9 9 17 11 17
3 0 2 -7 -1 -17z"/>
<path d="M1795 241 c4 -8 2 -17 -6 -22 -9 -6 -10 -9 -2 -9 19 0 27 21 13 33
-10 9 -11 9 -5 -2z"/>
<path d="M960 231 c0 -10 19 -25 25 -20 1 2 -3 10 -11 17 -8 7 -14 8 -14 3z"/>
<path d="M980 236 c0 -2 7 -7 16 -10 8 -3 12 -2 9 4 -6 10 -25 14 -25 6z"/>
<path d="M1188 233 c6 -2 18 -2 25 0 6 3 1 5 -13 5 -14 0 -19 -2 -12 -5z"/>
<path d="M1548 233 c6 -2 18 -2 25 0 6 3 1 5 -13 5 -14 0 -19 -2 -12 -5z"/>
<path d="M1741 214 c0 -11 3 -14 6 -6 3 7 2 16 -1 19 -3 4 -6 -2 -5 -13z"/>
<path d="M1213 203 c9 -2 23 -2 30 0 6 3 -1 5 -18 5 -16 0 -22 -2 -12 -5z"/>
<path d="M1158 193 c7 -3 16 -2 19 1 4 3 -2 6 -13 5 -11 0 -14 -3 -6 -6z"/>
<path d="M1598 193 c7 -3 16 -2 19 1 4 3 -2 6 -13 5 -11 0 -14 -3 -6 -6z"/>
<path d="M1200 186 c0 -2 9 -6 20 -9 11 -3 18 -1 14 4 -5 9 -34 13 -34 5z"/>
<path d="M2217 183 c-4 -6 5 -21 20 -34 22 -20 24 -21 15 -4 -22 39 -29 47
-35 38z"/>
<path d="M1762 130 c0 -14 2 -19 5 -12 2 6 2 18 0 25 -3 6 -5 1 -5 -13z"/>
<path d="M1001 114 c0 -11 3 -14 6 -6 3 7 2 16 -1 19 -3 4 -6 -2 -5 -13z"/>
<path d="M1800 110 c0 -5 5 -10 10 -10 6 0 10 5 10 10 0 6 -4 10 -10 10 -5 0
-10 -4 -10 -10z"/>
<path d="M806 93 c-6 -14 -5 -15 5 -6 7 7 10 15 7 18 -3 3 -9 -2 -12 -12z"/>
<path d="M1722 90 c0 -14 2 -19 5 -12 2 6 2 18 0 25 -3 6 -5 1 -5 -13z"/>
<path d="M987 73 c-15 -53 -18 -77 -9 -68 10 11 26 85 18 85 -3 0 -7 -8 -9
-17z"/>
<path d="M1220 81 c0 -6 4 -13 10 -16 6 -3 7 1 4 9 -7 18 -14 21 -14 7z"/>
<path d="M1776 60 c4 -19 10 -42 15 -50 11 -18 1 34 -13 65 -5 13 -6 9 -2 -15z"/>
<path d="M797 52 c1 -8 3 -16 3 -18 0 -3 5 -2 10 1 6 3 10 11 10 16 0 6 -4 8
-9 5 -5 -4 -11 -3 -14 1 -2 5 -2 2 0 -5z"/>
<path d="M1732 29 c6 -16 12 -29 13 -27 6 6 -8 58 -16 58 -4 0 -3 -14 3 -31z"/>
<path d="M777 25 c-4 -8 -3 -16 1 -19 4 -3 9 4 9 15 2 23 -3 25 -10 4z"/>
<path d="M952 20 c0 -14 2 -19 5 -12 2 6 2 18 0 25 -3 6 -5 1 -5 -13z"/>
<path d="M1700 18 c0 -19 2 -20 10 -8 13 19 13 30 0 30 -5 0 -10 -10 -10 -22z"/>
<path d="M1950 33 c0 -15 19 -37 26 -31 3 4 -1 14 -10 23 -9 9 -16 13 -16 8z"/>
</g>
</svg>
